STARTFONT 2.1
COMMENT
COMMENT Converted from OpenType font "ArialB.otf" by "otf2bdf 3.0".
COMMENT
FONT -FreeType-Arial-Bold-R-Normal--44-320-100-100-P-222-ISO10646-1
SIZE 32 100 100
FONTBOUNDINGBOX 77 62 -28 -17
STARTPROPERTIES 19
FOUNDRY "FreeType"
FAMILY_NAME "Arial"
WEIGHT_NAME "Bold"
SLANT "R"
SETWIDTH_NAME "Normal"
ADD_STYLE_NAME ""
PIXEL_SIZE 44
POINT_SIZE 320
RESOLUTION_X 100
RESOLUTION_Y 100
SPACING "P"
AVERAGE_WIDTH 222
CHARSET_REGISTRY "ISO10646"
CHARSET_ENCODING "1"
FONT_ASCENT 39
FONT_DESCENT 9
COPYRIGHT "© 2006 The Monotype Corporation. All Rights Reserved."
_OTF_FONTFILE "ArialB.otf"
_OTF_PSNAME "Arial-BoldMT"
ENDPROPERTIES
CHARS 1425
STARTCHAR 0020
ENCODING 32
SWIDTH 270 0
DWIDTH 12 0
BBX 0 0 0 0
BITMAP
ENDCHAR
STARTCHAR 0021
ENCODING 33
SWIDTH 337 0
DWIDTH 15 0
BBX 7 32 4 0
BITMAP
FE
FE
FE
FE
FE
FE
FE
FE
FC
FC
FC
FC
FC
7C
7C
7C
7C
7C
7C
78
78
78
78
38
00
00
FC
FC
FC
FC
FC
FC
ENDCHAR
STARTCHAR 0022
ENCODING 34
SWIDTH 472 0
DWIDTH 21 0
BBX 17 11 2 21
BITMAP
FE3F80
FE3F80
FE3F80
FE3F80
FE3F80
FE3F80
7E3F80
7E1F80
7E1F00
7C1F00
7C1F00
ENDCHAR
STARTCHAR 0023
ENCODING 35
SWIDTH 562 0
DWIDTH 25 0
BBX 24 33 0 -1
BITMAP
00F83E
00F83E
00F87C
00F07C
01F07C
01F07C
01F07C
01F0F8
FFFFFF
FFFFFF
FFFFFF
FFFFFF
FFFFFF
07C1F0
07C1F0
07C1F0
07C1E0
07C3E0
0F83E0
FFFFFF
FFFFFF
FFFFFF
FFFFFF
FFFFFF
1F07C0
1F07C0
1F0780
1F0F80
3E0F80
3E0F80
3E0F80
3E0F00
3E1F00
ENDCHAR
STARTCHAR 0024
ENCODING 36
SWIDTH 562 0
DWIDTH 25 0
BBX 21 38 2 -4
BITMAP
007000
007000
03FE00
0FFF80
1FFFC0
3FFFC0
7FFFE0
7E77E0
7C73F0
FC73E0
FC7000
FC7000
7E7000
7F7000
7FF000
3FF800
3FFF00
1FFFC0
07FFE0
01FFE0
007FF0
0077F0
0073F8
0071F8
0071F8
F871F8
FC71F8
FC71F0
FE73F0
7FFFF0
7FFFE0
3FFFC0
1FFF80
07FE00
007000
007000
007000
007000
ENDCHAR
STARTCHAR 0025
ENCODING 37
SWIDTH 900 0
DWIDTH 40 0
BBX 35 33 2 -1
BITMAP
1FE000F000
3FF001E000
7FF801E000
7CF803C000
F87C03C000
F87C078000
F87C078000
F87C0F0000
F87C0F0000
F87C1E0000
F87C3E0000
F87C3C0000
7CF87C0000
7FF8780000
3FF0F80000
1FE0F00000
0001F00800
0001E07F00
0003E1FFC0
0003C1FFC0
0007C3E3E0
000783E3E0
000F83C3E0
000F07C1E0
001F07C1E0
001E07C1E0
003E07C1E0
003C03C3E0
007C03E3E0
007803E7E0
00F801FFC0
00F000FF80
01F0007F00
ENDCHAR
STARTCHAR 0026
ENCODING 38
SWIDTH 720 0
DWIDTH 32 0
BBX 29 33 2 -1
BITMAP
00FF8000
03FFE000
07FFF000
07FFF800
0FE1F800
0FC0F800
0FC0FC00
0FC0FC00
0FE0F800
07F1F800
07F7F000
03FFF000
03FFE000
01FF8000
03FF0000
0FFF8000
1FFF8000
3FFFC780
7F9FE7E0
7F0FF7E0
FE07FFC0
FC03FFC0
FC03FFC0
FC01FF80
FC00FF00
FE00FFC0
7F01FFE0
7FFFFFF0
3FFFFFF8
1FFFF7F0
0FFFE3F0
07FF81E0
00300040
ENDCHAR
STARTCHAR 0027
ENCODING 39
SWIDTH 247 0
DWIDTH 11 0
BBX 7 11 2 21
BITMAP
FE
FE
FE
FE
FE
FE
FC
FC
7C
7C
7C
ENDCHAR
STARTCHAR 0028
ENCODING 40
SWIDTH 337 0
DWIDTH 15 0
BBX 11 41 2 -9
BITMAP
01E0
03E0
07C0
07C0
0F80
0F80
1F80
1F00
1F00
3F00
3E00
3E00
7E00
7E00
7E00
7C00
7C00
FC00
FC00
FC00
FC00
FC00
FC00
FC00
7C00
7C00
7E00
7E00
7E00
3E00
3E00
3F00
1F00
1F00
1F80
0F80
0F80
07C0
07C0
03C0
01E0
ENDCHAR
STARTCHAR 0029
ENCODING 41
SWIDTH 337 0
DWIDTH 15 0
BBX 10 41 2 -9
BITMAP
F000
F800
7800
7C00
7E00
3E00
3F00
1F00
1F00
1F80
1F80
0F80
0FC0
0FC0
0FC0
0FC0
0FC0
07C0
07C0
07C0
07C0
07C0
07C0
07C0
0FC0
0FC0
0FC0
0FC0
0F80
0F80
1F80
1F80
1F00
1F00
3E00
3E00
3E00
7C00
7800
F800
F000
ENDCHAR
STARTCHAR 002A
ENCODING 42
SWIDTH 382 0
DWIDTH 17 0
BBX 15 15 1 17
BITMAP
0780
0380
0380
4384
F39E
FFFE
FFFE
3FF8
07C0
0FE0
1EF0
3CF8
7C7C
1830
0820
ENDCHAR
STARTCHAR 002B
ENCODING 43
SWIDTH 585 0
DWIDTH 26 0
BBX 22 22 2 5
BITMAP
00FC00
00FC00
00FC00
00FC00
00FC00
00FC00
00FC00
00FC00
FFFFFC
FFFFFC
FFFFFC
FFFFFC
FFFFFC
FFFFFC
00FC00
00FC00
00FC00
00FC00
00FC00
00FC00
00FC00
00FC00
ENDCHAR
STARTCHAR 002C
ENCODING 44
SWIDTH 270 0
DWIDTH 12 0
BBX 6 13 3 -7
BITMAP
FC
FC
FC
FC
FC
FC
1C
1C
3C
38
F8
F0
C0
ENDCHAR
STARTCHAR 002D
ENCODING 45
SWIDTH 337 0
DWIDTH 15 0
BBX 12 7 2 8
BITMAP
FFF0
FFF0
FFF0
FFF0
FFF0
FFF0
FFF0
ENDCHAR
STARTCHAR 002E
ENCODING 46
SWIDTH 270 0
DWIDTH 12 0
BBX 6 6 3 0
BITMAP
FC
FC
FC
FC
FC
FC
ENDCHAR
STARTCHAR 002F
ENCODING 47
SWIDTH 270 0
DWIDTH 12 0
BBX 12 33 0 -1
BITMAP
00F0
01F0
01F0
01E0
01E0
03E0
03E0
03C0
03C0
07C0
07C0
07C0
0780
0F80
0F80
0F80
0F00
0F00
1F00
1F00
1E00
1E00
3E00
3E00
3C00
3C00
7C00
7C00
7800
7800
F800
F800
F000
ENDCHAR
STARTCHAR 0030
ENCODING 48
SWIDTH 562 0
DWIDTH 25 0
BBX 21 33 2 -1
BITMAP
01F800
07FE00
0FFF80
1FFFC0
3FFFC0
3F8FE0
7F07E0
7E07F0
7E03F0
FE03F0
FE03F0
FC03F0
FC03F0
FC03F0
FC03F8
FC03F8
FC03F8
FC03F8
FC03F0
FC03F0
FC03F0
FC03F0
FE03F0
FE03F0
7E07F0
7E07E0
7F0FE0
3FFFE0
3FFFC0
1FFF80
0FFF00
03FE00
002000
ENDCHAR
STARTCHAR 0031
ENCODING 49
SWIDTH 562 0
DWIDTH 25 0
BBX 13 32 4 0
BITMAP
00F8
00F8
01F8
01F8
03F8
0FF8
1FF8
7FF8
FFF8
FFF8
FDF8
F1F8
C1F8
01F8
01F8
01F8
01F8
01F8
01F8
01F8
01F8
01F8
01F8
01F8
01F8
01F8
01F8
01F8
01F8
01F8
01F8
01F8
ENDCHAR
STARTCHAR 0032
ENCODING 50
SWIDTH 562 0
DWIDTH 25 0
BBX 21 32 1 0
BITMAP
00FE00
07FF80
0FFFE0
1FFFF0
3FFFF0
3F87F8
7F03F8
7E01F8
7E01F8
7E01F8
0001F8
0001F8
0003F8
0003F8
0007F0
000FE0
001FE0
003FC0
007F80
00FF00
01FE00
03FC00
07F800
0FF000
1FE000
1FC000
3FFFF8
7FFFF8
7FFFF8
7FFFF8
FFFFF8
FFFFF8
ENDCHAR
STARTCHAR 0033
ENCODING 51
SWIDTH 562 0
DWIDTH 25 0
BBX 21 33 2 -1
BITMAP
01F800
0FFE00
1FFF80
3FFFC0
7FFFC0
7F0FE0
7E07E0
FC07E0
7C07E0
0007E0
0007E0
000FE0
003FC0
00FF80
00FE00
00FF80
00FFC0
008FE0
0007F0
0003F0
0003F8
0001F8
0001F8
FC03F8
FC03F8
FC03F0
FE07F0
7FFFE0
3FFFE0
3FFFC0
1FFF80
07FE00
006000
ENDCHAR
STARTCHAR 0034
ENCODING 52
SWIDTH 562 0
DWIDTH 25 0
BBX 23 32 1 0
BITMAP
0007E0
0007E0
000FE0
001FE0
001FE0
003FE0
007FE0
007FE0
00FFE0
01FFE0
03F7E0
03E7E0
07E7E0
0FC7E0
0F87E0
1F87E0
3F07E0
3E07E0
7E07E0
FC07E0
FFFFFE
FFFFFE
FFFFFE
FFFFFE
FFFFFE
FFFFFE
0007E0
0007E0
0007E0
0007E0
0007E0
0007E0
ENDCHAR
STARTCHAR 0035
ENCODING 53
SWIDTH 562 0
DWIDTH 25 0
BBX 21 32 2 -1
BITMAP
0FFFF0
1FFFF0
1FFFF0
1FFFF0
1FFFF0
1F0000
1F0000
3F0000
3F0000
3F0000
3FFF00
3FFF80
7FFFC0
7FFFE0
7FFFF0
7E07F0
1C03F8
0001F8
0001F8
0001F8
0001F8
0001F8
1C01F8
FC01F8
FE03F8
7F07F0
7FDFF0
3FFFE0
1FFFC0
0FFF80
07FE00
002000
ENDCHAR
STARTCHAR 0036
ENCODING 54
SWIDTH 562 0
DWIDTH 25 0
BBX 21 33 2 -1
BITMAP
00FE00
03FF80
07FFC0
0FFFE0
1FFFE0
3F87F0
3F03F0
7E03F0
7E0100
7E0000
FE0000
FC1C00
FCFF00
FDFFC0
FFFFE0
FFFFE0
FF87F0
FF03F0
FE01F8
FE01F8
FE01F8
FE01F8
FE01F8
7E01F8
7E01F8
7F03F8
3F83F0
3FFFF0
1FFFE0
0FFFC0
07FF80
03FF00
002000
ENDCHAR
STARTCHAR 0037
ENCODING 55
SWIDTH 562 0
DWIDTH 25 0
BBX 21 31 2 0
BITMAP
FFFFF8
FFFFF8
FFFFF8
FFFFF8
FFFFF0
0003E0
0007E0
000FC0
001F80
001F80
003F00
003E00
007E00
007C00
00FC00
00F800
01F800
01F800
01F000
03F000
03F000
03E000
07E000
07E000
07E000
07E000
07C000
0FC000
0FC000
0FC000
0FC000
ENDCHAR
STARTCHAR 0038
ENCODING 56
SWIDTH 562 0
DWIDTH 25 0
BBX 21 33 2 -1
BITMAP
01FC00
0FFF00
1FFF80
3FFFC0
3FFFE0
7F0FE0
7E07F0
7E03F0
7C03F0
7C03F0
7E03E0
7E07E0
3FDFC0
1FFF80
0FFF00
0FFF80
3FFFC0
3FFFE0
7E07F0
FE03F0
FC03F0
FC01F8
FC01F8
FC01F8
FC03F8
FE03F0
FE07F0
7F9FF0
7FFFE0
3FFFC0
1FFF80
07FF00
006000
ENDCHAR
STARTCHAR 0039
ENCODING 57
SWIDTH 562 0
DWIDTH 25 0
BBX 22 33 1 -1
BITMAP
01FC00
07FF00
0FFF80
1FFFC0
3FFFE0
3F8FF0
7E07F0
7E03F8
7E03F8
FC01F8
FC01F8
FC01F8
7E01FC
7E01FC
7E03FC
7F03FC
3F8FFC
3FFFFC
1FFFFC
0FFDFC
03F9F8
0001F8
0001F8
0001F8
3E03F8
7E03F0
7F07F0
3FDFE0
3FFFE0
1FFFC0
0FFF80
07FE00
006000
ENDCHAR
STARTCHAR 003A
ENCODING 58
SWIDTH 337 0
DWIDTH 15 0
BBX 6 23 4 0
BITMAP
FC
FC
FC
FC
FC
FC
00
00
00
00
00
00
00
00
00
00
00
FC
FC
FC
FC
FC
FC
ENDCHAR
STARTCHAR 003B
ENCODING 59
SWIDTH 337 0
DWIDTH 15 0
BBX 6 30 4 -7
BITMAP
FC
FC
FC
FC
FC
FC
00
00
00
00
00
00
00
00
00
00
00
FC
FC
FC
FC
FC
FC
1C
1C
1C
38
F8
F0
40
ENDCHAR
STARTCHAR 003C
ENCODING 60
SWIDTH 585 0
DWIDTH 26 0
BBX 22 24 2 4
BITMAP
000004
00001C
00007C
0003FC
000FFC
003FFC
01FFFC
07FFE0
1FFF00
FFFC00
FFE000
FF8000
FE0000
FFC000
FFF000
7FFE00
0FFF80
03FFF0
00FFFC
001FFC
0007FC
0001FC
00007C
00000C
ENDCHAR
STARTCHAR 003D
ENCODING 61
SWIDTH 585 0
DWIDTH 26 0
BBX 22 15 2 8
BITMAP
FFFFFC
FFFFFC
FFFFFC
FFFFFC
FFFFFC
000000
000000
000000
000000
FFFFFC
FFFFFC
FFFFFC
FFFFFC
FFFFFC
FFFFFC
ENDCHAR
STARTCHAR 003E
ENCODING 62
SWIDTH 585 0
DWIDTH 26 0
BBX 22 24 2 4
BITMAP
800000
E00000
F80000
FF0000
FFC000
FFF000
FFFE00
1FFF80
03FFE0
00FFF8
001FFC
0007FC
0001FC
000FFC
003FFC
01FFF8
07FFC0
3FFF00
FFFC00
FFE000
FF8000
FE0000
F00000
C00000
ENDCHAR
STARTCHAR 003F
ENCODING 63
SWIDTH 607 0
DWIDTH 27 0
BBX 23 32 2 0
BITMAP
01FF00
07FFE0
0FFFF0
1FFFF8
3FFFFC
7F01FC
7E00FE
7E007E
FC007E
1C007E
00007E
0000FE
0001FC
0003FC
0007F8
000FF0
001FE0
003F80
007F00
007E00
007E00
007C00
007C00
007C00
000000
000000
007E00
007E00
007E00
007E00
007E00
007E00
ENDCHAR
STARTCHAR 0040
ENCODING 64
SWIDTH 967 0
DWIDTH 43 0
BBX 42 41 1 -9
BITMAP
0000FFF80000
0007FFFF0000
001FFFFFC000
007FFFFFE000
00FF000FF000
01F80001F800
03F00000FC00
07C000003E00
0F8000003E00
0F00FF3F1F00
1F03FFBF0F00
1E07FFFF0F00
3C0FF7FE0780
3C1FC1FE0780
7C1F80FE0780
783F007E0780
783E007E0780
787E007C0780
787E007C0780
F07E007C0780
F07C00FC0F80
F07C00FC0F00
F0FC00F81F00
F0FC01F81E00
787C01F83E00
787E03F87C00
787E03F8FC00
787F0FFBF800
7C3FFFFFF000
3C1FFFFFC000
3E0FFDFF8000
1F03F0FC0000
1F00000007C0
0FC000000F80
07E000003F00
03F800007E00
01FF0003FC00
00FFFFFFF800
003FFFFFF000
000FFFFF8000
0001FFFC0000
ENDCHAR
STARTCHAR 0041
ENCODING 65
SWIDTH 720 0
DWIDTH 32 0
BBX 32 32 0 0
BITMAP
000FE000
000FF000
001FF000
001FF800
001FF800
003FF800
003FFC00
003FFC00
007EFE00
007EFE00
00FE7E00
00FC7F00
00FC7F00
01FC3F80
01F83F80
03F81F80
03F01FC0
03F01FC0
07F00FE0
07FFFFE0
0FFFFFE0
0FFFFFF0
0FFFFFF0
1FFFFFF8
1FFFFFF8
1F8003F8
3F8001FC
3F0001FC
7F0000FE
7F0000FE
7E0000FE
FE00007F
ENDCHAR
STARTCHAR 0042
ENCODING 66
SWIDTH 720 0
DWIDTH 32 0
BBX 27 32 3 0
BITMAP
FFFFC000
FFFFF800
FFFFFE00
FFFFFF00
FFFFFF00
FE3FFF80
FE003F80
FE001F80
FE001F80
FE001F80
FE001F80
FE003F80
FE00FF00
FFFFFE00
FFFFFC00
FFFFFC00
FFFFFF00
FFFFFF80
FE00FFC0
FE001FC0
FE000FE0
FE000FE0
FE000FE0
FE000FE0
FE000FE0
FE001FE0
FE00FFC0
FFFFFFC0
FFFFFF80
FFFFFF00
FFFFFE00
FFFFF000
ENDCHAR
STARTCHAR 0043
ENCODING 67
SWIDTH 720 0
DWIDTH 32 0
BBX 28 33 2 -1
BITMAP
003FF000
01FFFC00
03FFFF00
07FFFF80
0FFFFFC0
1FF07FC0
3FC01FE0
3F800FE0
7F0007F0
7F000780
7E000000
7E000000
FE000000
FE000000
FE000000
FE000000
FE000000
FE000000
FE000000
FE000000
FE000000
7E000780
7F0007F0
7F000FE0
3F800FE0
3FC01FE0
1FF07FC0
0FFFFF80
0FFFFF80
03FFFF00
01FFFC00
007FF000
00020000
ENDCHAR
STARTCHAR 0044
ENCODING 68
SWIDTH 720 0
DWIDTH 32 0
BBX 27 32 3 0
BITMAP
FFFF0000
FFFFF000
FFFFF800
FFFFFE00
FFFFFF00
FFFFFF00
FE007F80
FE003F80
FE001FC0
FE001FC0
FE000FC0
FE000FE0
FE000FE0
FE000FE0
FE000FE0
FE000FE0
FE000FE0
FE000FE0
FE000FE0
FE000FE0
FE000FE0
FE000FC0
FE001FC0
FE001FC0
FE003F80
FE007F80
FE07FF00
FFFFFF00
FFFFFE00
FFFFFC00
FFFFF000
FFFF8000
ENDCHAR
STARTCHAR 0045
ENCODING 69
SWIDTH 675 0
DWIDTH 30 0
BBX 24 32 3 0
BITMAP
FFFFFF
FFFFFF
FFFFFF
FFFFFF
FFFFFF
FFFFFF
FE0000
FE0000
FE0000
FE0000
FE0000
FE0000
FE0000
FFFFFE
FFFFFE
FFFFFE
FFFFFE
FFFFFE
FE0000
FE0000
FE0000
FE0000
FE0000
FE0000
FE0000
FE0000
FE0000
FFFFFF
FFFFFF
FFFFFF
FFFFFF
FFFFFF
ENDCHAR
STARTCHAR 0046
ENCODING 70
SWIDTH 607 0
DWIDTH 27 0
BBX 22 32 3 0
BITMAP
FFFFFC
FFFFFC
FFFFFC
FFFFFC
FFFFFC
FFFFFC
FE0000
FE0000
FE0000
FE0000
FE0000
FE0000
FE0000
FFFFF0
FFFFF0
FFFFF0
FFFFF0
FFFFF0
FE0000
FE0000
FE0000
FE0000
FE0000
FE0000
FE0000
FE0000
FE0000
FE0000
FE0000
FE0000
FE0000
FE0000
ENDCHAR
STARTCHAR 0047
ENCODING 71
SWIDTH 787 0
DWIDTH 35 0
BBX 30 33 2 -1
BITMAP
003FFC00
00FFFF00
03FFFFC0
07FFFFE0
0FFFFFF0
1FF83FF0
1FE007F8
3FC003F8
3F8003F8
7F0001E0
7F000000
7E000000
FE000000
FE000000
FE000000
FE00FFFC
FE00FFFC
FE00FFFC
FE00FFFC
FE00FFFC
7E0001FC
7F0001FC
7F0001FC
3F8001FC
3FC001FC
1FE003FC
1FF81FFC
0FFFFFFC
07FFFFF8
03FFFFE0
00FFFF80
003FFE00
00018000
ENDCHAR
STARTCHAR 0048
ENCODING 72
SWIDTH 720 0
DWIDTH 32 0
BBX 26 32 3 0
BITMAP
FE001FC0
FE001FC0
FE001FC0
FE001FC0
FE001FC0
FE001FC0
FE001FC0
FE001FC0
FE001FC0
FE001FC0
FE001FC0
FE001FC0
FE001FC0
FFFFFFC0
FFFFFFC0
FFFFFFC0
FFFFFFC0
FFFFFFC0
FE001FC0
FE001FC0
FE001FC0
FE001FC0
FE001FC0
FE001FC0
FE001FC0
FE001FC0
FE001FC0
FE001FC0
FE001FC0
FE001FC0
FE001FC0
FE001FC0
ENDCHAR
STARTCHAR 0049
ENCODING 73
SWIDTH 270 0
DWIDTH 12 0
BBX 6 32 3 0
BITMAP
FC
FC
FC
FC
FC
FC
FC
FC
FC
FC
FC
FC
FC
FC
FC
FC
FC
FC
FC
FC
FC
FC
FC
FC
FC
FC
FC
FC
FC
FC
FC
FC
ENDCHAR
STARTCHAR 004A
ENCODING 74
SWIDTH 562 0
DWIDTH 25 0
BBX 20 33 1 -1
BITMAP
0003F0
0003F0
0003F0
0003F0
0003F0
0003F0
0003F0
0003F0
0003F0
0003F0
0003F0
0003F0
0003F0
0003F0
0003F0
0003F0
0003F0
0003F0
0003F0
0003F0
0003F0
0003F0
FC03F0
FC03F0
FC07F0
FE07F0
FF0FE0
7FFFE0
7FFFC0
3FFFC0
1FFF80
0FFE00
004000
ENDCHAR
STARTCHAR 004B
ENCODING 75
SWIDTH 720 0
DWIDTH 32 0
BBX 29 32 3 0
BITMAP
FE001FF0
FE001FE0
FE003FC0
FE007F80
FE00FF00
FE01FE00
FE03FC00
FE07F800
FE0FF000
FE1FE000
FE3FC000
FE7F8000
FEFF0000
FEFF8000
FFFFC000
FFFFC000
FFFFE000
FFFFF000
FFE7F000
FFC7F800
FF83FC00
FF01FC00
FE01FE00
FE00FE00
FE00FF00
FE007F80
FE007F80
FE003FC0
FE001FE0
FE001FE0
FE000FF0
FE000FF8
ENDCHAR
STARTCHAR 004C
ENCODING 76
SWIDTH 607 0
DWIDTH 27 0
BBX 23 32 3 0
BITMAP
FE0000
FE0000
FE0000
FE0000
FE0000
FE0000
FE0000
FE0000
FE0000
FE0000
FE0000
FE0000
FE0000
FE0000
FE0000
FE0000
FE0000
FE0000
FE0000
FE0000
FE0000
FE0000
FE0000
FE0000
FE0000
FE0000
FE0000
FFFFFE
FFFFFE
FFFFFE
FFFFFE
FFFFFE
ENDCHAR
STARTCHAR 004D
ENCODING 77
SWIDTH 832 0
DWIDTH 37 0
BBX 31 32 3 0
BITMAP
FFC007FE
FFC007FE
FFC007FE
FFE00FFE
FFE00FFE
FFE00FFE
FFE00FFE
FFF01FFE
FFF01FFE
FDF01F7E
FDF01F7E
FDF83F7E
FDF83E7E
FCF83E7E
FCFC7E7E
FCFC7E7E
FCFC7C7E
FC7C7C7E
FC7EFC7E
FC7EFC7E
FC7EF87E
FC3EF87E
FC3FF87E
FC3FF87E
FC1FF07E
FC1FF07E
FC1FF07E
FC1FF07E
FC0FE07E
FC0FE07E
FC0FE07E
FC0FE07E
ENDCHAR
STARTCHAR 004E
ENCODING 78
SWIDTH 720 0
DWIDTH 32 0
BBX 26 32 3 0
BITMAP
FE000FC0
FE000FC0
FF000FC0
FF800FC0
FF800FC0
FFC00FC0
FFC00FC0
FFE00FC0
FFF00FC0
FFF00FC0
FFF80FC0
FFF80FC0
FDFC0FC0
FCFE0FC0
FCFE0FC0
FC7F0FC0
FC7F8FC0
FC3F8FC0
FC1FCFC0
FC1FCFC0
FC0FEFC0
FC07FFC0
FC07FFC0
FC03FFC0
FC03FFC0
FC01FFC0
FC00FFC0
FC00FFC0
FC007FC0
FC003FC0
FC003FC0
FC001FC0
ENDCHAR
STARTCHAR 004F
ENCODING 79
SWIDTH 787 0
DWIDTH 35 0
BBX 31 33 2 -1
BITMAP
003FF800
01FFFE00
03FFFF80
07FFFFC0
0FFFFFE0
1FF83FF0
3FE00FF8
3F8007F8
7F0003FC
7F0001FC
7E0001FC
FE0000FC
FE0000FE
FE0000FE
FE0000FE
FE0000FE
FE0000FE
FE0000FE
FE0000FE
FE0000FE
FE0000FC
7E0001FC
7F0001FC
7F0003FC
3F8007F8
3FC00FF8
1FF01FF0
1FFFFFE0
0FFFFFC0
03FFFF80
01FFFF00
007FFC00
00010000
ENDCHAR
STARTCHAR 0050
ENCODING 80
SWIDTH 675 0
DWIDTH 30 0
BBX 25 32 3 0
BITMAP
FFFE0000
FFFFF000
FFFFFC00
FFFFFE00
FFFFFE00
FFFFFF00
FE00FF00
FE007F00
FE003F80
FE003F80
FE003F80
FE003F80
FE007F00
FE00FF00
FE07FF00
FFFFFE00
FFFFFC00
FFFFFC00
FFFFF000
FFFFC000
FE000000
FE000000
FE000000
FE000000
FE000000
FE000000
FE000000
FE000000
FE000000
FE000000
FE000000
FE000000
ENDCHAR
STARTCHAR 0051
ENCODING 81
SWIDTH 787 0
DWIDTH 35 0
BBX 32 35 2 -3
BITMAP
003FF800
01FFFE00
03FFFF80
07FFFFC0
0FFFFFE0
1FF83FF0
3FE00FF8
3F8007F8
7F0003FC
7F0001FC
7E0001FC
FE0000FC
FE0000FE
FE0000FE
FE0000FE
FE0000FE
FE0000FE
FE0000FE
FE0000FE
FE0000FE
FE0000FC
7E0181FC
7F01E1FC
7F03FBFC
3F83FFF8
3FC0FFF8
1FF07FF0
1FFFFFE0
0FFFFFF0
07FFFFF8
01FFFFFF
007FFDFF
000100FE
0000003C
0000000C
ENDCHAR
STARTCHAR 0052
ENCODING 82
SWIDTH 720 0
DWIDTH 32 0
BBX 29 32 3 0
BITMAP
FFFFE000
FFFFFC00
FFFFFF00
FFFFFF00
FFFFFF80
FFFFFFC0
FE003FC0
FE001FC0
FE000FC0
FE000FC0
FE000FC0
FE001FC0
FE001FC0
FE03FF80
FFFFFF80
FFFFFF00
FFFFFC00
FFFFF000
FFFFE000
FE0FF000
FE07F800
FE03FC00
FE01FE00
FE01FF00
FE00FF00
FE007F80
FE007F80
FE003FC0
FE001FE0
FE001FE0
FE000FF0
FE0007F8
ENDCHAR
STARTCHAR 0053
ENCODING 83
SWIDTH 675 0
DWIDTH 30 0
BBX 25 33 2 -1
BITMAP
01FFC000
07FFF000
1FFFFC00
1FFFFE00
3FFFFE00
7F81FF00
7E007F00
7E007F00
7E003F80
7E003000
7F800000
7FE00000
3FFE0000
3FFFE000
1FFFF800
0FFFFC00
03FFFE00
007FFF00
0007FF80
0000FF80
00003F80
7C001F80
FC001F80
FE001F80
FE001F80
7F003F80
7FC0FF80
3FFFFF00
3FFFFF00
1FFFFE00
0FFFF800
03FFE000
001C0000
ENDCHAR
STARTCHAR 0054
ENCODING 84
SWIDTH 607 0
DWIDTH 27 0
BBX 25 32 1 0
BITMAP
FFFFFF80
FFFFFF80
FFFFFF80
FFFFFF80
FFFFFF80
FFFFFF80
007F0000
007F0000
007F0000
007F0000
007F0000
007F0000
007F0000
007F0000
007F0000
007F0000
007F0000
007F0000
007F0000
007F0000
007F0000
007F0000
007F0000
007F0000
007F0000
007F0000
007F0000
007F0000
007F0000
007F0000
007F0000
007F0000
ENDCHAR
STARTCHAR 0055
ENCODING 85
SWIDTH 720 0
DWIDTH 32 0
BBX 26 33 3 -1
BITMAP
FE001FC0
FE001FC0
FE001FC0
FE001FC0
FE001FC0
FE001FC0
FE001FC0
FE001FC0
FE001FC0
FE001FC0
FE001FC0
FE001FC0
FE001FC0
FE001FC0
FE001FC0
FE001FC0
FE001FC0
FE001FC0
FE001FC0
FE001FC0
FE001FC0
FE001F80
FE001F80
7E001F80
7F003F80
7F003F80
7FC0FF80
3FFFFF00
3FFFFE00
1FFFFE00
07FFF800
03FFF000
000C0000
ENDCHAR
STARTCHAR 0056
ENCODING 86
SWIDTH 675 0
DWIDTH 30 0
BBX 29 32 0 0
BITMAP
FE0001F8
FE0003F8
7F0003F8
7F0003F0
7F0007F0
3F8007F0
3F8007E0
1F800FE0
1FC00FE0
1FC00FC0
0FC01FC0
0FE01FC0
0FE01F80
07F03F80
07F03F00
07F03F00
03F87F00
03F87E00
01F87E00
01FCFE00
01FCFC00
00FCFC00
00FFFC00
00FFF800
007FF800
007FF800
007FF000
003FF000
003FE000
003FE000
001FE000
001FC000
ENDCHAR
STARTCHAR 0057
ENCODING 87
SWIDTH 945 0
DWIDTH 42 0
BBX 42 32 0 0
BITMAP
FE007F801FC0
FE007F801FC0
7E007FC01F80
7E00FFC01F80
7F00FFC03F80
7F00FFC03F80
3F00FFE03F00
3F01FFE03F00
3F81FFE03F00
3F81FFE07F00
1F81F3F07E00
1F83F3F07E00
1F83F3F07E00
1FC3F3F07E00
0FC3E1F8FC00
0FC7E1F8FC00
0FC7E1F8FC00
0FE7E1F8FC00
07EFC0FDF800
07EFC0FDF800
07EFC0FDF800
07EF807DF800
07FF807FF000
03FF807FF000
03FF807FF000
03FF003FF000
03FF003FF000
01FF003FE000
01FF003FE000
01FE001FE000
01FE001FE000
00FE001FC000
ENDCHAR
STARTCHAR 0058
ENCODING 88
SWIDTH 675 0
DWIDTH 30 0
BBX 29 32 0 0
BITMAP
7F8007F0
3F800FF0
3FC00FE0
1FE01FC0
0FE01FC0
0FF03F80
07F07F80
03F87F00
03FCFE00
01FDFE00
00FFFC00
00FFF800
007FF800
003FF000
003FE000
001FE000
003FE000
007FF000
007FF800
00FFF800
00FFFC00
01FDFE00
03FCFE00
03F8FF00
07F87F80
0FF03F80
0FE03FC0
1FE01FE0
3FC00FE0
3F800FF0
7F8007F8
FF0007F8
ENDCHAR
STARTCHAR 0059
ENCODING 89
SWIDTH 675 0
DWIDTH 30 0
BBX 29 32 0 0
BITMAP
FF0003F8
7F0003F8
7F8007F0
3F800FF0
1FC00FE0
1FE01FC0
0FE01FC0
07F03F80
07F07F00
03F87F00
03FCFE00
01FCFE00
00FFFC00
00FFF800
007FF800
003FF000
003FE000
001FE000
001FC000
000FC000
000FC000
000FC000
000FC000
000FC000
000FC000
000FC000
000FC000
000FC000
000FC000
000FC000
000FC000
000FC000
ENDCHAR
STARTCHAR 005A
ENCODING 90
SWIDTH 607 0
DWIDTH 27 0
BBX 26 32 0 0
BITMAP
3FFFFFC0
3FFFFFC0
3FFFFFC0
3FFFFFC0
3FFFFFC0
3FFFFF80
0000FF80
0000FF00
0001FE00
0003FC00
0007F800
000FF800
000FF000
001FE000
003FC000
007F8000
00FF0000
00FF0000
01FE0000
03FC0000
07F80000
0FF00000
1FF00000
1FE00000
3FC00000
7F800000
FF000000
FFFFFFC0
FFFFFFC0
FFFFFFC0
FFFFFFC0
FFFFFFC0
ENDCHAR
STARTCHAR 005B
ENCODING 91
SWIDTH 337 0
DWIDTH 15 0
BBX 11 41 3 -9
BITMAP
FFE0
FFE0
FFE0
FFE0
FFE0
FC00
FC00
FC00
FC00
FC00
FC00
FC00
FC00
FC00
FC00
FC00
FC00
FC00
FC00
FC00
FC00
FC00
FC00
FC00
FC00
FC00
FC00
FC00
FC00
FC00
FC00
FC00
FC00
FC00
FC00
FC00
FFE0
FFE0
FFE0
FFE0
FFE0
ENDCHAR
STARTCHAR 005C
ENCODING 92
SWIDTH 270 0
DWIDTH 12 0
BBX 12 33 0 -1
BITMAP
F800
F800
7800
7800
7C00
7C00
3C00
3C00
3E00
3E00
1E00
1E00
1F00
1F00
1F00
0F00
0F80
0F80
0F80
0780
0780
07C0
07C0
03C0
03C0
03E0
03E0
01E0
01E0
01F0
01F0
00F0
00F0
ENDCHAR
STARTCHAR 005D
ENCODING 93
SWIDTH 337 0
DWIDTH 15 0
BBX 11 41 1 -9
BITMAP
FFE0
FFE0
FFE0
FFE0
FFE0
07E0
07E0
07E0
07E0
07E0
07E0
07E0
07E0
07E0
07E0
07E0
07E0
07E0
07E0
07E0
07E0
07E0
07E0
07E0
07E0
07E0
07E0
07E0
07E0
07E0
07E0
07E0
07E0
07E0
07E0
07E0
FFE0
FFE0
FFE0
FFE0
FFE0
ENDCHAR
STARTCHAR 005E
ENCODING 94
SWIDTH 585 0
DWIDTH 26 0
BBX 20 17 3 15
BITMAP
01F800
01F800
03FC00
03FC00
07FE00
07FE00
0FFF00
0FFF00
1F9F80
1F9F80
1F0F80
3F0FC0
3F0FC0
7E07E0
7E07E0
FC03F0
FC03F0
ENDCHAR
STARTCHAR 005F
ENCODING 95
SWIDTH 562 0
DWIDTH 25 0
BBX 25 4 0 -9
BITMAP
FFFFFF80
FFFFFF80
FFFFFF80
FFFFFF80
ENDCHAR
STARTCHAR 0060
ENCODING 96
SWIDTH 337 0
DWIDTH 15 0
BBX 9 6 1 26
BITMAP
FE00
3F00
1F00
1F80
0F80
0780
ENDCHAR
STARTCHAR 0061
ENCODING 97
SWIDTH 562 0
DWIDTH 25 0
BBX 21 25 2 -1
BITMAP
002000
0FFF00
1FFFC0
3FFFE0
7FFFE0
7F0FF0
FC03F0
1C03F0
0003F0
000FF0
00FFF0
0FFFF0
3FFFF0
7FF3F0
FF03F0
FC03F0
FC03F0
FC03F0
FC07F0
FE0FF0
FFFFF0
7FFFF0
3FF9F8
1FF1F8
010000
ENDCHAR
STARTCHAR 0062
ENCODING 98
SWIDTH 607 0
DWIDTH 27 0
BBX 22 32 3 -1
BITMAP
FC0000
FC0000
FC0000
FC0000
FC0000
FC0000
FC0000
FC0000
FC0800
FC7F80
FDFFE0
FFFFF0
FFFFF0
FF87F8
FF03FC
FE01FC
FE00FC
FC00FC
FC00FC
FC00FC
FC00FC
FC00FC
FC00FC
FC00FC
FE00FC
FE01FC
FF03F8
FFCFF8
FFFFF0
FFFFE0
FDFFC0
FC7F80
ENDCHAR
STARTCHAR 0063
ENCODING 99
SWIDTH 562 0
DWIDTH 25 0
BBX 22 25 2 -1
BITMAP
003000
03FF00
0FFFC0
1FFFE0
3FFFF0
3FC7F0
7F03F8
7E01F8
FE0180
FC0000
FC0000
FC0000
FC0000
FC0000
FC0000
FC00C0
FE01FC
7E01F8
7F03F8
7FEFF0
3FFFF0
1FFFE0
0FFFC0
03FF00
002000
ENDCHAR
STARTCHAR 0064
ENCODING 100
SWIDTH 607 0
DWIDTH 27 0
BBX 22 33 2 -1
BITMAP
0000FC
0000FC
0000FC
0000FC
0000FC
0000FC
0000FC
0000FC
0040FC
07FCFC
0FFEFC
1FFFFC
3FFFFC
7F87FC
7F03FC
FE01FC
FE00FC
FC00FC
FC00FC
FC00FC
FC00FC
FC00FC
FC00FC
FC00FC
FE00FC
7E01FC
7F03FC
7FCFFC
3FFFFC
1FFF7C
0FFE7C
07F87C
004000
ENDCHAR
STARTCHAR 0065
ENCODING 101
SWIDTH 562 0
DWIDTH 25 0
BBX 22 25 1 -1
BITMAP
003000
03FF00
07FFC0
0FFFE0
1FFFF0
3F87F0
3F03F8
7E01F8
7E00F8
7E00FC
7E00FC
FFFFFC
FFFFFC
FFFFFC
7E0000
7E0000
7E0000
7E01F0
3F01F8
3FC3F8
1FFFF0
1FFFE0
07FFC0
03FF80
001000
ENDCHAR
STARTCHAR 0066
ENCODING 102
SWIDTH 337 0
DWIDTH 15 0
BBX 15 32 1 0
BITMAP
03FE
07FE
0FFE
1FFC
1FC4
1F80
1F80
1F80
1F80
FFFC
FFFC
FFFC
FFFC
FFFC
1F80
1F80
1F80
1F80
1F80
1F80
1F80
1F80
1F80
1F80
1F80
1F80
1F80
1F80
1F80
1F80
1F80
1F80
ENDCHAR
STARTCHAR 0067
ENCODING 103
SWIDTH 607 0
DWIDTH 27 0
BBX 22 33 2 -9
BITMAP
004000
07FC7C
0FFE7C
1FFF7C
3FFFFC
7F87FC
7F03FC
FE01FC
FE00FC
FC00FC
FC00FC
FC00FC
FC00FC
FC00FC
FC00FC
FE00FC
FE01FC
7F01FC
7F87FC
3FFFFC
3FFFFC
1FFEFC
0FFCFC
03F0FC
0000FC
0000FC
7F00FC
7F01FC
7F87F8
7FFFF8
3FFFF0
1FFFE0
07FF80
ENDCHAR
STARTCHAR 0068
ENCODING 104
SWIDTH 607 0
DWIDTH 27 0
BBX 21 32 3 0
BITMAP
FC0000
FC0000
FC0000
FC0000
FC0000
FC0000
FC0000
FC0000
FC0400
FC7FC0
FCFFE0
FDFFF0
FFFFF0
FF87F8
FF03F8
FE01F8
FE01F8
FC01F8
FC01F8
FC01F8
FC01F8
FC01F8
FC01F8
FC01F8
FC01F8
FC01F8
FC01F8
FC01F8
FC01F8
FC01F8
FC01F8
FC01F8
ENDCHAR
STARTCHAR 0069
ENCODING 105
SWIDTH 270 0
DWIDTH 12 0
BBX 6 32 3 0
BITMAP
FC
FC
FC
FC
FC
FC
00
00
00
FC
FC
FC
FC
FC
FC
FC
FC
FC
FC
FC
FC
FC
FC
FC
FC
FC
FC
FC
FC
FC
FC
FC
ENDCHAR
STARTCHAR 006A
ENCODING 106
SWIDTH 270 0
DWIDTH 12 0
BBX 11 41 -2 -9
BITMAP
07E0
07E0
07E0
07E0
07E0
07E0
0000
0000
0000
07E0
07E0
07E0
07E0
07E0
07E0
07E0
07E0
07E0
07E0
07E0
07E0
07E0
07E0
07E0
07E0
07E0
07E0
07E0
07E0
07E0
07E0
07E0
07E0
07E0
07E0
1FE0
7FE0
7FE0
FFC0
FF80
FF00
ENDCHAR
STARTCHAR 006B
ENCODING 107
SWIDTH 562 0
DWIDTH 25 0
BBX 21 32 3 0
BITMAP
FC0000
FC0000
FC0000
FC0000
FC0000
FC0000
FC0000
FC0000
FC0000
FC07F0
FC0FE0
FC1FC0
FC3F80
FC7F00
FCFF00
FDFE00
FDFC00
FFF800
FFF800
FFFC00
FFFE00
FFFE00
FF7F00
FE3F00
FC3F80
FC1FC0
FC0FC0
FC0FE0
FC07E0
FC07F0
FC03F0
FC03F8
ENDCHAR
STARTCHAR 006C
ENCODING 108
SWIDTH 270 0
DWIDTH 12 0
BBX 6 32 3 0
BITMAP
FC
FC
FC
FC
FC
FC
FC
FC
FC
FC
FC
FC
FC
FC
FC
FC
FC
FC
FC
FC
FC
FC
FC
FC
FC
FC
FC
FC
FC
FC
FC
FC
ENDCHAR
STARTCHAR 006D
ENCODING 109
SWIDTH 900 0
DWIDTH 40 0
BBX 34 24 3 0
BITMAP
0008002000
F8FF83FC00
F9FFC7FF00
FBFFEFFF80
FFFFFFFF80
FF8FFE3F80
FE07F81F80
FE07F81FC0
FC03F01FC0
FC03F01FC0
FC03F00FC0
FC03F00FC0
FC03F00FC0
FC03F00FC0
FC03F00FC0
FC03F00FC0
FC03F00FC0
FC03F00FC0
FC03F00FC0
FC03F00FC0
FC03F00FC0
FC03F00FC0
FC03F00FC0
FC03F00FC0
ENDCHAR
STARTCHAR 006E
ENCODING 110
SWIDTH 607 0
DWIDTH 27 0
BBX 21 24 3 0
BITMAP
000400
FC7FC0
FCFFE0
FDFFF0
FFFFF0
FF87F8
FF03F8
FE01F8
FE01F8
FC01F8
FC01F8
FC01F8
FC01F8
FC01F8
FC01F8
FC01F8
FC01F8
FC01F8
FC01F8
FC01F8
FC01F8
FC01F8
FC01F8
FC01F8
ENDCHAR
STARTCHAR 006F
ENCODING 111
SWIDTH 607 0
DWIDTH 27 0
BBX 24 25 2 -1
BITMAP
001000
03FF80
07FFE0
1FFFF0
3FFFF8
3FEFFC
7F01FC
7E00FE
FE00FE
FC007E
FC007E
FC007F
FC007F
FC007F
FC007E
FC007E
FE007E
7F00FE
7F81FC
3FEFF8
3FFFF8
1FFFF0
07FFC0
03FF80
001000
ENDCHAR
STARTCHAR 0070
ENCODING 112
SWIDTH 607 0
DWIDTH 27 0
BBX 22 33 3 -9
BITMAP
000C00
FC7F80
FDFFE0
FFFFF0
FFFFF0
FFCFF8
FF03FC
FE01FC
FE00FC
FC00FC
FC00FC
FC00FC
FC00FC
FC00FC
FC00FC
FC00FC
FE00FC
FE01FC
FF03F8
FFEFF8
FFFFF0
FFFFF0
FDFFC0
FC7F80
FC0000
FC0000
FC0000
FC0000
FC0000
FC0000
FC0000
FC0000
FC0000
ENDCHAR
STARTCHAR 0071
ENCODING 113
SWIDTH 607 0
DWIDTH 27 0
BBX 22 33 2 -9
BITMAP
004000
07FC7C
0FFE7C
1FFF7C
3FFFFC
7FC7FC
7F01FC
7E01FC
FE00FC
FE00FC
FC00FC
FC00FC
FC00FC
FC00FC
FC00FC
FE00FC
FE00FC
7E01FC
7F03FC
3FCFFC
3FFFFC
1FFFFC
0FFEFC
07F8FC
0040FC
0000FC
0000FC
0000FC
0000FC
0000FC
0000FC
0000FC
0000FC
ENDCHAR
STARTCHAR 0072
ENCODING 114
SWIDTH 382 0
DWIDTH 17 0
BBX 15 24 3 0
BITMAP
0020
FCFE
FDFE
FFFC
FFFC
FFF8
FF08
FE00
FE00
FC00
FC00
FC00
FC00
FC00
FC00
FC00
FC00
FC00
FC00
FC00
FC00
FC00
FC00
FC00
ENDCHAR
STARTCHAR 0073
ENCODING 115
SWIDTH 562 0
DWIDTH 25 0
BBX 22 25 1 -1
BITMAP
002000
07FF80
1FFFC0
3FFFE0
3FFFF0
7E03F0
7E01F8
7E0100
7F8000
7FF800
3FFF00
3FFFE0
1FFFF0
07FFF8
00FFF8
000FF8
0001FC
FE01FC
FE01F8
7F03F8
7FFFF0
3FFFF0
1FFFE0
07FF80
001000
ENDCHAR
STARTCHAR 0074
ENCODING 116
SWIDTH 337 0
DWIDTH 15 0
BBX 13 32 1 -1
BITMAP
0180
0380
0F80
3F80
3F80
3F80
3F80
3F80
FFF8
FFF8
FFF8
FFF8
FFF8
3F80
3F80
3F80
3F80
3F80
3F80
3F80
3F80
3F80
3F80
3F80
3F80
1F80
1FF8
1FF8
1FF8
1FF8
07F8
0080
ENDCHAR
STARTCHAR 0075
ENCODING 117
SWIDTH 607 0
DWIDTH 27 0
BBX 21 24 3 -1
BITMAP
FC01F8
FC01F8
FC01F8
FC01F8
FC01F8
FC01F8
FC01F8
FC01F8
FC01F8
FC01F8
FC01F8
FC01F8
FC01F8
FC01F8
FC01F8
FC01F8
FC03F8
FE07F8
7F0FF8
7FFFF8
7FFFF8
3FFDF8
0FF1F8
010000
ENDCHAR
STARTCHAR 0076
ENCODING 118
SWIDTH 562 0
DWIDTH 25 0
BBX 24 23 0 0
BITMAP
FE003F
7E007F
7F007E
3F007E
3F00FC
3F80FC
1F81FC
1F81F8
0FC1F8
0FC3F0
0FE3F0
07E3F0
07E7E0
03F7E0
03F7C0
03FFC0
01FFC0
01FF80
00FF80
00FF00
00FF00
007F00
007E00
ENDCHAR
STARTCHAR 0077
ENCODING 119
SWIDTH 787 0
DWIDTH 35 0
BBX 34 23 0 0
BITMAP
FC03F00FC0
7E03F80FC0
7E03F80FC0
7E07F81F80
3E07F81F80
3F07FC1F80
3F07FC1F00
1F0FFC3F00
1F8FFC3F00
1F8FBE3E00
0F8FBE7E00
0F9F3E7E00
0FDF3E7E00
0FDF1F7C00
07DF1FFC00
07FE1FFC00
07FE0FF800
03FE0FF800
03FE0FF800
03FC0FF000
01FC07F000
01FC07F000
01FC07E000
ENDCHAR
STARTCHAR 0078
ENCODING 120
SWIDTH 562 0
DWIDTH 25 0
BBX 23 23 1 0
BITMAP
FE01FC
7F03F8
7F83F8
3F87F0
1FCFE0
0FEFE0
0FFFC0
07FF80
03FF00
03FF00
01FE00
01FE00
01FF00
03FF80
07FF80
07FFC0
0FEFE0
1FCFE0
3F87F0
3F87F8
7F03FC
FE01FC
FE01FE
ENDCHAR
STARTCHAR 0079
ENCODING 121
SWIDTH 562 0
DWIDTH 25 0
BBX 24 32 0 -9
BITMAP
FE007F
7E007E
7F007E
3F007E
3F00FC
3F80FC
1F80FC
1F81F8
0FC1F8
0FC1F0
0FC3F0
07E3F0
07E3E0
07E7E0
03F7E0
03F7C0
01FFC0
01FFC0
01FF80
00FF80
00FF00
00FF00
007F00
007E00
007E00
00FE00
01FC00
3FFC00
3FF800
3FF800
3FF000
3FC000
ENDCHAR
STARTCHAR 007A
ENCODING 122
SWIDTH 495 0
DWIDTH 22 0
BBX 20 23 1 0
BITMAP
7FFFF0
7FFFF0
7FFFF0
7FFFF0
7FFFE0
001FE0
003FC0
007F80
00FF00
01FE00
03FC00
03F800
07F000
0FF000
1FE000
3FC000
7F8000
FF0000
FFFFF0
FFFFF0
FFFFF0
FFFFF0
FFFFF0
ENDCHAR
STARTCHAR 007B
ENCODING 123
SWIDTH 382 0
DWIDTH 17 0
BBX 15 41 1 -9
BITMAP
007E
01FE
03FE
03FE
07FE
07E0
07E0
07E0
07E0
07E0
07E0
07E0
07E0
07E0
07C0
0FC0
0FC0
3FC0
FF80
FF00
FE00
FF00
FF80
3FC0
0FC0
0FC0
07C0
07E0
07E0
07E0
07E0
07E0
07E0
07E0
07E0
07F0
07FE
03FE
03FE
01FE
00FE
ENDCHAR
STARTCHAR 007C
ENCODING 124
SWIDTH 270 0
DWIDTH 12 0
BBX 5 41 4 -9
BITMAP
F8
F8
F8
F8
F8
F8
F8
F8
F8
F8
F8
F8
F8
F8
F8
F8
F8
F8
F8
F8
F8
F8
F8
F8
F8
F8
F8
F8
F8
F8
F8
F8
F8
F8
F8
F8
F8
F8
F8
F8
F8
ENDCHAR
STARTCHAR 007D
ENCODING 125
SWIDTH 382 0
DWIDTH 17 0
BBX 15 41 1 -9
BITMAP
FE00
FF00
FF80
FF80
FFC0
0FC0
0FC0
0FC0
0FC0
0FC0
0FC0
07C0
07C0
07C0
07C0
07E0
07E0
03F8
03FE
01FE
00FE
01FE
03FE
03F8
07E0
07E0
07C0
07C0
07C0
07C0
07C0
0FC0
0FC0
0FC0
0FC0
0FC0
FFC0
FF80
FF80
FF00
FC00
ENDCHAR
STARTCHAR 007E
ENCODING 126
SWIDTH 585 0
DWIDTH 26 0
BBX 23 9 1 11
BITMAP
0FC002
3FF802
7FFE0E
FFFFFE
FFFFFE
FFFFFE
E03FFE
C00FF8
8001E0
ENDCHAR
STARTCHAR 00A0
ENCODING 160
SWIDTH 270 0
DWIDTH 12 0
BBX 0 0 0 0
BITMAP
ENDCHAR
STARTCHAR 00A1
ENCODING 161
SWIDTH 337 0
DWIDTH 15 0
BBX 7 32 4 -9
BITMAP
FE
FE
FE
FE
FE
FE
00
00
38
38
38
7C
7C
7C
7C
7C
7C
7C
7C
7C
7C
7E
FE
FE
FE
FE
FE
FE
FE
FE
FE
FE
ENDCHAR
STARTCHAR 00A2
ENCODING 162
SWIDTH 562 0
DWIDTH 25 0
BBX 21 41 2 -9
BITMAP
000100
0001C0
0001C0
000180
000380
000380
000380
000700
003700
03FF00
0FFFC0
1FFFE0
3FFFF0
7FCFF0
7F1FF8
7E1DF8
FE1D80
FC3800
FC3800
FC3800
FC7000
FC7000
FC7000
FC6080
FEE1F8
7EE1F8
7FC3F8
7FEFF0
3FFFF0
1FFFE0
0FFFC0
03FF00
03A000
070000
070000
070000
060000
0E0000
0E0000
0E0000
040000
ENDCHAR
STARTCHAR 00A3
ENCODING 163
SWIDTH 562 0
DWIDTH 25 0
BBX 24 32 0 -1
BITMAP
00FFC0
01FFE0
07FFF0
0FFFF8
0FFFFC
1FC1FC
1F80FE
1F807E
1F8070
1F8000
1F8000
1F8000
1F8000
0FC000
FFFF80
FFFF80
FFFF80
FFFF80
FFFF80
07E000
07E000
07E000
0FC000
0FC000
1F8000
3F0000
7FFC0C
FFFFFC
7FFFFE
7FFFFE
3FFFFF
300FFE
ENDCHAR
STARTCHAR 00A4
ENCODING 164
SWIDTH 562 0
DWIDTH 25 0
BBX 22 22 1 4
BITMAP
100020
380070
7DFEF8
FFFFFC
7FFFFC
3FFFF8
1FFFF0
3F83F0
3F01F8
3E01F8
3E00F8
3E00F8
3E00F8
3F01F8
3F03F0
1FEFF0
3FFFF0
7FFFF8
FFFFFC
7FFFFC
3C7C78
180030
ENDCHAR
STARTCHAR 00A5
ENCODING 165
SWIDTH 562 0
DWIDTH 25 0
BBX 24 32 0 0
BITMAP
FE003F
7E007F
7F007E
3F00FE
3F80FC
1F81FC
1FC1F8
0FC3F8
0FE3F0
07E7F0
07F7E0
03F7E0
03FFC0
01FFC0
7FFFFE
7FFFFE
7FFFFE
7FFFFE
7FFFFE
007E00
007E00
7FFFFE
7FFFFE
7FFFFE
7FFFFE
7FFFFE
007E00
007E00
007E00
007E00
007E00
007E00
ENDCHAR
STARTCHAR 00A6
ENCODING 166
SWIDTH 270 0
DWIDTH 12 0
BBX 5 41 4 -9
BITMAP
F8
F8
F8
F8
F8
F8
F8
F8
F8
F8
F8
F8
F8
F8
F8
F8
F8
00
00
00
00
00
00
00
F8
F8
F8
F8
F8
F8
F8
F8
F8
F8
F8
F8
F8
F8
F8
F8
F8
ENDCHAR
STARTCHAR 00A7
ENCODING 167
SWIDTH 562 0
DWIDTH 25 0
BBX 22 41 1 -9
BITMAP
03FF00
07FF80
0FFFC0
1FFFE0
3FCFF0
3F03F0
3F03F0
3F8200
3F8000
1FE000
1FF000
0FFC00
1FFE00
3FFF80
7EFFC0
7C7FE0
7C1FF0
FC0FF8
FC07FC
FE01FC
7F00FC
7F807C
7FC07C
3FF07C
1FF8FC
0FFFF8
07FFF0
01FFE0
00FFC0
003FE0
001FF0
0007F0
0003F8
7F01F8
3F01F8
3F83F8
3FE7F0
1FFFF0
0FFFE0
07FFC0
01FF00
ENDCHAR
STARTCHAR 00A8
ENCODING 168
SWIDTH 337 0
DWIDTH 15 0
BBX 15 5 0 27
BITMAP
F87E
F87E
F87E
F87E
F87E
ENDCHAR
STARTCHAR 00A9
ENCODING 169
SWIDTH 742 0
DWIDTH 33 0
BBX 33 33 0 -1
BITMAP
001FFC0000
007FFF0000
01FFFFC000
03F007E000
07C001F000
0F0000F800
1E00003C00
3C03F01E00
380FFC1E00
781FFE0F00
703E3E0F00
70780F0700
F0780E0780
E070000380
E0F0000380
E0F0000380
E0F0000380
E0F0000380
E0F0000380
F0780E0780
F0780F0700
707C1E0700
783FFE0F00
381FFC0E00
3C07F01E00
1E00003C00
1F00007800
0F8001F800
07E003F000
03FF7FC000
00FFFF8000
003FFE0000
0007E00000
ENDCHAR
STARTCHAR 00AA
ENCODING 170
SWIDTH 360 0
DWIDTH 16 0
BBX 14 16 1 16
BITMAP
1FF0
3FF8
7FF8
787C
187C
007C
07FC
3FFC
7FFC
F87C
F07C
F07C
FDFC
FFFC
7FBC
1E3C
ENDCHAR
STARTCHAR 00AB
ENCODING 171
SWIDTH 562 0
DWIDTH 25 0
BBX 20 19 2 2
BITMAP
03E1F0
03E3E0
07C7E0
0FC7C0
0F8F80
1F1F80
3F1F00
7E3F00
7E7E00
FC7E00
7E7E00
7E3F00
3F1F00
1F1F80
0F8F80
0F87C0
07C7E0
03E3E0
03E1F0
ENDCHAR
STARTCHAR 00AC
ENCODING 172
SWIDTH 585 0
DWIDTH 26 0
BBX 22 15 2 8
BITMAP
FFFFFC
FFFFFC
FFFFFC
FFFFFC
FFFFFC
0000FC
0000FC
0000FC
0000FC
0000FC
0000FC
0000FC
0000FC
0000FC
0000FC
ENDCHAR
STARTCHAR 00AD
ENCODING 173
SWIDTH 337 0
DWIDTH 15 0
BBX 12 7 2 8
BITMAP
FFF0
FFF0
FFF0
FFF0
FFF0
FFF0
FFF0
ENDCHAR
STARTCHAR 00AE
ENCODING 174
SWIDTH 742 0
DWIDTH 33 0
BBX 33 33 0 -1
BITMAP
001FFC0000
007FFF0000
01FFFFC000
03F007E000
07C001F000
0F00007800
1E00003C00
3C7FC01E00
387FF81E00
787FFC0F00
70703E0700
70701E0700
F0701E0780
E0701E0380
E0703E0380
E07FFC0380
E07FF80380
E07FE00380
E070F00380
F070780780
F0707C0700
70703C0700
78701E0F00
38701E0E00
3C700F1E00
1E00003C00
1F00007800
0F8000F800
07E003F000
03FF7FC000
00FFFF8000
003FFE0000
0007E00000
ENDCHAR
STARTCHAR 00AF
ENCODING 175
SWIDTH 562 0
DWIDTH 25 0
BBX 25 4 0 34
BITMAP
FFFFFF80
FFFFFF80
FFFFFF80
FFFFFF80
ENDCHAR
STARTCHAR 00B0
ENCODING 176
SWIDTH 405 0
DWIDTH 18 0
BBX 14 13 2 19
BITMAP
0FC0
3FF0
7FF0
7CF8
F078
F03C
E03C
F03C
F038
F8F8
7FF8
3FF0
1FC0
ENDCHAR
STARTCHAR 00B1
ENCODING 177
SWIDTH 540 0
DWIDTH 24 0
BBX 22 30 1 0
BITMAP
00FC00
00FC00
00FC00
00FC00
00FC00
00FC00
00FC00
00FC00
FFFFFC
FFFFFC
FFFFFC
FFFFFC
FFFFFC
FFFFFC
00FC00
00FC00
00FC00
00FC00
00FC00
00FC00
00FC00
00FC00
000000
000000
FFFFFC
FFFFFC
FFFFFC
FFFFFC
FFFFFC
FFFFFC
ENDCHAR
STARTCHAR 00B2
ENCODING 178
SWIDTH 337 0
DWIDTH 15 0
BBX 13 16 1 16
BITMAP
1FC0
7FE0
7FF0
F8F8
F078
00F8
00F0
01F0
03E0
0FC0
1F80
3E00
7C00
FFF8
FFF8
FFF8
ENDCHAR
STARTCHAR 00B3
ENCODING 179
SWIDTH 337 0
DWIDTH 15 0
BBX 13 16 1 16
BITMAP
1FC0
3FE0
7FF0
F8F0
F0F0
01F0
07E0
07C0
07F0
00F8
0078
F078
F0F8
FFF0
7FE0
3FC0
ENDCHAR
STARTCHAR 00B4
ENCODING 180
SWIDTH 337 0
DWIDTH 15 0
BBX 9 6 4 26
BITMAP
1F80
3F00
3E00
7C00
7800
F800
ENDCHAR
STARTCHAR 00B5
ENCODING 181
SWIDTH 585 0
DWIDTH 26 0
BBX 21 32 2 -9
BITMAP
FC01F8
FC01F8
FC01F8
FC01F8
FC01F8
FC01F8
FC01F8
FC01F8
FC01F8
FC01F8
FC01F8
FE01F8
FE01F8
FE01F8
FE01F8
FE01F8
FE03F8
FF03F8
FFCFF8
FFFFF8
FDFFF8
FDFEF8
FCFCF8
FC2000
FC0000
FC0000
FC0000
FC0000
FC0000
FC0000
FC0000
FC0000
ENDCHAR
STARTCHAR 00B6
ENCODING 182
SWIDTH 562 0
DWIDTH 25 0
BBX 24 41 0 -9
BITMAP
01FFFF
0FFFFF
1FFFFF
3FFFFF
7FFFFF
7FFFFF
FFFC7C
FFFC7C
FFFC7C
FFFC7C
FFFC7C
FFFC7C
FFFC7C
7FFC7C
7FFC7C
3FFC7C
1FFC7C
03FC7C
00FC7C
00FC7C
00FC7C
00FC7C
00FC7C
00FC7C
00FC7C
00FC7C
00FC7C
00FC7C
00FC7C
00FC7C
00FC7C
00FC7C
00FC7C
00FC7C
00FC7C
00FC7C
00FC7C
00FC7C
00FC7C
00FC7C
00FC7C
ENDCHAR
STARTCHAR 00B7
ENCODING 183
SWIDTH 270 0
DWIDTH 12 0
BBX 6 7 3 12
BITMAP
FC
FC
FC
FC
FC
FC
FC
ENDCHAR
STARTCHAR 00B8
ENCODING 184
SWIDTH 337 0
DWIDTH 15 0
BBX 12 9 1 -9
BITMAP
0F00
3FC0
3FE0
01F0
01F0
01E0
FFE0
FFC0
FF00
ENDCHAR
STARTCHAR 00B9
ENCODING 185
SWIDTH 337 0
DWIDTH 15 0
BBX 9 16 2 16
BITMAP
0780
0F80
1F80
7F80
FF80
F780
C780
0780
0780
0780
0780
0780
0780
0780
0780
0780
ENDCHAR
STARTCHAR 00BA
ENCODING 186
SWIDTH 360 0
DWIDTH 16 0
BBX 15 16 1 16
BITMAP
1FE0
3FF0
7FF8
FFFC
F87C
F03C
F03E
F03E
F03E
F03E
F83C
F87C
7FFC
7FF8
3FF0
0FC0
ENDCHAR
STARTCHAR 00BB
ENCODING 187
SWIDTH 562 0
DWIDTH 25 0
BBX 19 19 3 2
BITMAP
F8F800
F87C00
7C7E00
7E3E00
3E1F00
1F1F80
1F8F80
0F8FC0
0FC7E0
07E7E0
0FC7E0
0FCFC0
1F8F80
1F1F80
3F1F00
3E3E00
7C3E00
F87C00
F8F800
ENDCHAR
STARTCHAR 00BC
ENCODING 188
SWIDTH 832 0
DWIDTH 37 0
BBX 35 33 2 -1
BITMAP
078000E000
0F8001E000
1F8001C000
7F8003C000
FF80038000
F780070000
C7800F0000
07800E0000
07801E0000
07801C0000
07803C0000
0780380000
0780700000
0780F00000
0780E00000
0781E00000
0001C00700
0003C00F00
0003801F00
0007803F00
0007003F00
000E007F00
001E00FF00
001C01EF00
003C03CF00
0038038F00
0078078F00
007007FFE0
00E007FFE0
01E007FFE0
01C0000F00
03C0000F00
0380000F00
ENDCHAR
STARTCHAR 00BD
ENCODING 189
SWIDTH 832 0
DWIDTH 37 0
BBX 34 33 2 -1
BITMAP
078000E000
0F8001E000
1F8001C000
7F8003C000
FF80038000
F780070000
C7800F0000
07800E0000
07801E0000
07801C0000
07803C0000
0780380000
0780700000
0780F00000
0780E00000
0781E00000
0001C00000
0003C0FF00
000383FF80
000783FFC0
000707C3C0
000E0783C0
001E0003C0
001C000780
003C000F80
0038003F00
0078007E00
007000FC00
00E001F000
01E003E000
01C007FFC0
03C007FFC0
038007FFC0
ENDCHAR
STARTCHAR 00BE
ENCODING 190
SWIDTH 832 0
DWIDTH 37 0
BBX 36 33 1 -1
BITMAP
1FC0007800
3FE0007000
7FF000F000
F8F000E000
F0F001E000
01F001C000
07E0038000
07C0078000
07F0070000
00F80F0000
00780E0000
F0781E0000
F0F81C0000
FFF0380000
7FE0780000
3FC0700000
0000F00380
0000E00780
0001E00F80
0001C01F80
0003801F80
0007803F80
0007007F80
000F00F780
000E01E780
001E01C780
001C03C780
003C03FFF0
003803FFF0
007003FFF0
00F0000780
00E0000780
01E0000780
ENDCHAR
STARTCHAR 00BF
ENCODING 191
SWIDTH 607 0
DWIDTH 27 0
BBX 23 32 2 -9
BITMAP
00FE00
00FE00
00FE00
00FE00
00FE00
00FE00
000000
000000
007E00
007E00
007E00
007C00
00FC00
01FC00
03F800
07F800
0FF000
1FE000
3F8000
7F0000
7E0000
FE0000
FC0078
FC007E
FC007E
7E00FC
7F01FC
3FFFF8
3FFFF8
1FFFF0
07FFC0
01FF00
ENDCHAR
STARTCHAR 00C0
ENCODING 192
SWIDTH 720 0
DWIDTH 32 0
BBX 32 40 0 0
BITMAP
003F8000
001F8000
000FC000
0007C000
0003C000
0001E000
00000000
00000000
000FE000
000FF000
001FF000
001FF800
001FF800
003FF800
003FFC00
003FFC00
007EFE00
007EFE00
00FE7E00
00FC7F00
00FC7F00
01FC3F80
01F83F80
03F81F80
03F01FC0
03F01FC0
07F00FE0
07FFFFE0
0FFFFFE0
0FFFFFF0
0FFFFFF0
1FFFFFF8
1FFFFFF8
1F8003F8
3F8001FC
3F0001FC
7F0000FE
7F0000FE
7E0000FE
FE00007F
ENDCHAR
STARTCHAR 00C1
ENCODING 193
SWIDTH 720 0
DWIDTH 32 0
BBX 32 40 0 0
BITMAP
0001F800
0003F000
0003E000
0007E000
0007C000
000F8000
00000000
00000000
000FE000
000FF000
001FF000
001FF800
001FF800
003FF800
003FFC00
003FFC00
007EFE00
007EFE00
00FE7E00
00FC7F00
00FC7F00
01FC3F80
01F83F80
03F81F80
03F01FC0
03F01FC0
07F00FE0
07FFFFE0
0FFFFFE0
0FFFFFF0
0FFFFFF0
1FFFFFF8
1FFFFFF8
1F8003F8
3F8001FC
3F0001FC
7F0000FE
7F0000FE
7E0000FE
FE00007F
ENDCHAR
STARTCHAR 00C2
ENCODING 194
SWIDTH 720 0
DWIDTH 32 0
BBX 32 40 0 0
BITMAP
0007E000
000FF000
001FF000
003EF800
003E7C00
007C7C00
00000200
00000000
000FE000
000FF000
001FF000
001FF800
001FF800
003FF800
003FFC00
003FFC00
007EFE00
007EFE00
00FE7E00
00FC7F00
00FC7F00
01FC3F80
01F83F80
03F81F80
03F01FC0
03F01FC0
07F00FE0
07FFFFE0
0FFFFFE0
0FFFFFF0
0FFFFFF0
1FFFFFF8
1FFFFFF8
1F8003F8
3F8001FC
3F0001FC
7F0000FE
7F0000FE
7E0000FE
FE00007F
ENDCHAR
STARTCHAR 00C3
ENCODING 195
SWIDTH 720 0
DWIDTH 32 0
BBX 32 39 0 0
BITMAP
003C0E00
007F9E00
00FFFE00
00FFFC00
00E0F800
00000000
00000000
000FE000
000FF000
001FF000
001FF800
001FF800
003FF800
003FFC00
003FFC00
007EFE00
007EFE00
00FE7E00
00FC7F00
00FC7F00
01FC3F80
01F83F80
03F81F80
03F01FC0
03F01FC0
07F00FE0
07FFFFE0
0FFFFFE0
0FFFFFF0
0FFFFFF0
1FFFFFF8
1FFFFFF8
1F8003F8
3F8001FC
3F0001FC
7F0000FE
7F0000FE
7E0000FE
FE00007F
ENDCHAR
STARTCHAR 00C4
ENCODING 196
SWIDTH 720 0
DWIDTH 32 0
BBX 32 39 0 0
BITMAP
00FC3E00
00FC3E00
00FC3E00
00FC3E00
00FC3E00
00000000
00000000
000FE000
000FF000
001FF000
001FF800
001FF800
003FF800
003FFC00
003FFC00
007EFE00
007EFE00
00FE7E00
00FC7F00
00FC7F00
01FC3F80
01F83F80
03F81F80
03F01FC0
03F01FC0
07F00FE0
07FFFFE0
0FFFFFE0
0FFFFFF0
0FFFFFF0
1FFFFFF8
1FFFFFF8
1F8003F8
3F8001FC
3F0001FC
7F0000FE
7F0000FE
7E0000FE
FE00007F
ENDCHAR
STARTCHAR 00C5
ENCODING 197
SWIDTH 720 0
DWIDTH 32 0
BBX 32 38 0 0
BITMAP
0003C000
000FE000
000E7000
000C3000
001C3000
000C7000
000FE000
000FF000
001FF000
001FF800
001FF800
003FF800
003FFC00
003FFC00
007EFE00
007EFE00
00FE7E00
00FC7F00
00FC7F00
01FC3F80
01F83F80
03F81F80
03F01FC0
03F01FC0
07F00FE0
07FFFFE0
0FFFFFE0
0FFFFFF0
0FFFFFF0
1FFFFFF8
1FFFFFF8
1F8003F8
3F8001FC
3F0001FC
7F0000FE
7F0000FE
7E0000FE
FE00007F
ENDCHAR
STARTCHAR 00C6
ENCODING 198
SWIDTH 990 0
DWIDTH 44 0
BBX 44 32 -2 0
BITMAP
0001FFFFFFF0
0003FFFFFFF0
0003FFFFFFF0
0007FFFFFFF0
0007FFFFFFF0
000FE3FFFFF0
000FC3F00000
000FC3F00000
001FC3F00000
001F83F00000
003F83F00000
003F03F00000
007F03F00000
007E03FFFFC0
00FE03FFFFC0
00FC03FFFFC0
01FC03FFFFC0
01FC03FFFFC0
03F803F00000
03FFFFF00000
07FFFFF00000
07FFFFF00000
07FFFFF00000
0FFFFFF00000
0FFFFFF00000
1FC003F00000
1FC003F00000
3F8003FFFFF0
3F8003FFFFF0
7F0003FFFFF0
7F0003FFFFF0
FE0003FFFFF0
ENDCHAR
STARTCHAR 00C7
ENCODING 199
SWIDTH 720 0
DWIDTH 32 0
BBX 28 41 2 -9
BITMAP
003FF000
01FFFC00
03FFFF00
07FFFF80
0FFFFFC0
1FF07FC0
3FC01FE0
3F800FE0
7F0007F0
7F000780
7E000000
7E000000
FE000000
FE000000
FE000000
FE000000
FE000000
FE000000
FE000000
FE000000
FE000000
7E000780
7F0007F0
7F000FE0
3F800FE0
3FC01FE0
1FF07FC0
0FFFFF80
0FFFFF80
03FFFF00
01FFFC00
007FF000
000F0000
001FE000
003FE000
0001F000
0000F000
0001F000
00FFE000
00FFC000
00FF0000
ENDCHAR
STARTCHAR 00C8
ENCODING 200
SWIDTH 675 0
DWIDTH 30 0
BBX 24 40 3 0
BITMAP
03F800
01F800
00FC00
007C00
003E00
001E00
000000
000000
FFFFFF
FFFFFF
FFFFFF
FFFFFF
FFFFFF
FFFFFF
FE0000
FE0000
FE0000
FE0000
FE0000
FE0000
FE0000
FFFFFE
FFFFFE
FFFFFE
FFFFFE
FFFFFE
FE0000
FE0000
FE0000
FE0000
FE0000
FE0000
FE0000
FE0000
FE0000
FFFFFF
FFFFFF
FFFFFF
FFFFFF
FFFFFF
ENDCHAR
STARTCHAR 00C9
ENCODING 201
SWIDTH 675 0
DWIDTH 30 0
BBX 24 40 3 0
BITMAP
001FC0
001F80
003F00
003E00
007C00
007800
000000
000000
FFFFFF
FFFFFF
FFFFFF
FFFFFF
FFFFFF
FFFFFF
FE0000
FE0000
FE0000
FE0000
FE0000
FE0000
FE0000
FFFFFE
FFFFFE
FFFFFE
FFFFFE
FFFFFE
FE0000
FE0000
FE0000
FE0000
FE0000
FE0000
FE0000
FE0000
FE0000
FFFFFF
FFFFFF
FFFFFF
FFFFFF
FFFFFF
ENDCHAR
STARTCHAR 00CA
ENCODING 202
SWIDTH 675 0
DWIDTH 30 0
BBX 24 40 3 0
BITMAP
00FE00
00FF00
01FF00
03EF80
03E7C0
07C7C0
000020
000000
FFFFFF
FFFFFF
FFFFFF
FFFFFF
FFFFFF
FFFFFF
FE0000
FE0000
FE0000
FE0000
FE0000
FE0000
FE0000
FFFFFE
FFFFFE
FFFFFE
FFFFFE
FFFFFE
FE0000
FE0000
FE0000
FE0000
FE0000
FE0000
FE0000
FE0000
FE0000
FFFFFF
FFFFFF
FFFFFF
FFFFFF
FFFFFF
ENDCHAR
STARTCHAR 00CB
ENCODING 203
SWIDTH 675 0
DWIDTH 30 0
BBX 24 39 3 0
BITMAP
07C3E0
07C3E0
07C3E0
07C3E0
07C3E0
000000
000000
FFFFFF
FFFFFF
FFFFFF
FFFFFF
FFFFFF
FFFFFF
FE0000
FE0000
FE0000
FE0000
FE0000
FE0000
FE0000
FFFFFE
FFFFFE
FFFFFE
FFFFFE
FFFFFE
FE0000
FE0000
FE0000
FE0000
FE0000
FE0000
FE0000
FE0000
FE0000
FFFFFF
FFFFFF
FFFFFF
FFFFFF
FFFFFF
ENDCHAR
STARTCHAR 00CC
ENCODING 204
SWIDTH 270 0
DWIDTH 12 0
BBX 9 40 0 0
BITMAP
FE00
7E00
3F00
1F00
0F80
0780
0000
0000
1F80
1F80
1F80
1F80
1F80
1F80
1F80
1F80
1F80
1F80
1F80
1F80
1F80
1F80
1F80
1F80
1F80
1F80
1F80
1F80
1F80
1F80
1F80
1F80
1F80
1F80
1F80
1F80
1F80
1F80
1F80
1F80
ENDCHAR
STARTCHAR 00CD
ENCODING 205
SWIDTH 270 0
DWIDTH 12 0
BBX 9 40 3 0
BITMAP
3F80
3F00
7E00
7C00
F800
F000
0000
0000
FC00
FC00
FC00
FC00
FC00
FC00
FC00
FC00
FC00
FC00
FC00
FC00
FC00
FC00
FC00
FC00
FC00
FC00
FC00
FC00
FC00
FC00
FC00
FC00
FC00
FC00
FC00
FC00
FC00
FC00
FC00
FC00
ENDCHAR
STARTCHAR 00CE
ENCODING 206
SWIDTH 270 0
DWIDTH 12 0
BBX 13 40 0 0
BITMAP
1FC0
1FC0
3FE0
7DF0
F9F0
F8F8
0000
0000
1F80
1F80
1F80
1F80
1F80
1F80
1F80
1F80
1F80
1F80
1F80
1F80
1F80
1F80
1F80
1F80
1F80
1F80
1F80
1F80
1F80
1F80
1F80
1F80
1F80
1F80
1F80
1F80
1F80
1F80
1F80
1F80
ENDCHAR
STARTCHAR 00CF
ENCODING 207
SWIDTH 270 0
DWIDTH 12 0
BBX 15 39 -1 0
BITMAP
F87E
F87E
F87E
F87E
F87E
0000
0000
0FC0
0FC0
0FC0
0FC0
0FC0
0FC0
0FC0
0FC0
0FC0
0FC0
0FC0
0FC0
0FC0
0FC0
0FC0
0FC0
0FC0
0FC0
0FC0
0FC0
0FC0
0FC0
0FC0
0FC0
0FC0
0FC0
0FC0
0FC0
0FC0
0FC0
0FC0
0FC0
ENDCHAR
STARTCHAR 00D0
ENCODING 208
SWIDTH 720 0
DWIDTH 32 0
BBX 30 32 0 0
BITMAP
1FFFE000
1FFFFE00
1FFFFF00
1FFFFFC0
1FFFFFE0
1FFFFFE0
1FC00FF0
1FC007F0
1FC003F8
1FC003F8
1FC001F8
1FC001FC
1FC001FC
1FC001FC
FFFF01FC
FFFF01FC
FFFF01FC
FFFF01FC
1FC001FC
1FC001FC
1FC001FC
1FC001F8
1FC003F8
1FC003F8
1FC007F0
1FC00FF0
1FC07FE0
1FFFFFE0
1FFFFFC0
1FFFFF80
1FFFFE00
1FFFF000
ENDCHAR
STARTCHAR 00D1
ENCODING 209
SWIDTH 720 0
DWIDTH 32 0
BBX 26 39 3 0
BITMAP
01F03000
03FC7000
03FFF000
03FFF000
0707E000
00000000
00000000
FE000FC0
FE000FC0
FF000FC0
FF800FC0
FF800FC0
FFC00FC0
FFC00FC0
FFE00FC0
FFF00FC0
FFF00FC0
FFF80FC0
FFF80FC0
FDFC0FC0
FCFE0FC0
FCFE0FC0
FC7F0FC0
FC7F8FC0
FC3F8FC0
FC1FCFC0
FC1FCFC0
FC0FEFC0
FC07FFC0
FC07FFC0
FC03FFC0
FC03FFC0
FC01FFC0
FC00FFC0
FC00FFC0
FC007FC0
FC003FC0
FC003FC0
FC001FC0
ENDCHAR
STARTCHAR 00D2
ENCODING 210
SWIDTH 787 0
DWIDTH 35 0
BBX 31 41 2 -1
BITMAP
007F0000
003F0000
001F8000
000F8000
0007C000
0003C000
00000000
00000000
003FF800
01FFFE00
03FFFF80
07FFFFC0
0FFFFFE0
1FF83FF0
3FE00FF8
3F8007F8
7F0003FC
7F0001FC
7E0001FC
FE0000FC
FE0000FE
FE0000FE
FE0000FE
FE0000FE
FE0000FE
FE0000FE
FE0000FE
FE0000FE
FE0000FC
7E0001FC
7F0001FC
7F0003FC
3F8007F8
3FC00FF8
1FF01FF0
1FFFFFE0
0FFFFFC0
03FFFF80
01FFFF00
007FFC00
00010000
ENDCHAR
STARTCHAR 00D3
ENCODING 211
SWIDTH 787 0
DWIDTH 35 0
BBX 31 41 2 -1
BITMAP
0003F800
0003F000
0007E000
0007C000
000F8000
000F0000
00000000
00000000
003FF800
01FFFE00
03FFFF80
07FFFFC0
0FFFFFE0
1FF83FF0
3FE00FF8
3F8007F8
7F0003FC
7F0001FC
7E0001FC
FE0000FC
FE0000FE
FE0000FE
FE0000FE
FE0000FE
FE0000FE
FE0000FE
FE0000FE
FE0000FE
FE0000FC
7E0001FC
7F0001FC
7F0003FC
3F8007F8
3FC00FF8
1FF01FF0
1FFFFFE0
0FFFFFC0
03FFFF80
01FFFF00
007FFC00
00010000
ENDCHAR
STARTCHAR 00D4
ENCODING 212
SWIDTH 787 0
DWIDTH 35 0
BBX 31 41 2 -1
BITMAP
000FC000
001FE000
001FF000
003FF000
007CF800
00F87C00
00000000
00000000
003FF800
01FFFE00
03FFFF80
07FFFFC0
0FFFFFE0
1FF83FF0
3FE00FF8
3F8007F8
7F0003FC
7F0001FC
7E0001FC
FE0000FC
FE0000FE
FE0000FE
FE0000FE
FE0000FE
FE0000FE
FE0000FE
FE0000FE
FE0000FE
FE0000FC
7E0001FC
7F0001FC
7F0003FC
3F8007F8
3FC00FF8
1FF01FF0
1FFFFFE0
0FFFFFC0
03FFFF80
01FFFF00
007FFC00
00010000
ENDCHAR
STARTCHAR 00D5
ENCODING 213
SWIDTH 787 0
DWIDTH 35 0
BBX 31 40 2 -1
BITMAP
007C1C00
00FF1C00
00FFFC00
01FFFC00
01C1F800
00000000
00000000
003FF800
01FFFE00
03FFFF80
07FFFFC0
0FFFFFE0
1FF83FF0
3FE00FF8
3F8007F8
7F0003FC
7F0001FC
7E0001FC
FE0000FC
FE0000FE
FE0000FE
FE0000FE
FE0000FE
FE0000FE
FE0000FE
FE0000FE
FE0000FE
FE0000FC
7E0001FC
7F0001FC
7F0003FC
3F8007F8
3FC00FF8
1FF01FF0
1FFFFFE0
0FFFFFC0
03FFFF80
01FFFF00
007FFC00
00010000
ENDCHAR
STARTCHAR 00D6
ENCODING 214
SWIDTH 787 0
DWIDTH 35 0
BBX 31 40 2 -1
BITMAP
00F87C00
00F87C00
00F87C00
00F87C00
00F87C00
00000000
00000000
003FF800
01FFFE00
03FFFF80
07FFFFC0
0FFFFFE0
1FF83FF0
3FE00FF8
3F8007F8
7F0003FC
7F0001FC
7E0001FC
FE0000FC
FE0000FE
FE0000FE
FE0000FE
FE0000FE
FE0000FE
FE0000FE
FE0000FE
FE0000FE
FE0000FC
7E0001FC
7F0001FC
7F0003FC
3F8007F8
3FC00FF8
1FF01FF0
1FFFFFE0
0FFFFFC0
03FFFF80
01FFFF00
007FFC00
00010000
ENDCHAR
STARTCHAR 00D7
ENCODING 215
SWIDTH 585 0
DWIDTH 26 0
BBX 20 21 3 5
BITMAP
100080
3801C0
7C03E0
FE07F0
FF0FF0
7F9FE0
3FFFC0
1FFF80
0FFF00
07FE00
03FC00
07FE00
0FFF00
1FFF80
3FFFC0
7F9FE0
FF0FF0
FE07F0
7C03E0
3801C0
100080
ENDCHAR
STARTCHAR 00D8
ENCODING 216
SWIDTH 787 0
DWIDTH 35 0
BBX 31 35 2 -2
BITMAP
00000008
003FF81C
01FFFE3E
03FFFFFC
07FFFFF8
0FFFFFF8
1FF83FF0
3FC00FF0
3F800FF8
7F000FF8
7F001FFC
7E003FFC
FE007CFC
FE00F8FC
FE01F0FE
FE03F0FE
FE07E0FE
FE0FC0FE
FE0F80FE
FE1F00FE
FE3E00FE
FE7C00FC
7EF801FC
7FF001FC
7FF003FC
3FE003F8
3FC007F8
1FF01FF0
1FFFFFE0
3FFFFFC0
7FFFFF80
F9FFFF00
F07FFC00
70010000
20000000
ENDCHAR
STARTCHAR 00D9
ENCODING 217
SWIDTH 720 0
DWIDTH 32 0
BBX 26 41 3 -1
BITMAP
01FC0000
00FC0000
007C0000
003E0000
001E0000
000F0000
00000000
00000000
FE001FC0
FE001FC0
FE001FC0
FE001FC0
FE001FC0
FE001FC0
FE001FC0
FE001FC0
FE001FC0
FE001FC0
FE001FC0
FE001FC0
FE001FC0
FE001FC0
FE001FC0
FE001FC0
FE001FC0
FE001FC0
FE001FC0
FE001FC0
FE001FC0
FE001F80
FE001F80
7E001F80
7F003F80
7F003F80
7FC0FF80
3FFFFF00
3FFFFE00
1FFFFE00
07FFF800
03FFF000
000C0000
ENDCHAR
STARTCHAR 00DA
ENCODING 218
SWIDTH 720 0
DWIDTH 32 0
BBX 26 41 3 -1
BITMAP
000FC000
001F8000
001F0000
003E0000
003E0000
007C0000
00000000
00000000
FE001FC0
FE001FC0
FE001FC0
FE001FC0
FE001FC0
FE001FC0
FE001FC0
FE001FC0
FE001FC0
FE001FC0
FE001FC0
FE001FC0
FE001FC0
FE001FC0
FE001FC0
FE001FC0
FE001FC0
FE001FC0
FE001FC0
FE001FC0
FE001FC0
FE001F80
FE001F80
7E001F80
7F003F80
7F003F80
7FC0FF80
3FFFFF00
3FFFFE00
1FFFFE00
07FFF800
03FFF000
000C0000
ENDCHAR
STARTCHAR 00DB
ENCODING 219
SWIDTH 720 0
DWIDTH 32 0
BBX 26 41 3 -1
BITMAP
003F0000
007F8000
00FFC000
00FFC000
01F3E000
03E1F000
00000000
00000000
FE001FC0
FE001FC0
FE001FC0
FE001FC0
FE001FC0
FE001FC0
FE001FC0
FE001FC0
FE001FC0
FE001FC0
FE001FC0
FE001FC0
FE001FC0
FE001FC0
FE001FC0
FE001FC0
FE001FC0
FE001FC0
FE001FC0
FE001FC0
FE001FC0
FE001F80
FE001F80
7E001F80
7F003F80
7F003F80
7FC0FF80
3FFFFF00
3FFFFE00
1FFFFE00
07FFF800
03FFF000
000C0000
ENDCHAR
STARTCHAR 00DC
ENCODING 220
SWIDTH 720 0
DWIDTH 32 0
BBX 26 40 3 -1
BITMAP
03E1F000
03E1F000
03E1F000
03E1F000
03E1F000
00000000
00000000
FE001FC0
FE001FC0
FE001FC0
FE001FC0
FE001FC0
FE001FC0
FE001FC0
FE001FC0
FE001FC0
FE001FC0
FE001FC0
FE001FC0
FE001FC0
FE001FC0
FE001FC0
FE001FC0
FE001FC0
FE001FC0
FE001FC0
FE001FC0
FE001FC0
FE001F80
FE001F80
7E001F80
7F003F80
7F003F80
7FC0FF80
3FFFFF00
3FFFFE00
1FFFFE00
07FFF800
03FFF000
000C0000
ENDCHAR
STARTCHAR 00DD
ENCODING 221
SWIDTH 675 0
DWIDTH 30 0
BBX 29 40 0 0
BITMAP
0007F000
0007E000
0007C000
000F8000
000F0000
001E0000
00000000
00000000
FF0003F8
7F0003F8
7F8007F0
3F800FF0
1FC00FE0
1FE01FC0
0FE01FC0
07F03F80
07F07F00
03F87F00
03FCFE00
01FCFE00
00FFFC00
00FFF800
007FF800
003FF000
003FE000
001FE000
001FC000
000FC000
000FC000
000FC000
000FC000
000FC000
000FC000
000FC000
000FC000
000FC000
000FC000
000FC000
000FC000
000FC000
ENDCHAR
STARTCHAR 00DE
ENCODING 222
SWIDTH 675 0
DWIDTH 30 0
BBX 25 32 3 0
BITMAP
FE000000
FE000000
FE000000
FE000000
FE000000
FE000000
FFFE0000
FFFFF000
FFFFFC00
FFFFFE00
FFFFFE00
FFFFFF00
FE00FF00
FE007F00
FE003F80
FE003F80
FE003F80
FE003F80
FE007F00
FE007F00
FE0FFF00
FFFFFE00
FFFFFC00
FFFFFC00
FFFFF000
FFFFC000
FE000000
FE000000
FE000000
FE000000
FE000000
FE000000
ENDCHAR
STARTCHAR 00DF
ENCODING 223
SWIDTH 607 0
DWIDTH 27 0
BBX 23 32 3 -1
BITMAP
07FC00
1FFF00
3FFF80
7FFFC0
7FBFC0
7E0FC0
FC0FC0
FC0FC0
FC0FC0
FC1FC0
FC1F80
FC3F00
FC3F00
FC3F00
FC7F00
FC7F00
FC3F80
FC3FC0
FC1FE0
FC0FF0
FC07F8
FC03FC
FC01FC
FC00FC
FC00FE
FC00FE
FC10FC
FC7DFC
FCFFFC
FC7FF8
FC3FF0
FC1FE0
ENDCHAR
STARTCHAR 00E0
ENCODING 224
SWIDTH 562 0
DWIDTH 25 0
BBX 21 33 2 -1
BITMAP
0FE000
07E000
03F000
01F000
00F800
007800
000000
000000
002000
0FFF00
1FFFC0
3FFFE0
7FFFE0
7F0FF0
FC03F0
1C03F0
0003F0
000FF0
00FFF0
0FFFF0
3FFFF0
7FF3F0
FF03F0
FC03F0
FC03F0
FC03F0
FC07F0
FE0FF0
FFFFF0
7FFFF0
3FF9F8
1FF1F8
010000
ENDCHAR
STARTCHAR 00E1
ENCODING 225
SWIDTH 562 0
DWIDTH 25 0
BBX 21 33 2 -1
BITMAP
003F80
007E00
007E00
007C00
00F800
00F000
000000
000000
002000
0FFF00
1FFFC0
3FFFE0
7FFFE0
7F0FF0
FC03F0
1C03F0
0003F0
000FF0
00FFF0
0FFFF0
3FFFF0
7FF3F0
FF03F0
FC03F0
FC03F0
FC03F0
FC07F0
FE0FF0
FFFFF0
7FFFF0
3FF9F8
1FF1F8
010000
ENDCHAR
STARTCHAR 00E2
ENCODING 226
SWIDTH 562 0
DWIDTH 25 0
BBX 21 33 2 -1
BITMAP
01FC00
03FE00
03FE00
07DF00
0F8F80
1F0F80
000000
000000
002000
0FFF00
1FFFC0
3FFFE0
7FFFE0
7F0FF0
FC03F0
1C03F0
0003F0
000FF0
00FFF0
0FFFF0
3FFFF0
7FF3F0
FF03F0
FC03F0
FC03F0
FC03F0
FC07F0
FE0FF0
FFFFF0
7FFFF0
3FF9F8
1FF1F8
010000
ENDCHAR
STARTCHAR 00E3
ENCODING 227
SWIDTH 562 0
DWIDTH 25 0
BBX 21 33 2 -1
BITMAP
0301C0
0FE1C0
1FFFC0
1FFF80
1C7F80
1C0E00
000000
000000
002000
0FFF00
1FFFC0
3FFFE0
7FFFE0
7F0FF0
FC03F0
1C03F0
0003F0
000FF0
00FFF0
0FFFF0
3FFFF0
7FF3F0
FF03F0
FC03F0
FC03F0
FC03F0
FC07F0
FE0FF0
FFFFF0
7FFFF0
3FF9F8
1FF1F8
010000
ENDCHAR
STARTCHAR 00E4
ENCODING 228
SWIDTH 562 0
DWIDTH 25 0
BBX 21 33 2 -1
BITMAP
1F0FC0
1F0FC0
1F0FC0
1F0FC0
1F0FC0
000000
000000
000000
002000
0FFF00
1FFFC0
3FFFE0
7FFFE0
7F0FF0
FC03F0
1C03F0
0003F0
000FF0
00FFF0
0FFFF0
3FFFF0
7FF3F0
FF03F0
FC03F0
FC03F0
FC03F0
FC07F0
FE0FF0
FFFFF0
7FFFF0
3FF9F8
1FF1F8
010000
ENDCHAR
STARTCHAR 00E5
ENCODING 229
SWIDTH 562 0
DWIDTH 25 0
BBX 21 34 2 -1
BITMAP
00F800
01FC00
038C00
038E00
038E00
039C00
01FC00
00F800
000000
002000
0FFF00
1FFFC0
3FFFE0
7FFFE0
7F0FF0
FC03F0
1C03F0
0003F0
000FF0
00FFF0
0FFFF0
3FFFF0
7FF3F0
FF03F0
FC03F0
FC03F0
FC03F0
FC07F0
FE0FF0
FFFFF0
7FFFF0
3FF9F8
1FF1F8
010000
ENDCHAR
STARTCHAR 00E6
ENCODING 230
SWIDTH 900 0
DWIDTH 40 0
BBX 35 25 2 -1
BITMAP
0030008000
07FF8FFC00
1FFFFFFE00
3FFFFFFF00
3FFFFFFF80
7F0FFE1FC0
7E03FC0FC0
1C03F807E0
0003F807E0
0007F007E0
00FFFFFFE0
0FFFFFFFE0
3FFFFFFFE0
7FF3FFFFE0
7F03F00000
FE03F00000
FC03F80000
FC03F807C0
FC07FC0FE0
FE0FFE1FC0
FFFFFFFFC0
7FFFFFFF80
3FFE3FFF00
1FF80FFC00
0100000000
ENDCHAR
STARTCHAR 00E7
ENCODING 231
SWIDTH 562 0
DWIDTH 25 0
BBX 22 33 2 -9
BITMAP
003000
03FF00
0FFFC0
1FFFE0
3FFFF0
3FC7F0
7F03F8
7E01F8
FE0180
FC0000
FC0000
FC0000
FC0000
FC0000
FC0000
FC00C0
FE01FC
7E01F8
7F03F8
7FEFF0
3FFFF0
1FFFE0
0FFFC0
03FF00
007800
01FE00
01FF00
000F80
000780
000F80
07FF00
07FE00
07F800
ENDCHAR
STARTCHAR 00E8
ENCODING 232
SWIDTH 562 0
DWIDTH 25 0
BBX 22 33 1 -1
BITMAP
07F000
03F000
01F800
00F800
007C00
003C00
000000
000000
003000
03FF00
07FFC0
0FFFE0
1FFFF0
3F87F0
3F03F8
7E01F8
7E00F8
7E00FC
7E00FC
FFFFFC
FFFFFC
FFFFFC
7E0000
7E0000
7E0000
7E01F0
3F01F8
3FC3F8
1FFFF0
1FFFE0
07FFC0
03FF80
001000
ENDCHAR
STARTCHAR 00E9
ENCODING 233
SWIDTH 562 0
DWIDTH 25 0
BBX 22 33 1 -1
BITMAP
001F80
003F00
003E00
007C00
007800
00F800
000000
000000
003000
03FF00
07FFC0
0FFFE0
1FFFF0
3F87F0
3F03F8
7E01F8
7E00F8
7E00FC
7E00FC
FFFFFC
FFFFFC
FFFFFC
7E0000
7E0000
7E0000
7E01F0
3F01F8
3FC3F8
1FFFF0
1FFFE0
07FFC0
03FF80
001000
ENDCHAR
STARTCHAR 00EA
ENCODING 234
SWIDTH 562 0
DWIDTH 25 0
BBX 22 33 1 -1
BITMAP
00FE00
01FE00
03FF00
03EF80
07CF80
0F87C0
000000
000000
003000
03FF00
07FFC0
0FFFE0
1FFFF0
3F87F0
3F03F8
7E01F8
7E00F8
7E00FC
7E00FC
FFFFFC
FFFFFC
FFFFFC
7E0000
7E0000
7E0000
7E01F0
3F01F8
3FC3F8
1FFFF0
1FFFE0
07FFC0
03FF80
001000
ENDCHAR
STARTCHAR 00EB
ENCODING 235
SWIDTH 562 0
DWIDTH 25 0
BBX 22 33 1 -1
BITMAP
0F87C0
0F87C0
0F87C0
0F87C0
0F87C0
000000
000000
000000
003000
03FF00
07FFC0
0FFFE0
1FFFF0
3F87F0
3F03F8
7E01F8
7E00F8
7E00FC
7E00FC
FFFFFC
FFFFFC
FFFFFC
7E0000
7E0000
7E0000
7E01F0
3F01F8
3FC3F8
1FFFF0
1FFFE0
07FFC0
03FF80
001000
ENDCHAR
STARTCHAR 00EC
ENCODING 236
SWIDTH 270 0
DWIDTH 12 0
BBX 9 32 0 0
BITMAP
FE00
7E00
3F00
1F00
0F80
0780
0000
0000
0000
1F80
1F80
1F80
1F80
1F80
1F80
1F80
1F80
1F80
1F80
1F80
1F80
1F80
1F80
1F80
1F80
1F80
1F80
1F80
1F80
1F80
1F80
1F80
ENDCHAR
STARTCHAR 00ED
ENCODING 237
SWIDTH 270 0
DWIDTH 12 0
BBX 9 32 3 0
BITMAP
3F80
3F00
7E00
7C00
F800
F000
0000
0000
0000
FC00
FC00
FC00
FC00
FC00
FC00
FC00
FC00
FC00
FC00
FC00
FC00
FC00
FC00
FC00
FC00
FC00
FC00
FC00
FC00
FC00
FC00
FC00
ENDCHAR
STARTCHAR 00EE
ENCODING 238
SWIDTH 270 0
DWIDTH 12 0
BBX 14 32 -1 0
BITMAP
0FE0
1FE0
3FF0
3EF8
7CFC
F87C
0000
0000
0000
0FC0
0FC0
0FC0
0FC0
0FC0
0FC0
0FC0
0FC0
0FC0
0FC0
0FC0
0FC0
0FC0
0FC0
0FC0
0FC0
0FC0
0FC0
0FC0
0FC0
0FC0
0FC0
0FC0
ENDCHAR
STARTCHAR 00EF
ENCODING 239
SWIDTH 270 0
DWIDTH 12 0
BBX 15 32 -1 0
BITMAP
F87E
F87E
F87E
F87E
F87E
0000
0000
0000
0000
0FC0
0FC0
0FC0
0FC0
0FC0
0FC0
0FC0
0FC0
0FC0
0FC0
0FC0
0FC0
0FC0
0FC0
0FC0
0FC0
0FC0
0FC0
0FC0
0FC0
0FC0
0FC0
0FC0
ENDCHAR
STARTCHAR 00F0
ENCODING 240
SWIDTH 607 0
DWIDTH 27 0
BBX 23 33 2 -1
BITMAP
03F040
01F9C0
00FFC0
007F00
007F00
01FF80
07CFC0
0307E0
0003F0
01FBF0
07FFF8
0FFFF8
1FFFFC
3FFFFC
7F83FE
7F01FE
FE00FE
FE007E
FC007E
FC007E
FC007E
FC007E
FC007E
FE007E
FE00FE
7F00FE
7F81FC
3FEFFC
1FFFF8
1FFFF0
07FFE0
03FF80
001000
ENDCHAR
STARTCHAR 00F1
ENCODING 241
SWIDTH 607 0
DWIDTH 27 0
BBX 21 32 3 0
BITMAP
0301C0
0FE1C0
0FFFC0
1FFFC0
1C3F80
1C0F00
000000
000000
000400
FC7FC0
FCFFE0
FDFFF0
FFFFF0
FF87F8
FF03F8
FE01F8
FE01F8
FC01F8
FC01F8
FC01F8
FC01F8
FC01F8
FC01F8
FC01F8
FC01F8
FC01F8
FC01F8
FC01F8
FC01F8
FC01F8
FC01F8
FC01F8
ENDCHAR
STARTCHAR 00F2
ENCODING 242
SWIDTH 607 0
DWIDTH 27 0
BBX 24 33 2 -1
BITMAP
07F000
01F800
00F800
00FC00
007C00
003C00
000000
000000
001000
03FF80
07FFE0
1FFFF0
3FFFF8
3FEFFC
7F01FC
7E00FE
FE00FE
FC007E
FC007E
FC007F
FC007F
FC007F
FC007E
FC007E
FE007E
7F00FE
7F81FC
3FEFF8
3FFFF8
1FFFF0
07FFC0
03FF80
001000
ENDCHAR
STARTCHAR 00F3
ENCODING 243
SWIDTH 607 0
DWIDTH 27 0
BBX 24 33 2 -1
BITMAP
001FC0
001F80
003F00
003E00
007C00
007800
000000
000000
001000
03FF80
07FFE0
1FFFF0
3FFFF8
3FEFFC
7F01FC
7E00FE
FE00FE
FC007E
FC007E
FC007F
FC007F
FC007F
FC007E
FC007E
FE007E
7F00FE
7F81FC
3FEFF8
3FFFF8
1FFFF0
07FFC0
03FF80
001000
ENDCHAR
STARTCHAR 00F4
ENCODING 244
SWIDTH 607 0
DWIDTH 27 0
BBX 24 33 2 -1
BITMAP
00FE00
00FF00
01FF80
03EF80
07C7C0
07C3E0
000000
000000
001000
03FF80
07FFE0
1FFFF0
3FFFF8
3FEFFC
7F01FC
7E00FE
FE00FE
FC007E
FC007E
FC007F
FC007F
FC007F
FC007E
FC007E
FE007E
7F00FE
7F81FC
3FEFF8
3FFFF8
1FFFF0
07FFC0
03FF80
001000
ENDCHAR
STARTCHAR 00F5
ENCODING 245
SWIDTH 607 0
DWIDTH 27 0
BBX 24 33 2 -1
BITMAP
0180E0
07F0E0
07FFE0
0FFFE0
0E1FC0
0E0780
000000
000000
001000
03FF80
07FFE0
1FFFF0
3FFFF8
3FEFFC
7F01FC
7E00FE
FE00FE
FC007E
FC007E
FC007F
FC007F
FC007F
FC007E
FC007E
FE007E
7F00FE
7F81FC
3FEFF8
3FFFF8
1FFFF0
07FFC0
03FF80
001000
ENDCHAR
STARTCHAR 00F6
ENCODING 246
SWIDTH 607 0
DWIDTH 27 0
BBX 24 33 2 -1
BITMAP
0F87E0
0F87E0
0F87E0
0F87E0
0F87E0
000000
000000
000000
001000
03FF80
07FFE0
1FFFF0
3FFFF8
3FEFFC
7F01FC
7E00FE
FE00FE
FC007E
FC007E
FC007F
FC007F
FC007F
FC007E
FC007E
FE007E
7F00FE
7F81FC
3FEFF8
3FFFF8
1FFFF0
07FFC0
03FF80
001000
ENDCHAR
STARTCHAR 00F7
ENCODING 247
SWIDTH 540 0
DWIDTH 24 0
BBX 22 23 1 4
BITMAP
00FC00
00FC00
00FC00
00FC00
00FC00
00FC00
000000
000000
FFFFFC
FFFFFC
FFFFFC
FFFFFC
FFFFFC
FFFFFC
000000
000000
000000
00FC00
00FC00
00FC00
00FC00
00FC00
00FC00
ENDCHAR
STARTCHAR 00F8
ENCODING 248
SWIDTH 607 0
DWIDTH 27 0
BBX 24 26 2 -2
BITMAP
00100C
01FF9E
07FFFE
0FFFFC
1FFFF8
3FC3FC
7F01FC
7E03FE
FE07FE
FC0F7E
FC1F7F
FC1E3F
FC3C3F
FC783F
FCF07F
FDE07E
7FC07E
7FC0FE
7F81FC
3FC7FC
1FFFF8
3FFFF0
7FFFE0
F1FF80
601000
200000
ENDCHAR
STARTCHAR 00F9
ENCODING 249
SWIDTH 607 0
DWIDTH 27 0
BBX 21 33 3 -1
BITMAP
0FE000
07E000
03F000
01F000
00F800
007800
000000
000000
000000
FC01F8
FC01F8
FC01F8
FC01F8
FC01F8
FC01F8
FC01F8
FC01F8
FC01F8
FC01F8
FC01F8
FC01F8
FC01F8
FC01F8
FC01F8
FC01F8
FC03F8
FE07F8
7F0FF8
7FFFF8
7FFFF8
3FFDF8
0FF1F8
010000
ENDCHAR
STARTCHAR 00FA
ENCODING 250
SWIDTH 607 0
DWIDTH 27 0
BBX 21 33 3 -1
BITMAP
003F80
003F00
007E00
007C00
00F800
00F000
000000
000000
000000
FC01F8
FC01F8
FC01F8
FC01F8
FC01F8
FC01F8
FC01F8
FC01F8
FC01F8
FC01F8
FC01F8
FC01F8
FC01F8
FC01F8
FC01F8
FC01F8
FC03F8
FE07F8
7F0FF8
7FFFF8
7FFFF8
3FFDF8
0FF1F8
010000
ENDCHAR
STARTCHAR 00FB
ENCODING 251
SWIDTH 607 0
DWIDTH 27 0
BBX 21 33 3 -1
BITMAP
01FC00
03FE00
03FE00
07DF00
0F8F80
0F87C0
000000
000000
000000
FC01F8
FC01F8
FC01F8
FC01F8
FC01F8
FC01F8
FC01F8
FC01F8
FC01F8
FC01F8
FC01F8
FC01F8
FC01F8
FC01F8
FC01F8
FC01F8
FC03F8
FE07F8
7F0FF8
7FFFF8
7FFFF8
3FFDF8
0FF1F8
010000
ENDCHAR
STARTCHAR 00FC
ENCODING 252
SWIDTH 607 0
DWIDTH 27 0
BBX 21 33 3 -1
BITMAP
1F07C0
1F07C0
1F07C0
1F07C0
1F07C0
000000
000000
000000
000000
FC01F8
FC01F8
FC01F8
FC01F8
FC01F8
FC01F8
FC01F8
FC01F8
FC01F8
FC01F8
FC01F8
FC01F8
FC01F8
FC01F8
FC01F8
FC01F8
FC03F8
FE07F8
7F0FF8
7FFFF8
7FFFF8
3FFDF8
0FF1F8
010000
ENDCHAR
STARTCHAR 00FD
ENCODING 253
SWIDTH 562 0
DWIDTH 25 0
BBX 24 41 0 -9
BITMAP
000FC0
001F80
001F00
003E00
003C00
007C00
000000
000000
000000
FE007F
7E007E
7F007E
3F007E
3F00FC
3F80FC
1F80FC
1F81F8
0FC1F8
0FC1F0
0FC3F0
07E3F0
07E3E0
07E7E0
03F7E0
03F7C0
01FFC0
01FFC0
01FF80
00FF80
00FF00
00FF00
007F00
007E00
007E00
00FE00
01FC00
3FFC00
3FF800
3FF800
3FF000
3FC000
ENDCHAR
STARTCHAR 00FE
ENCODING 254
SWIDTH 607 0
DWIDTH 27 0
BBX 22 41 3 -9
BITMAP
FC0000
FC0000
FC0000
FC0000
FC0000
FC0000
FC0000
FC0000
FC0C00
FC7F80
FDFFE0
FFFFF0
FFFFF0
FF87F8
FF03FC
FE01FC
FE00FC
FC00FC
FC00FC
FC00FC
FC00FC
FC00FC
FC00FC
FC00FC
FE00FC
FE01FC
FF03F8
FFCFF8
FFFFF0
FFFFF0
FDFFC0
FC7F80
FC0000
FC0000
FC0000
FC0000
FC0000
FC0000
FC0000
FC0000
FC0000
ENDCHAR
STARTCHAR 00FF
ENCODING 255
SWIDTH 562 0
DWIDTH 25 0
BBX 24 41 0 -9
BITMAP
07C3F0
07C3F0
07C3F0
07C3F0
07C3F0
000000
000000
000000
000000
FE007F
7E007E
7F007E
3F007E
3F00FC
3F80FC
1F80FC
1F81F8
0FC1F8
0FC1F0
0FC3F0
07E3F0
07E3E0
07E7E0
03F7E0
03F7C0
01FFC0
01FFC0
01FF80
00FF80
00FF00
00FF00
007F00
007E00
007E00
00FE00
01FC00
3FFC00
3FF800
3FF800
3FF000
3FC000
ENDCHAR
STARTCHAR 0100
ENCODING 256
SWIDTH 720 0
DWIDTH 32 0
BBX 32 39 0 0
BITMAP
007FFE00
007FFE00
007FFE00
007FFE00
00000000
00000000
00000000
000FE000
000FF000
001FF000
001FF800
001FF800
003FF800
003FFC00
003FFC00
007EFE00
007EFE00
00FE7E00
00FC7F00
00FC7F00
01FC3F80
01F83F80
03F81F80
03F01FC0
03F01FC0
07F00FE0
07FFFFE0
0FFFFFE0
0FFFFFF0
0FFFFFF0
1FFFFFF8
1FFFFFF8
1F8003F8
3F8001FC
3F0001FC
7F0000FE
7F0000FE
7E0000FE
FE00007F
ENDCHAR
STARTCHAR 0101
ENCODING 257
SWIDTH 562 0
DWIDTH 25 0
BBX 21 32 2 -1
BITMAP
1FFF80
1FFF80
1FFF80
1FFF80
000000
000000
000000
002000
0FFF00
1FFFC0
3FFFE0
7FFFE0
7F0FF0
FC03F0
1C03F0
0003F0
000FF0
00FFF0
0FFFF0
3FFFF0
7FF3F0
FF03F0
FC03F0
FC03F0
FC03F0
FC07F0
FE0FF0
FFFFF0
7FFFF0
3FF9F8
1FF1F8
010000
ENDCHAR
STARTCHAR 0102
ENCODING 258
SWIDTH 720 0
DWIDTH 32 0
BBX 32 40 0 0
BITMAP
00700E00
00781E00
00381C00
003FFC00
001FF800
000FF000
00000000
00000000
000FE000
000FF000
001FF000
001FF800
001FF800
003FF800
003FFC00
003FFC00
007EFE00
007EFE00
00FE7E00
00FC7F00
00FC7F00
01FC3F80
01F83F80
03F81F80
03F01FC0
03F01FC0
07F00FE0
07FFFFE0
0FFFFFE0
0FFFFFF0
0FFFFFF0
1FFFFFF8
1FFFFFF8
1F8003F8
3F8001FC
3F0001FC
7F0000FE
7F0000FE
7E0000FE
FE00007F
ENDCHAR
STARTCHAR 0103
ENCODING 259
SWIDTH 562 0
DWIDTH 25 0
BBX 21 33 2 -1
BITMAP
0E0380
0E0780
0F8F00
07FF00
03FE00
00F800
000000
000000
002000
0FFF00
1FFFC0
3FFFE0
7FFFE0
7F0FF0
FC03F0
1C03F0
0003F0
000FF0
00FFF0
0FFFF0
3FFFF0
7FF3F0
FF03F0
FC03F0
FC03F0
FC03F0
FC07F0
FE0FF0
FFFFF0
7FFFF0
3FF9F8
1FF1F8
010000
ENDCHAR
STARTCHAR 0104
ENCODING 260
SWIDTH 720 0
DWIDTH 32 0
BBX 34 41 0 -9
BITMAP
000FE00000
000FF00000
001FF00000
001FF80000
001FF80000
003FF80000
003FFC0000
003FFC0000
007EFE0000
007EFE0000
00FE7E0000
00FC7F0000
00FC7F0000
01FC3F8000
01F83F8000
03F81F8000
03F01FC000
03F01FC000
07F00FE000
07FFFFE000
0FFFFFE000
0FFFFFF000
0FFFFFF000
1FFFFFF800
1FFFFFF800
1F8003F800
3F8001FC00
3F0001FC00
7F0000FE00
7F0000FE00
7E0000FE00
FE00007F00
0000007000
0000007000
000000F000
000000F000
000000F000
000000F800
0000007FC0
0000007FC0
0000003FC0
ENDCHAR
STARTCHAR 0105
ENCODING 261
SWIDTH 562 0
DWIDTH 25 0
BBX 24 33 2 -9
BITMAP
002000
0FFF00
1FFFC0
3FFFE0
7FFFE0
7F0FF0
FC03F0
1C03F0
0003F0
000FF0
00FFF0
0FFFF0
3FFFF0
7FF3F0
FF03F0
FC03F0
FC03F0
FC03F0
FC07F0
FE0FF0
FFFFF0
7FFFF0
3FF9F8
1FF1F8
0101C0
0001C0
0001C0
0001C0
0001E0
0001E0
0001FF
0000FF
00007F
ENDCHAR
STARTCHAR 0106
ENCODING 262
SWIDTH 720 0
DWIDTH 32 0
BBX 28 41 2 -1
BITMAP
0007F000
0007E000
000FC000
000F8000
001F0000
001E0000
00000000
00000000
003FF000
01FFFC00
03FFFF00
07FFFF80
0FFFFFC0
1FF07FC0
3FC01FE0
3F800FE0
7F0007F0
7F000780
7E000000
7E000000
FE000000
FE000000
FE000000
FE000000
FE000000
FE000000
FE000000
FE000000
FE000000
7E000780
7F0007F0
7F000FE0
3F800FE0
3FC01FE0
1FF07FC0
0FFFFF80
0FFFFF80
03FFFF00
01FFFC00
007FF000
00020000
ENDCHAR
STARTCHAR 0107
ENCODING 263
SWIDTH 562 0
DWIDTH 25 0
BBX 22 33 2 -1
BITMAP
003F80
003F00
007E00
007C00
00F800
00F000
000000
000000
003000
03FF00
0FFFC0
1FFFE0
3FFFF0
3FC7F0
7F03F8
7E01F8
FE0180
FC0000
FC0000
FC0000
FC0000
FC0000
FC0000
FC00C0
FE01FC
7E01F8
7F03F8
7FEFF0
3FFFF0
1FFFE0
0FFFC0
03FF00
002000
ENDCHAR
STARTCHAR 0108
ENCODING 264
SWIDTH 720 0
DWIDTH 32 0
BBX 28 42 2 -1
BITMAP
001FC000
001FE000
003FE000
007DF000
007CF800
00F8F800
00000400
00000000
00000000
003FF000
01FFFC00
03FFFF00
07FFFF80
0FFFFFC0
1FF07FC0
3FC01FE0
3F800FE0
7F0007F0
7F000780
7E000000
7E000000
FE000000
FE000000
FE000000
FE000000
FE000000
FE000000
FE000000
FE000000
FE000000
7E000780
7F0007F0
7F000FE0
3F800FE0
3FC01FE0
1FF07FC0
0FFFFF80
0FFFFF80
03FFFF00
01FFFC00
007FF000
00020000
ENDCHAR
STARTCHAR 0109
ENCODING 265
SWIDTH 562 0
DWIDTH 25 0
BBX 22 33 2 -1
BITMAP
01FC00
03FE00
03FE00
07DF00
0F8F80
1F0F80
000000
000000
003000
03FF00
0FFFC0
1FFFE0
3FFFF0
3FC7F0
7F03F8
7E01F8
FE0180
FC0000
FC0000
FC0000
FC0000
FC0000
FC0000
FC00C0
FE01FC
7E01F8
7F03F8
7FEFF0
3FFFF0
1FFFE0
0FFFC0
03FF00
002000
ENDCHAR
STARTCHAR 010A
ENCODING 266
SWIDTH 720 0
DWIDTH 32 0
BBX 28 41 2 -1
BITMAP
000FC000
000FC000
000FC000
000FC000
000FC000
00000000
00000000
00000000
003FF000
01FFFC00
03FFFF00
07FFFF80
0FFFFFC0
1FF07FC0
3FC01FE0
3F800FE0
7F0007F0
7F000780
7E000000
7E000000
FE000000
FE000000
FE000000
FE000000
FE000000
FE000000
FE000000
FE000000
FE000000
7E000780
7F0007F0
7F000FE0
3F800FE0
3FC01FE0
1FF07FC0
0FFFFF80
0FFFFF80
03FFFF00
01FFFC00
007FF000
00020000
ENDCHAR
STARTCHAR 010B
ENCODING 267
SWIDTH 562 0
DWIDTH 25 0
BBX 22 33 2 -1
BITMAP
01F800
01F800
01F800
01F800
01F800
000000
000000
000000
003000
03FF00
0FFFC0
1FFFE0
3FFFF0
3FC7F0
7F03F8
7E01F8
FE0180
FC0000
FC0000
FC0000
FC0000
FC0000
FC0000
FC00C0
FE01FC
7E01F8
7F03F8
7FEFF0
3FFFF0
1FFFE0
0FFFC0
03FF00
002000
ENDCHAR
STARTCHAR 010C
ENCODING 268
SWIDTH 720 0
DWIDTH 32 0
BBX 28 41 2 -1
BITMAP
01F0F800
00F8F800
007DF000
003FE000
003FC000
001FC000
00000000
00000000
003FF000
01FFFC00
03FFFF00
07FFFF80
0FFFFFC0
1FF07FC0
3FC01FE0
3F800FE0
7F0007F0
7F000780
7E000000
7E000000
FE000000
FE000000
FE000000
FE000000
FE000000
FE000000
FE000000
FE000000
FE000000
7E000780
7F0007F0
7F000FE0
3F800FE0
3FC01FE0
1FF07FC0
0FFFFF80
0FFFFF80
03FFFF00
01FFFC00
007FF000
00020000
ENDCHAR
STARTCHAR 010D
ENCODING 269
SWIDTH 562 0
DWIDTH 25 0
BBX 22 33 2 -1
BITMAP
0F87C0
07CF80
03EF80
01FF00
01FE00
00FE00
000000
000000
003000
03FF00
0FFFC0
1FFFE0
3FFFF0
3FC7F0
7F03F8
7E01F8
FE0180
FC0000
FC0000
FC0000
FC0000
FC0000
FC0000
FC00C0
FE01FC
7E01F8
7F03F8
7FEFF0
3FFFF0
1FFFE0
0FFFC0
03FF00
002000
ENDCHAR
STARTCHAR 010E
ENCODING 270
SWIDTH 720 0
DWIDTH 32 0
BBX 27 40 3 0
BITMAP
1F0F8000
0F9F0000
07DF0000
03FE0000
03FC0000
01FC0000
00000000
00000000
FFFF0000
FFFFF000
FFFFF800
FFFFFE00
FFFFFF00
FFFFFF00
FE007F80
FE003F80
FE001FC0
FE001FC0
FE000FC0
FE000FE0
FE000FE0
FE000FE0
FE000FE0
FE000FE0
FE000FE0
FE000FE0
FE000FE0
FE000FE0
FE000FE0
FE000FC0
FE001FC0
FE001FC0
FE003F80
FE007F80
FE07FF00
FFFFFF00
FFFFFE00
FFFFFC00
FFFFF000
FFFF8000
ENDCHAR
STARTCHAR 010F
ENCODING 271
SWIDTH 720 0
DWIDTH 32 0
BBX 30 33 2 -1
BITMAP
0000FCFC
0000FCFC
0000FCFC
0000FCFC
0000FCFC
0000FCFC
0000FC1C
0000FC1C
0040FC38
07FCFC78
0FFEFCF0
3FFFFC40
3FFFFC00
7F87FC00
7F03FC00
FE01FC00
FE00FC00
FC00FC00
FC00FC00
FC00FC00
FC00FC00
FC00FC00
FC00FC00
FC00FC00
FE00FC00
FE01FC00
7F03FC00
7FCFFC00
3FFFFC00
1FFF7C00
0FFE7C00
07F87C00
00400000
ENDCHAR
STARTCHAR 0110
ENCODING 272
SWIDTH 720 0
DWIDTH 32 0
BBX 30 32 0 0
BITMAP
1FFFE000
1FFFFE00
1FFFFF00
1FFFFFC0
1FFFFFE0
1FFFFFE0
1FC00FF0
1FC007F0
1FC003F8
1FC003F8
1FC001F8
1FC001FC
1FC001FC
1FC001FC
FFFF01FC
FFFF01FC
FFFF01FC
FFFF01FC
1FC001FC
1FC001FC
1FC001FC
1FC001F8
1FC003F8
1FC003F8
1FC007F0
1FC00FF0
1FC07FE0
1FFFFFE0
1FFFFFC0
1FFFFF80
1FFFFE00
1FFFF000
ENDCHAR
STARTCHAR 0111
ENCODING 273
SWIDTH 607 0
DWIDTH 27 0
BBX 25 33 2 -1
BITMAP
0000FC00
0000FC00
003FFF80
003FFF80
003FFF80
003FFF80
003FFF80
0000FC00
0040FC00
07FCFC00
0FFEFC00
1FFFFC00
3FFFFC00
7F87FC00
7F03FC00
FE01FC00
FE00FC00
FC00FC00
FC00FC00
FC00FC00
FC00FC00
FC00FC00
FC00FC00
FC00FC00
FE00FC00
7E01FC00
7F03FC00
7FCFFC00
3FFFFC00
1FFF7C00
0FFE7C00
07F87C00
00400000
ENDCHAR
STARTCHAR 0112
ENCODING 274
SWIDTH 675 0
DWIDTH 30 0
BBX 24 39 3 0
BITMAP
07FFE0
07FFE0
07FFE0
07FFE0
000000
000000
000000
FFFFFF
FFFFFF
FFFFFF
FFFFFF
FFFFFF
FFFFFF
FE0000
FE0000
FE0000
FE0000
FE0000
FE0000
FE0000
FFFFFE
FFFFFE
FFFFFE
FFFFFE
FFFFFE
FE0000
FE0000
FE0000
FE0000
FE0000
FE0000
FE0000
FE0000
FE0000
FFFFFF
FFFFFF
FFFFFF
FFFFFF
FFFFFF
ENDCHAR
STARTCHAR 0113
ENCODING 275
SWIDTH 562 0
DWIDTH 25 0
BBX 22 32 1 -1
BITMAP
0FFFC0
0FFFC0
0FFFC0
0FFFC0
000000
000000
000000
003000
03FF00
07FFC0
0FFFE0
1FFFF0
3F87F0
3F03F8
7E01F8
7E00F8
7E00FC
7E00FC
FFFFFC
FFFFFC
FFFFFC
7E0000
7E0000
7E0000
7E01F0
3F01F8
3FC3F8
1FFFF0
1FFFE0
07FFC0
03FF80
001000
ENDCHAR
STARTCHAR 0114
ENCODING 276
SWIDTH 675 0
DWIDTH 30 0
BBX 24 41 3 0
BITMAP
0700E0
0701C0
0783C0
03FFC0
01FF80
00FF00
000000
000000
000000
FFFFFF
FFFFFF
FFFFFF
FFFFFF
FFFFFF
FFFFFF
FE0000
FE0000
FE0000
FE0000
FE0000
FE0000
FE0000
FFFFFE
FFFFFE
FFFFFE
FFFFFE
FFFFFE
FE0000
FE0000
FE0000
FE0000
FE0000
FE0000
FE0000
FE0000
FE0000
FFFFFF
FFFFFF
FFFFFF
FFFFFF
FFFFFF
ENDCHAR
STARTCHAR 0115
ENCODING 277
SWIDTH 562 0
DWIDTH 25 0
BBX 22 33 1 -1
BITMAP
0E01C0
070380
078780
03FF00
01FE00
00FC00
000000
000000
003000
03FF00
07FFC0
0FFFE0
1FFFF0
3F87F0
3F03F8
7E01F8
7E00F8
7E00FC
7E00FC
FFFFFC
FFFFFC
FFFFFC
7E0000
7E0000
7E0000
7E01F0
3F01F8
3FC3F8
1FFFF0
1FFFE0
07FFC0
03FF80
001000
ENDCHAR
STARTCHAR 0116
ENCODING 278
SWIDTH 675 0
DWIDTH 30 0
BBX 24 40 3 0
BITMAP
007E00
007E00
007E00
007E00
007E00
000000
000000
000000
FFFFFF
FFFFFF
FFFFFF
FFFFFF
FFFFFF
FFFFFF
FE0000
FE0000
FE0000
FE0000
FE0000
FE0000
FE0000
FFFFFE
FFFFFE
FFFFFE
FFFFFE
FFFFFE
FE0000
FE0000
FE0000
FE0000
FE0000
FE0000
FE0000
FE0000
FE0000
FFFFFF
FFFFFF
FFFFFF
FFFFFF
FFFFFF
ENDCHAR
STARTCHAR 0117
ENCODING 279
SWIDTH 562 0
DWIDTH 25 0
BBX 22 33 1 -1
BITMAP
00FC00
00FC00
00FC00
00FC00
00FC00
000000
000000
000000
003000
03FF00
07FFC0
0FFFE0
1FFFF0
3F87F0
3F03F8
7E01F8
7E00F8
7E00FC
7E00FC
FFFFFC
FFFFFC
FFFFFC
7E0000
7E0000
7E0000
7E01F0
3F01F8
3FC3F8
1FFFF0
1FFFE0
07FFC0
03FF80
001000
ENDCHAR
STARTCHAR 0118
ENCODING 280
SWIDTH 675 0
DWIDTH 30 0
BBX 24 41 3 -9
BITMAP
FFFFFF
FFFFFF
FFFFFF
FFFFFF
FFFFFF
FFFFFF
FE0000
FE0000
FE0000
FE0000
FE0000
FE0000
FE0000
FFFFFE
FFFFFE
FFFFFE
FFFFFE
FFFFFE
FE0000
FE0000
FE0000
FE0000
FE0000
FE0000
FE0000
FE0000
FE0000
FFFFFF
FFFFFF
FFFFFF
FFFFFF
FFFFFF
0001E0
0001C0
0001C0
0001C0
0001E0
0001F0
0001FF
0000FF
00007F
ENDCHAR
STARTCHAR 0119
ENCODING 281
SWIDTH 562 0
DWIDTH 25 0
BBX 22 33 1 -9
BITMAP
003000
03FF00
07FFC0
0FFFE0
1FFFF0
3F87F0
3F03F8
7E01F8
7E00F8
7E00FC
7E00FC
FFFFFC
FFFFFC
FFFFFC
7E0000
7E0000
7E0000
7E01F0
3F01F8
3FC3F8
1FFFF0
1FFFE0
07FFC0
03FF80
003800
007800
007800
007800
007800
007C00
007FE0
003FE0
001FE0
ENDCHAR
STARTCHAR 011A
ENCODING 282
SWIDTH 675 0
DWIDTH 30 0
BBX 24 40 3 0
BITMAP
07C3E0
07C7C0
03EF80
01FF00
00FF00
00FE00
000000
000000
FFFFFF
FFFFFF
FFFFFF
FFFFFF
FFFFFF
FFFFFF
FE0000
FE0000
FE0000
FE0000
FE0000
FE0000
FE0000
FFFFFE
FFFFFE
FFFFFE
FFFFFE
FFFFFE
FE0000
FE0000
FE0000
FE0000
FE0000
FE0000
FE0000
FE0000
FE0000
FFFFFF
FFFFFF
FFFFFF
FFFFFF
FFFFFF
ENDCHAR
STARTCHAR 011B
ENCODING 283
SWIDTH 562 0
DWIDTH 25 0
BBX 22 33 1 -1
BITMAP
0F87C0
07CF80
03FF00
01FF00
01FE00
00FC00
000000
000000
003000
03FF00
07FFC0
0FFFE0
1FFFF0
3F87F0
3F03F8
7E01F8
7E00F8
7E00FC
7E00FC
FFFFFC
FFFFFC
FFFFFC
7E0000
7E0000
7E0000
7E01F0
3F01F8
3FC3F8
1FFFF0
1FFFE0
07FFC0
03FF80
001000
ENDCHAR
STARTCHAR 011C
ENCODING 284
SWIDTH 787 0
DWIDTH 35 0
BBX 30 42 2 -1
BITMAP
0007E000
000FF000
001FF000
003EF800
003E7C00
007C3E00
00000000
00000000
00000000
003FFC00
00FFFF00
03FFFFC0
07FFFFE0
0FFFFFF0
1FF83FF0
1FE007F8
3FC003F8
3F8003F8
7F0001E0
7F000000
7E000000
FE000000
FE000000
FE000000
FE00FFFC
FE00FFFC
FE00FFFC
FE00FFFC
FE00FFFC
7E0001FC
7F0001FC
7F0001FC
3F8001FC
3FC001FC
1FE003FC
1FF81FFC
0FFFFFFC
07FFFFF8
03FFFFE0
00FFFF80
003FFE00
00018000
ENDCHAR
STARTCHAR 011D
ENCODING 285
SWIDTH 607 0
DWIDTH 27 0
BBX 22 41 2 -9
BITMAP
00FE00
01FF00
01FF00
03EF80
07C7C0
07C3E0
000000
000000
004000
07FC7C
0FFE7C
1FFF7C
3FFFFC
7F87FC
7F03FC
FE01FC
FE00FC
FC00FC
FC00FC
FC00FC
FC00FC
FC00FC
FC00FC
FE00FC
FE01FC
7F01FC
7F87FC
3FFFFC
3FFFFC
1FFEFC
0FFCFC
03F0FC
0000FC
0000FC
7F00FC
7F01FC
7F87F8
7FFFF8
3FFFF0
1FFFE0
07FF80
ENDCHAR
STARTCHAR 011E
ENCODING 286
SWIDTH 787 0
DWIDTH 35 0
BBX 30 41 2 -1
BITMAP
00380E00
00380E00
003C1E00
001FFC00
001FF800
0007F000
00000000
00000000
003FFC00
00FFFF00
03FFFFC0
07FFFFE0
0FFFFFF0
1FF83FF0
1FE007F8
3FC003F8
3F8003F8
7F0001E0
7F000000
7E000000
FE000000
FE000000
FE000000
FE00FFFC
FE00FFFC
FE00FFFC
FE00FFFC
FE00FFFC
7E0001FC
7F0001FC
7F0001FC
3F8001FC
3FC001FC
1FE003FC
1FF81FFC
0FFFFFFC
07FFFFF8
03FFFFE0
00FFFF80
003FFE00
00018000
ENDCHAR
STARTCHAR 011F
ENCODING 287
SWIDTH 607 0
DWIDTH 27 0
BBX 22 41 2 -9
BITMAP
0E01C0
070380
078780
03FF00
01FE00
00FC00
000000
000000
004000
07FC7C
0FFE7C
1FFF7C
3FFFFC
7F87FC
7F03FC
FE01FC
FE00FC
FC00FC
FC00FC
FC00FC
FC00FC
FC00FC
FC00FC
FE00FC
FE01FC
7F01FC
7F87FC
3FFFFC
3FFFFC
1FFEFC
0FFCFC
03F0FC
0000FC
0000FC
7F00FC
7F01FC
7F87F8
7FFFF8
3FFFF0
1FFFE0
07FF80
ENDCHAR
STARTCHAR 0120
ENCODING 288
SWIDTH 787 0
DWIDTH 35 0
BBX 30 41 2 -1
BITMAP
0007E000
0007E000
0007E000
0007E000
0007E000
00000000
00000000
00000000
003FFC00
00FFFF00
03FFFFC0
07FFFFE0
0FFFFFF0
1FF83FF0
1FE007F8
3FC003F8
3F8003F8
7F0001E0
7F000000
7E000000
FE000000
FE000000
FE000000
FE00FFFC
FE00FFFC
FE00FFFC
FE00FFFC
FE00FFFC
7E0001FC
7F0001FC
7F0001FC
3F8001FC
3FC001FC
1FE003FC
1FF81FFC
0FFFFFFC
07FFFFF8
03FFFFE0
00FFFF80
003FFE00
00018000
ENDCHAR
STARTCHAR 0121
ENCODING 289
SWIDTH 607 0
DWIDTH 27 0
BBX 22 41 2 -9
BITMAP
007E00
007E00
007E00
007E00
007E00
000000
000000
000000
004000
07FC7C
0FFE7C
1FFF7C
3FFFFC
7F87FC
7F03FC
FE01FC
FE00FC
FC00FC
FC00FC
FC00FC
FC00FC
FC00FC
FC00FC
FE00FC
FE01FC
7F01FC
7F87FC
3FFFFC
3FFFFC
1FFEFC
0FFCFC
03F0FC
0000FC
0000FC
7F00FC
7F01FC
7F87F8
7FFFF8
3FFFF0
1FFFE0
07FF80
ENDCHAR
STARTCHAR 0122
ENCODING 290
SWIDTH 787 0
DWIDTH 35 0
BBX 30 41 2 -9
BITMAP
003FFC00
00FFFF00
03FFFFC0
07FFFFE0
0FFFFFF0
1FF83FF0
1FE007F8
3FC003F8
3F8003F8
7F0001E0
7F000000
7E000000
FE000000
FE000000
FE000000
FE00FFFC
FE00FFFC
FE00FFFC
FE00FFFC
FE00FFFC
7E0001FC
7F0001FC
7F0001FC
3F8001FC
3FC001FC
1FE003FC
1FF81FFC
0FFFFFFC
07FFFFF8
03FFFFE0
00FFFF80
003FFE00
0007C000
001FE000
001FF000
0000F000
0000F800
0000F000
007FF000
007FE000
007F8000
ENDCHAR
STARTCHAR 0123
ENCODING 291
SWIDTH 607 0
DWIDTH 27 0
BBX 22 44 2 -8
BITMAP
003800
007800
00F800
00E000
01E000
01FC00
01FC00
01FC00
01FC00
000000
000000
004000
07FC7C
0FFE7C
1FFF7C
3FFFFC
7F87FC
7F01FC
FE01FC
FE00FC
FC00FC
FC00FC
FC00FC
FC00FC
FC00FC
FC00FC
FE00FC
FE01FC
7F01FC
7F87FC
3FFFFC
3FFFFC
1FFEFC
0FFCFC
03F0FC
0000FC
0000FC
7F00FC
7F01FC
7FC7F8
7FFFF8
3FFFF0
1FFFE0
07FF80
ENDCHAR
STARTCHAR 0124
ENCODING 292
SWIDTH 720 0
DWIDTH 32 0
BBX 26 41 3 0
BITMAP
003F0000
007F8000
00FFC000
00FFC000
01F3E000
03E1F000
00000000
00000000
00000000
FE001FC0
FE001FC0
FE001FC0
FE001FC0
FE001FC0
FE001FC0
FE001FC0
FE001FC0
FE001FC0
FE001FC0
FE001FC0
FE001FC0
FE001FC0
FFFFFFC0
FFFFFFC0
FFFFFFC0
FFFFFFC0
FFFFFFC0
FE001FC0
FE001FC0
FE001FC0
FE001FC0
FE001FC0
FE001FC0
FE001FC0
FE001FC0
FE001FC0
FE001FC0
FE001FC0
FE001FC0
FE001FC0
FE001FC0
ENDCHAR
STARTCHAR 0125
ENCODING 293
SWIDTH 607 0
DWIDTH 27 0
BBX 21 40 3 0
BITMAP
01FC00
01FE00
03FE00
07DF00
07CF80
0F8F80
000000
000000
FC0000
FC0000
FC0000
FC0000
FC0000
FC0000
FC0000
FC0000
FC0400
FC7FC0
FCFFE0
FDFFF0
FFFFF0
FF87F8
FF03F8
FE01F8
FE01F8
FC01F8
FC01F8
FC01F8
FC01F8
FC01F8
FC01F8
FC01F8
FC01F8
FC01F8
FC01F8
FC01F8
FC01F8
FC01F8
FC01F8
FC01F8
ENDCHAR
STARTCHAR 0126
ENCODING 294
SWIDTH 720 0
DWIDTH 32 0
BBX 32 32 0 0
BITMAP
1FC003F8
1FC003F8
1FC003F8
1FC003F8
FFFFFFFF
FFFFFFFF
FFFFFFFF
FFFFFFFF
1FC003F8
1FC003F8
1FC003F8
1FC003F8
1FC003F8
1FFFFFF8
1FFFFFF8
1FFFFFF8
1FFFFFF8
1FFFFFF8
1FC003F8
1FC003F8
1FC003F8
1FC003F8
1FC003F8
1FC003F8
1FC003F8
1FC003F8
1FC003F8
1FC003F8
1FC003F8
1FC003F8
1FC003F8
1FC003F8
ENDCHAR
STARTCHAR 0127
ENCODING 295
SWIDTH 607 0
DWIDTH 27 0
BBX 23 32 1 0
BITMAP
3F0000
3F0000
FFFE00
FFFE00
FFFE00
FFFE00
FFFE00
3F0000
3F0100
3F1FF0
3F3FF8
3F7FFC
3FFFFC
3FE1FE
3FC0FE
3F807E
3F807E
3F007E
3F007E
3F007E
3F007E
3F007E
3F007E
3F007E
3F007E
3F007E
3F007E
3F007E
3F007E
3F007E
3F007E
3F007E
ENDCHAR
STARTCHAR 0128
ENCODING 296
SWIDTH 270 0
DWIDTH 12 0
BBX 15 40 -2 0
BITMAP
3E06
7FCE
7FFE
7FFE
E0FC
0000
0000
0000
07E0
07E0
07E0
07E0
07E0
07E0
07E0
07E0
07E0
07E0
07E0
07E0
07E0
07E0
07E0
07E0
07E0
07E0
07E0
07E0
07E0
07E0
07E0
07E0
07E0
07E0
07E0
07E0
07E0
07E0
07E0
07E0
ENDCHAR
STARTCHAR 0129
ENCODING 297
SWIDTH 270 0
DWIDTH 12 0
BBX 15 32 -1 0
BITMAP
180E
7E1C
FFFC
FFFC
E3F8
C070
0000
0000
0000
0FC0
0FC0
0FC0
0FC0
0FC0
0FC0
0FC0
0FC0
0FC0
0FC0
0FC0
0FC0
0FC0
0FC0
0FC0
0FC0
0FC0
0FC0
0FC0
0FC0
0FC0
0FC0
0FC0
ENDCHAR
STARTCHAR 012A
ENCODING 298
SWIDTH 270 0
DWIDTH 12 0
BBX 14 39 -1 0
BITMAP
FFFC
FFFC
FFFC
FFFC
0000
0000
0000
0FC0
0FC0
0FC0
0FC0
0FC0
0FC0
0FC0
0FC0
0FC0
0FC0
0FC0
0FC0
0FC0
0FC0
0FC0
0FC0
0FC0
0FC0
0FC0
0FC0
0FC0
0FC0
0FC0
0FC0
0FC0
0FC0
0FC0
0FC0
0FC0
0FC0
0FC0
0FC0
ENDCHAR
STARTCHAR 012B
ENCODING 299
SWIDTH 270 0
DWIDTH 12 0
BBX 14 31 -1 0
BITMAP
FFFC
FFFC
FFFC
FFFC
0000
0000
0000
0000
0FC0
0FC0
0FC0
0FC0
0FC0
0FC0
0FC0
0FC0
0FC0
0FC0
0FC0
0FC0
0FC0
0FC0
0FC0
0FC0
0FC0
0FC0
0FC0
0FC0
0FC0
0FC0
0FC0
ENDCHAR
STARTCHAR 012C
ENCODING 300
SWIDTH 270 0
DWIDTH 12 0
BBX 14 41 -1 0
BITMAP
E01C
701C
7038
7FF8
3FF0
1FE0
0000
0000
0000
0FC0
0FC0
0FC0
0FC0
0FC0
0FC0
0FC0
0FC0
0FC0
0FC0
0FC0
0FC0
0FC0
0FC0
0FC0
0FC0
0FC0
0FC0
0FC0
0FC0
0FC0
0FC0
0FC0
0FC0
0FC0
0FC0
0FC0
0FC0
0FC0
0FC0
0FC0
0FC0
ENDCHAR
STARTCHAR 012D
ENCODING 301
SWIDTH 270 0
DWIDTH 12 0
BBX 14 32 -1 0
BITMAP
F01C
703C
7878
3FF8
1FF0
0FC0
0000
0000
0000
0FC0
0FC0
0FC0
0FC0
0FC0
0FC0
0FC0
0FC0
0FC0
0FC0
0FC0
0FC0
0FC0
0FC0
0FC0
0FC0
0FC0
0FC0
0FC0
0FC0
0FC0
0FC0
0FC0
ENDCHAR
STARTCHAR 012E
ENCODING 302
SWIDTH 270 0
DWIDTH 12 0
BBX 10 41 2 -9
BITMAP
7E00
7E00
7E00
7E00
7E00
7E00
7E00
7E00
7E00
7E00
7E00
7E00
7E00
7E00
7E00
7E00
7E00
7E00
7E00
7E00
7E00
7E00
7E00
7E00
7E00
7E00
7E00
7E00
7E00
7E00
7E00
7E00
7000
7000
7000
F000
F000
F800
7FC0
7FC0
3FC0
ENDCHAR
STARTCHAR 012F
ENCODING 303
SWIDTH 270 0
DWIDTH 12 0
BBX 9 41 3 -9
BITMAP
FC00
FC00
FC00
FC00
FC00
FC00
0000
0000
0000
FC00
FC00
FC00
FC00
FC00
FC00
FC00
FC00
FC00
FC00
FC00
FC00
FC00
FC00
FC00
FC00
FC00
FC00
FC00
FC00
FC00
FC00
FC00
E000
E000
E000
E000
F000
F000
FF80
7F80
3F80
ENDCHAR
STARTCHAR 0130
ENCODING 304
SWIDTH 270 0
DWIDTH 12 0
BBX 6 39 3 0
BITMAP
FC
FC
FC
FC
FC
00
00
FC
FC
FC
FC
FC
FC
FC
FC
FC
FC
FC
FC
FC
FC
FC
FC
FC
FC
FC
FC
FC
FC
FC
FC
FC
FC
FC
FC
FC
FC
FC
FC
ENDCHAR
STARTCHAR 0131
ENCODING 305
SWIDTH 270 0
DWIDTH 12 0
BBX 6 23 3 0
BITMAP
FC
FC
FC
FC
FC
FC
FC
FC
FC
FC
FC
FC
FC
FC
FC
FC
FC
FC
FC
FC
FC
FC
FC
ENDCHAR
STARTCHAR 0132
ENCODING 306
SWIDTH 787 0
DWIDTH 35 0
BBX 28 33 3 -1
BITMAP
FC0003F0
FC0003F0
FC0003F0
FC0003F0
FC0003F0
FC0003F0
FC0003F0
FC0003F0
FC0003F0
FC0003F0
FC0003F0
FC0003F0
FC0003F0
FC0003F0
FC0003F0
FC0003F0
FC0003F0
FC0003F0
FC0003F0
FC0003F0
FC0003F0
FC0003F0
FCFC03F0
FCFC03F0
FCFE03F0
FCFE07F0
FC7F0FF0
FC7FFFE0
FC3FFFE0
FC3FFFC0
FC1FFF80
FC07FE00
00004000
ENDCHAR
STARTCHAR 0133
ENCODING 307
SWIDTH 562 0
DWIDTH 25 0
BBX 18 41 3 -9
BITMAP
FC0FC0
FC0FC0
FC0FC0
FC0FC0
FC0FC0
FC0FC0
000000
000000
000000
FC0FC0
FC0FC0
FC0FC0
FC0FC0
FC0FC0
FC0FC0
FC0FC0
FC0FC0
FC0FC0
FC0FC0
FC0FC0
FC0FC0
FC0FC0
FC0FC0
FC0FC0
FC0FC0
FC0FC0
FC0FC0
FC0FC0
FC0FC0
FC0FC0
FC0FC0
FC0FC0
000FC0
000FC0
000FC0
003FC0
00FFC0
00FFC0
01FF80
01FF00
01FE00
ENDCHAR
STARTCHAR 0134
ENCODING 308
SWIDTH 562 0
DWIDTH 25 0
BBX 24 42 1 -1
BITMAP
0003F0
0007F8
000FFC
000FFC
001F3E
003E1F
000000
000000
000000
0003F0
0003F0
0003F0
0003F0
0003F0
0003F0
0003F0
0003F0
0003F0
0003F0
0003F0
0003F0
0003F0
0003F0
0003F0
0003F0
0003F0
0003F0
0003F0
0003F0
0003F0
0003F0
FC03F0
FC03F0
FC07F0
FE07F0
FF0FE0
7FFFE0
7FFFC0
3FFFC0
1FFF80
0FFE00
004000
ENDCHAR
STARTCHAR 0135
ENCODING 309
SWIDTH 270 0
DWIDTH 12 0
BBX 15 41 -2 -9
BITMAP
07F0
0FF0
1FF8
1F7C
3E7C
7C3E
0000
0000
0000
07E0
07E0
07E0
07E0
07E0
07E0
07E0
07E0
07E0
07E0
07E0
07E0
07E0
07E0
07E0
07E0
07E0
07E0
07E0
07E0
07E0
07E0
07E0
07E0
07E0
07E0
1FE0
7FE0
7FE0
FFC0
FF80
FF00
ENDCHAR
STARTCHAR 0136
ENCODING 310
SWIDTH 720 0
DWIDTH 32 0
BBX 29 41 3 -9
BITMAP
FE001FF0
FE001FE0
FE003FC0
FE007F80
FE00FF00
FE01FE00
FE03FC00
FE07F800
FE0FF000
FE1FE000
FE3FC000
FE7F8000
FEFF0000
FEFF8000
FFFFC000
FFFFC000
FFFFE000
FFFFF000
FFE7F000
FFC7F800
FF83FC00
FF01FC00
FE01FE00
FE00FE00
FE00FF00
FE007F80
FE007F80
FE003FC0
FE001FE0
FE001FE0
FE000FF0
FE000FF8
00180000
003F8000
003FC000
0007C000
0003C000
0003C000
03FFC000
03FF8000
03FE0000
ENDCHAR
STARTCHAR 0137
ENCODING 311
SWIDTH 562 0
DWIDTH 25 0
BBX 21 41 3 -9
BITMAP
FC0000
FC0000
FC0000
FC0000
FC0000
FC0000
FC0000
FC0000
FC0000
FC07F0
FC0FE0
FC1FC0
FC3F80
FC7F00
FCFF00
FDFE00
FDFC00
FFF800
FFF800
FFFC00
FFFE00
FFFE00
FF7F00
FE3F00
FC3F80
FC1FC0
FC0FC0
FC0FE0
FC07E0
FC07F0
FC03F0
FC03F8
00C000
01FC00
01FE00
003E00
001E00
001E00
1FFE00
1FFC00
1FF000
ENDCHAR
STARTCHAR 0138
ENCODING 312
SWIDTH 562 0
DWIDTH 25 0
BBX 21 23 3 0
BITMAP
FC07F0
FC0FE0
FC1FC0
FC3F80
FC7F80
FCFF00
FCFE00
FDFC00
FFF800
FFFC00
FFFC00
FFFE00
FFFE00
FF7F00
FE3F00
FC1F80
FC1FC0
FC0FC0
FC0FE0
FC07E0
FC07F0
FC03F8
FC03F8
ENDCHAR
STARTCHAR 0139
ENCODING 313
SWIDTH 607 0
DWIDTH 27 0
BBX 23 40 3 0
BITMAP
007F00
007E00
00FC00
00F800
01F000
01E000
000000
000000
FE0000
FE0000
FE0000
FE0000
FE0000
FE0000
FE0000
FE0000
FE0000
FE0000
FE0000
FE0000
FE0000
FE0000
FE0000
FE0000
FE0000
FE0000
FE0000
FE0000
FE0000
FE0000
FE0000
FE0000
FE0000
FE0000
FE0000
FFFFFE
FFFFFE
FFFFFE
FFFFFE
FFFFFE
ENDCHAR
STARTCHAR 013A
ENCODING 314
SWIDTH 270 0
DWIDTH 12 0
BBX 9 40 3 0
BITMAP
3F80
3F00
3E00
7C00
7800
F000
F000
0000
FC00
FC00
FC00
FC00
FC00
FC00
FC00
FC00
FC00
FC00
FC00
FC00
FC00
FC00
FC00
FC00
FC00
FC00
FC00
FC00
FC00
FC00
FC00
FC00
FC00
FC00
FC00
FC00
FC00
FC00
FC00
FC00
ENDCHAR
STARTCHAR 013B
ENCODING 315
SWIDTH 607 0
DWIDTH 27 0
BBX 23 41 3 -9
BITMAP
FE0000
FE0000
FE0000
FE0000
FE0000
FE0000
FE0000
FE0000
FE0000
FE0000
FE0000
FE0000
FE0000
FE0000
FE0000
FE0000
FE0000
FE0000
FE0000
FE0000
FE0000
FE0000
FE0000
FE0000
FE0000
FE0000
FE0000
FFFFFE
FFFFFE
FFFFFE
FFFFFE
FFFFFE
004000
01FC00
01FE00
001F00
000F00
001F00
0FFE00
0FFC00
0FF000
ENDCHAR
STARTCHAR 013C
ENCODING 316
SWIDTH 270 0
DWIDTH 12 0
BBX 11 41 0 -9
BITMAP
1F80
1F80
1F80
1F80
1F80
1F80
1F80
1F80
1F80
1F80
1F80
1F80
1F80
1F80
1F80
1F80
1F80
1F80
1F80
1F80
1F80
1F80
1F80
1F80
1F80
1F80
1F80
1F80
1F80
1F80
1F80
1F80
0C00
1FC0
1FE0
03E0
01E0
01E0
FFE0
FFC0
FF00
ENDCHAR
STARTCHAR 013D
ENCODING 317
SWIDTH 607 0
DWIDTH 27 0
BBX 23 32 3 0
BITMAP
FE01F8
FE01F8
FE01F8
FE01F8
FE01F8
FE01F8
FE01F8
FE0038
FE0038
FE0078
FE00F0
FE01E0
FE01C0
FE0000
FE0000
FE0000
FE0000
FE0000
FE0000
FE0000
FE0000
FE0000
FE0000
FE0000
FE0000
FE0000
FE0000
FFFFFE
FFFFFE
FFFFFE
FFFFFE
FFFFFE
ENDCHAR
STARTCHAR 013E
ENCODING 318
SWIDTH 382 0
DWIDTH 17 0
BBX 14 32 3 0
BITMAP
FC7C
FC7C
FC7C
FC7C
FC7C
FC7C
FC1C
FC1C
FC38
FC78
FCF0
FC40
FC00
FC00
FC00
FC00
FC00
FC00
FC00
FC00
FC00
FC00
FC00
FC00
FC00
FC00
FC00
FC00
FC00
FC00
FC00
FC00
ENDCHAR
STARTCHAR 013F
ENCODING 319
SWIDTH 607 0
DWIDTH 27 0
BBX 23 32 3 0
BITMAP
FE0000
FE0000
FE0000
FE0000
FE0000
FE0000
FE0000
FE0000
FE0000
FE0000
FE0000
FE0000
FE0000
FE03F0
FE03F0
FE03F0
FE03F0
FE03F0
FE03F0
FE03F0
FE0000
FE0000
FE0000
FE0000
FE0000
FE0000
FE0000
FFFFFE
FFFFFE
FFFFFE
FFFFFE
FFFFFE
ENDCHAR
STARTCHAR 0140
ENCODING 320
SWIDTH 472 0
DWIDTH 21 0
BBX 15 32 3 0
BITMAP
FC00
FC00
FC00
FC00
FC00
FC00
FC00
FC00
FC00
FC00
FC00
FC00
FC00
FC7E
FC7E
FC7E
FC7E
FC7E
FC7E
FC7E
FC00
FC00
FC00
FC00
FC00
FC00
FC00
FC00
FC00
FC00
FC00
FC00
ENDCHAR
STARTCHAR 0141
ENCODING 321
SWIDTH 607 0
DWIDTH 27 0
BBX 26 32 0 0
BITMAP
0FC00000
0FC00000
0FC00000
0FC00000
0FC00000
0FC08000
0FC18000
0FC38000
0FC78000
0FDF8000
0FFF0000
0FFE0000
0FFC0000
0FF80000
0FF00000
0FE00000
1FC00000
3FC00000
7FC00000
FFC00000
FFC00000
EFC00000
CFC00000
8FC00000
0FC00000
0FC00000
0FC00000
0FFFFFC0
0FFFFFC0
0FFFFFC0
0FFFFFC0
0FFFFFC0
ENDCHAR
STARTCHAR 0142
ENCODING 322
SWIDTH 270 0
DWIDTH 12 0
BBX 12 32 0 0
BITMAP
1F80
1F80
1F80
1F80
1F80
1F80
1F80
1F80
1F80
1F90
1FB0
1FF0
1FF0
1FE0
1FC0
1F80
1F80
3F80
7F80
FF80
FF80
DF80
9F80
1F80
1F80
1F80
1F80
1F80
1F80
1F80
1F80
1F80
ENDCHAR
STARTCHAR 0143
ENCODING 323
SWIDTH 720 0
DWIDTH 32 0
BBX 26 40 3 0
BITMAP
000FC000
001F8000
001F0000
003F0000
003E0000
007C0000
00000000
00000000
FE000FC0
FE000FC0
FF000FC0
FF800FC0
FF800FC0
FFC00FC0
FFC00FC0
FFE00FC0
FFF00FC0
FFF00FC0
FFF80FC0
FFF80FC0
FDFC0FC0
FCFE0FC0
FCFE0FC0
FC7F0FC0
FC7F8FC0
FC3F8FC0
FC1FCFC0
FC1FCFC0
FC0FEFC0
FC07FFC0
FC07FFC0
FC03FFC0
FC03FFC0
FC01FFC0
FC00FFC0
FC00FFC0
FC007FC0
FC003FC0
FC003FC0
FC001FC0
ENDCHAR
STARTCHAR 0144
ENCODING 324
SWIDTH 607 0
DWIDTH 27 0
BBX 21 32 3 0
BITMAP
003F80
007E00
007E00
007C00
00F800
00F000
000000
000000
000400
FC7FC0
FCFFE0
FDFFF0
FFFFF0
FF87F8
FF03F8
FE01F8
FE01F8
FC01F8
FC01F8
FC01F8
FC01F8
FC01F8
FC01F8
FC01F8
FC01F8
FC01F8
FC01F8
FC01F8
FC01F8
FC01F8
FC01F8
FC01F8
ENDCHAR
STARTCHAR 0145
ENCODING 325
SWIDTH 720 0
DWIDTH 32 0
BBX 26 41 3 -9
BITMAP
FE000FC0
FE000FC0
FF000FC0
FF800FC0
FF800FC0
FFC00FC0
FFC00FC0
FFE00FC0
FFF00FC0
FFF00FC0
FFF80FC0
FFF80FC0
FDFC0FC0
FCFE0FC0
FCFE0FC0
FC7F0FC0
FC7F8FC0
FC3F8FC0
FC1FCFC0
FC1FCFC0
FC0FEFC0
FC07FFC0
FC07FFC0
FC03FFC0
FC03FFC0
FC01FFC0
FC00FFC0
FC00FFC0
FC007FC0
FC003FC0
FC003FC0
FC001FC0
00180000
003F8000
003FC000
0007C000
0003C000
0003C000
03FFC000
03FF8000
03FE0000
ENDCHAR
STARTCHAR 0146
ENCODING 326
SWIDTH 607 0
DWIDTH 27 0
BBX 21 33 3 -9
BITMAP
000400
FC7FC0
FCFFE0
FDFFF0
FFFFF0
FF87F8
FF03F8
FE01F8
FE01F8
FC01F8
FC01F8
FC01F8
FC01F8
FC01F8
FC01F8
FC01F8
FC01F8
FC01F8
FC01F8
FC01F8
FC01F8
FC01F8
FC01F8
FC01F8
004000
01FC00
01FE00
001F00
000F00
001F00
0FFE00
0FFC00
0FF000
ENDCHAR
STARTCHAR 0147
ENCODING 327
SWIDTH 720 0
DWIDTH 32 0
BBX 26 40 3 0
BITMAP
03E3E000
03E3E000
01F7C000
00FF8000
00FF8000
007F0000
00000000
00000000
FE000FC0
FE000FC0
FF000FC0
FF800FC0
FF800FC0
FFC00FC0
FFC00FC0
FFE00FC0
FFF00FC0
FFF00FC0
FFF80FC0
FFF80FC0
FDFC0FC0
FCFE0FC0
FCFE0FC0
FC7F0FC0
FC7F8FC0
FC3F8FC0
FC1FCFC0
FC1FCFC0
FC0FEFC0
FC07FFC0
FC07FFC0
FC03FFC0
FC03FFC0
FC01FFC0
FC00FFC0
FC00FFC0
FC007FC0
FC003FC0
FC003FC0
FC001FC0
ENDCHAR
STARTCHAR 0148
ENCODING 328
SWIDTH 607 0
DWIDTH 27 0
BBX 21 32 3 0
BITMAP
0F8F80
07CF80
07DF00
03FE00
01FE00
01FC00
000000
000000
000400
FC7FC0
FCFFE0
FDFFF0
FFFFF0
FF87F8
FF03F8
FE01F8
FE01F8
FC01F8
FC01F8
FC01F8
FC01F8
FC01F8
FC01F8
FC01F8
FC01F8
FC01F8
FC01F8
FC01F8
FC01F8
FC01F8
FC01F8
FC01F8
ENDCHAR
STARTCHAR 0149
ENCODING 329
SWIDTH 697 0
DWIDTH 31 0
BBX 29 32 -1 0
BITMAP
FC000000
FC000000
FC000000
FC000000
FC000000
FC000000
1C000000
1C000000
1C000400
3CFC7FC0
78FCFFE0
F0FDFFF0
60FFFFF8
00FF87F8
00FF03F8
00FE01F8
00FE01F8
00FE01F8
00FC01F8
00FC01F8
00FC01F8
00FC01F8
00FC01F8
00FC01F8
00FC01F8
00FC01F8
00FC01F8
00FC01F8
00FC01F8
00FC01F8
00FC01F8
00FC01F8
ENDCHAR
STARTCHAR 014A
ENCODING 330
SWIDTH 720 0
DWIDTH 32 0
BBX 27 33 3 -1
BITMAP
FE07F800
FE1FFE00
FE7FFF00
FEFFFF80
FFFFFF80
FFF8FFC0
FFC03FC0
FF801FC0
FF001FC0
FE000FE0
FE000FE0
FE000FE0
FE000FE0
FE000FE0
FE000FE0
FE000FE0
FE000FE0
FE000FE0
FE000FE0
FE000FE0
FE000FE0
FE000FE0
FE000FE0
FE000FE0
FE000FE0
FE001FC0
FE041FC0
FE07FFC0
FE07FF80
FE0FFF80
FE0FFF00
FE0FFC00
00004000
ENDCHAR
STARTCHAR 014B
ENCODING 331
SWIDTH 607 0
DWIDTH 27 0
BBX 21 33 3 -9
BITMAP
000400
FC7FC0
FCFFE0
FDFFF0
FFFFF0
FF87F8
FF03F8
FE01F8
FE01F8
FC01F8
FC01F8
FC01F8
FC01F8
FC01F8
FC01F8
FC01F8
FC01F8
FC01F8
FC01F8
FC01F8
FC01F8
FC01F8
FC01F8
FC01F8
0001F8
0001F8
0001F8
0013F8
001FF8
001FF8
003FF0
003FE0
003FC0
ENDCHAR
STARTCHAR 014C
ENCODING 332
SWIDTH 787 0
DWIDTH 35 0
BBX 31 40 2 -1
BITMAP
00FFFC00
00FFFC00
00FFFC00
00FFFC00
00000000
00000000
00000000
003FF800
01FFFE00
03FFFF80
07FFFFC0
0FFFFFE0
1FF83FF0
3FE00FF8
3F8007F8
7F0003FC
7F0001FC
7E0001FC
FE0000FC
FE0000FE
FE0000FE
FE0000FE
FE0000FE
FE0000FE
FE0000FE
FE0000FE
FE0000FE
FE0000FC
7E0001FC
7F0001FC
7F0003FC
3F8007F8
3FC00FF8
1FF01FF0
1FFFFFE0
0FFFFFC0
03FFFF80
01FFFF00
007FFC00
00010000
ENDCHAR
STARTCHAR 014D
ENCODING 333
SWIDTH 607 0
DWIDTH 27 0
BBX 24 32 2 -1
BITMAP
07FFE0
07FFE0
07FFE0
07FFE0
000000
000000
000000
001000
03FF80
07FFE0
1FFFF0
3FFFF8
3FEFFC
7F01FC
7E00FE
FE00FE
FC007E
FC007E
FC007F
FC007F
FC007F
FC007E
FC007E
FE007E
7F00FE
7F81FC
3FEFF8
3FFFF8
1FFFF0
07FFC0
03FF80
001000
ENDCHAR
STARTCHAR 014E
ENCODING 334
SWIDTH 787 0
DWIDTH 35 0
BBX 31 42 2 -1
BITMAP
00E01C00
00701C00
00703800
007FF800
003FF000
001FE000
00000000
00000000
00000000
003FF800
01FFFE00
03FFFF80
07FFFFC0
0FFFFFE0
1FF83FF0
3FE00FF8
3F8007F8
7F0003FC
7F0001FC
7E0001FC
FE0000FC
FE0000FE
FE0000FE
FE0000FE
FE0000FE
FE0000FE
FE0000FE
FE0000FE
FE0000FE
FE0000FC
7E0001FC
7F0001FC
7F0003FC
3F8007F8
3FC00FF8
1FF01FF0
1FFFFFE0
0FFFFFC0
03FFFF80
01FFFF00
007FFC00
00010000
ENDCHAR
STARTCHAR 014F
ENCODING 335
SWIDTH 607 0
DWIDTH 27 0
BBX 24 33 2 -1
BITMAP
0701C0
0701C0
07C7C0
03FF80
01FF00
007C00
000000
000000
001000
03FF80
07FFE0
1FFFF0
3FFFF8
3FEFFC
7F01FC
7E00FE
FE00FE
FC007E
FC007E
FC007F
FC007F
FC007F
FC007E
FC007E
FE007E
7F00FE
7F81FC
3FEFF8
3FFFF8
1FFFF0
07FFC0
03FF80
001000
ENDCHAR
STARTCHAR 0150
ENCODING 336
SWIDTH 787 0
DWIDTH 35 0
BBX 31 41 2 -1
BITMAP
001F9F80
001F1F80
003F3F00
003E3E00
007C7C00
00787800
00000000
00000000
003FF800
01FFFE00
03FFFF80
07FFFFC0
0FFFFFE0
1FF83FF0
3FE00FF8
3F8007F8
7F0003FC
7F0001FC
7E0001FC
FE0000FC
FE0000FE
FE0000FE
FE0000FE
FE0000FE
FE0000FE
FE0000FE
FE0000FE
FE0000FE
FE0000FC
7E0001FC
7F0001FC
7F0003FC
3F8007F8
3FC00FF8
1FF01FF0
1FFFFFE0
0FFFFFC0
03FFFF80
01FFFF00
007FFC00
00010000
ENDCHAR
STARTCHAR 0151
ENCODING 337
SWIDTH 607 0
DWIDTH 27 0
BBX 24 33 2 -1
BITMAP
01F9F8
03F3F0
03E3E0
07C3C0
0787C0
0F0780
000000
000000
001000
03FF80
07FFE0
1FFFF0
3FFFF8
3FEFFC
7F01FC
7E00FE
FE00FE
FC007E
FC007E
FC007F
FC007F
FC007F
FC007E
FC007E
FE007E
7F00FE
7F81FC
3FEFF8
3FFFF8
1FFFF0
07FFC0
03FF80
001000
ENDCHAR
STARTCHAR 0152
ENCODING 338
SWIDTH 990 0
DWIDTH 44 0
BBX 41 33 2 -1
BITMAP
00FF07FFFF00
03FFC7FFFF00
0FFFF7FFFF00
1FFFF7FFFF00
1FFFFFFFFF00
3FE1FFFFFF00
7F807FC00000
7F003FC00000
7E001FC00000
FE001FC00000
FE000FC00000
FE000FC00000
FC000FC00000
FC000FFFFE00
FC000FFFFE00
FC000FFFFE00
FC000FFFFE00
FC000FFFFE00
FC000FC00000
FC000FC00000
FE000FC00000
FE000FC00000
FE001FC00000
7F001FC00000
7F003FC00000
7F803FC00000
3FE0FFC00000
3FFFFFFFFF80
1FFFF7FFFF80
0FFFF7FFFF80
07FFE7FFFF80
01FF87FFFF80
000800000000
ENDCHAR
STARTCHAR 0153
ENCODING 339
SWIDTH 945 0
DWIDTH 42 0
BBX 38 25 2 -1
BITMAP
0010001000
03FF81FF00
07FFC7FFC0
1FFFFFFFE0
1FFFFFFFF0
3FFFFF83F0
7F81FF01F8
7F00FF00F8
7E00FE00FC
FE007E00FC
FC007FFFFC
FC007FFFFC
FC007FFFFC
FC007FFFFC
FC007E0000
FE007E0000
FE00FE0000
7F00FF00F8
7F81FF81F8
3FFFFFC3F8
1FFFFFFFF0
0FFFEFFFF0
07FFC7FFC0
01FF01FF80
0010001000
ENDCHAR
STARTCHAR 0154
ENCODING 340
SWIDTH 720 0
DWIDTH 32 0
BBX 29 40 3 0
BITMAP
003F8000
007F0000
007E0000
00FC0000
00F80000
00F00000
00000000
00000000
FFFFE000
FFFFFC00
FFFFFF00
FFFFFF00
FFFFFF80
FFFFFFC0
FE003FC0
FE001FC0
FE000FC0
FE000FC0
FE000FC0
FE001FC0
FE001FC0
FE03FF80
FFFFFF80
FFFFFF00
FFFFFC00
FFFFF000
FFFFE000
FE0FF000
FE07F800
FE03FC00
FE01FE00
FE01FF00
FE00FF00
FE007F80
FE007F80
FE003FC0
FE001FE0
FE001FE0
FE000FF0
FE0007F8
ENDCHAR
STARTCHAR 0155
ENCODING 341
SWIDTH 382 0
DWIDTH 17 0
BBX 15 32 3 0
BITMAP
03F0
07E0
07C0
0F80
0F00
1E00
0000
0000
0020
FCFE
FDFE
FFFC
FFFC
FFF8
FF08
FE00
FE00
FC00
FC00
FC00
FC00
FC00
FC00
FC00
FC00
FC00
FC00
FC00
FC00
FC00
FC00
FC00
ENDCHAR
STARTCHAR 0156
ENCODING 342
SWIDTH 720 0
DWIDTH 32 0
BBX 29 41 3 -9
BITMAP
FFFFE000
FFFFFC00
FFFFFF00
FFFFFF00
FFFFFF80
FFFFFFC0
FE003FC0
FE001FC0
FE000FC0
FE000FC0
FE000FC0
FE001FC0
FE001FC0
FE03FF80
FFFFFF80
FFFFFF00
FFFFFC00
FFFFF000
FFFFE000
FE0FF000
FE07F800
FE03FC00
FE01FE00
FE01FF00
FE00FF00
FE007F80
FE007F80
FE003FC0
FE001FE0
FE001FE0
FE000FF0
FE0007F8
00180000
003F8000
003FC000
0007C000
0003C000
0003C000
03FFC000
03FF8000
03FE0000
ENDCHAR
STARTCHAR 0157
ENCODING 343
SWIDTH 382 0
DWIDTH 17 0
BBX 17 33 1 -9
BITMAP
000800
3F3F80
3F7F80
3FFF00
3FFF00
3FFE00
3FC200
3F8000
3F8000
3F0000
3F0000
3F0000
3F0000
3F0000
3F0000
3F0000
3F0000
3F0000
3F0000
3F0000
3F0000
3F0000
3F0000
3F0000
040000
1FC000
1FE000
01F000
01F000
01F000
FFE000
FFC000
FF0000
ENDCHAR
STARTCHAR 0158
ENCODING 344
SWIDTH 720 0
DWIDTH 32 0
BBX 29 40 3 0
BITMAP
0F87C000
07CF8000
07DF0000
03FF0000
01FE0000
01FC0000
00000000
00000000
FFFFE000
FFFFFC00
FFFFFF00
FFFFFF00
FFFFFF80
FFFFFFC0
FE003FC0
FE001FC0
FE000FC0
FE000FC0
FE000FC0
FE001FC0
FE001FC0
FE03FF80
FFFFFF80
FFFFFF00
FFFFFC00
FFFFF000
FFFFE000
FE0FF000
FE07F800
FE03FC00
FE01FE00
FE01FF00
FE00FF00
FE007F80
FE007F80
FE003FC0
FE001FE0
FE001FE0
FE000FF0
FE0007F8
ENDCHAR
STARTCHAR 0159
ENCODING 345
SWIDTH 382 0
DWIDTH 17 0
BBX 16 32 2 0
BITMAP
F87C
7CF8
3FF0
3FF0
1FE0
0FC0
0000
0000
0010
7E7F
7EFF
7FFE
7FFE
7FFC
7F84
7F00
7F00
7E00
7E00
7E00
7E00
7E00
7E00
7E00
7E00
7E00
7E00
7E00
7E00
7E00
7E00
7E00
ENDCHAR
STARTCHAR 015A
ENCODING 346
SWIDTH 675 0
DWIDTH 30 0
BBX 25 41 2 -1
BITMAP
0007E000
000FC000
000F8000
001F0000
001F0000
003E0000
00000000
00000000
01FFC000
07FFF000
1FFFFC00
1FFFFE00
3FFFFE00
7F81FF00
7E007F00
7E007F00
7E003F80
7E003000
7F800000
7FE00000
3FFE0000
3FFFE000
1FFFF800
0FFFFC00
03FFFE00
007FFF00
0007FF80
0000FF80
00003F80
7C001F80
FC001F80
FE001F80
FE001F80
7F003F80
7FC0FF80
3FFFFF00
3FFFFF00
1FFFFE00
0FFFF800
03FFE000
001C0000
ENDCHAR
STARTCHAR 015B
ENCODING 347
SWIDTH 562 0
DWIDTH 25 0
BBX 22 33 1 -1
BITMAP
001FC0
001F80
001F00
003E00
003C00
007800
000000
000000
002000
07FF80
1FFFC0
3FFFE0
3FFFF0
7E03F0
7E01F8
7E0100
7F8000
7FF800
3FFF00
3FFFE0
1FFFF0
07FFF8
00FFF8
000FF8
0001FC
FE01FC
FE01F8
7F03F8
7FFFF0
3FFFF0
1FFFE0
07FF80
001000
ENDCHAR
STARTCHAR 015C
ENCODING 348
SWIDTH 675 0
DWIDTH 30 0
BBX 25 42 2 -1
BITMAP
003F0000
007F8000
00FF8000
01F7C000
01F3E000
03E1F000
00000000
00000000
00000000
01FFC000
07FFF000
1FFFFC00
1FFFFE00
3FFFFE00
7F81FF00
7E007F00
7E007F00
7E003F80
7E003000
7F800000
7FE00000
3FFE0000
3FFFE000
1FFFF800
0FFFFC00
03FFFE00
007FFF00
0007FF80
0000FF80
00003F80
7C001F80
FC001F80
FE001F80
FE001F80
7F003F80
7FC0FF80
3FFFFF00
3FFFFF00
1FFFFE00
0FFFF800
03FFE000
001C0000
ENDCHAR
STARTCHAR 015D
ENCODING 349
SWIDTH 562 0
DWIDTH 25 0
BBX 22 33 1 -1
BITMAP
00FE00
01FF00
01FF00
03EF80
07C7C0
0F87C0
000000
000000
002000
07FF80
1FFFC0
3FFFE0
3FFFF0
7E03F0
7E01F8
7E0100
7F8000
7FF800
3FFF00
3FFFE0
1FFFF0
07FFF8
00FFF8
000FF8
0001FC
FE01FC
FE01F8
7F03F8
7FFFF0
3FFFF0
1FFFE0
07FF80
001000
ENDCHAR
STARTCHAR 015E
ENCODING 350
SWIDTH 675 0
DWIDTH 30 0
BBX 25 41 2 -9
BITMAP
01FFC000
07FFF000
1FFFFC00
1FFFFE00
3FFFFE00
7F81FF00
7E007F00
7E007F00
7E003F80
7E003000
7F800000
7FE00000
3FFE0000
3FFFE000
1FFFF800
0FFFFC00
03FFFE00
007FFF00
0007FF80
0000FF80
00003F80
7C001F80
FC001F80
FE001F80
FE001F80
7F003F80
7FC0FF80
3FFFFF00
3FFFFF00
1FFFFE00
0FFFF800
03FFE000
001E0000
007F8000
007FC000
0003E000
0001E000
0003E000
01FFC000
01FF8000
01FE0000
ENDCHAR
STARTCHAR 015F
ENCODING 351
SWIDTH 562 0
DWIDTH 25 0
BBX 22 33 1 -9
BITMAP
002000
07FF80
1FFFC0
3FFFE0
3FFFF0
7E03F0
7E01F8
7E0100
7F8000
7FF800
3FFF00
3FFFE0
1FFFF0
07FFF8
00FFF8
000FF8
0001FC
FE01FC
FE01F8
7F03F8
7FFFF0
3FFFF0
1FFFE0
07FF80
003C00
00FF00
00FF80
0007C0
0003C0
0007C0
03FF80
03FF00
03FC00
ENDCHAR
STARTCHAR 0160
ENCODING 352
SWIDTH 675 0
DWIDTH 30 0
BBX 25 41 2 -1
BITMAP
03E1E000
03E3E000
01F7C000
00FF8000
007F8000
007F0000
00000000
00000000
01FFC000
07FFF000
1FFFFC00
1FFFFE00
3FFFFE00
7F81FF00
7E007F00
7E007F00
7E003F80
7E003000
7F800000
7FE00000
3FFE0000
3FFFE000
1FFFF800
0FFFFC00
03FFFE00
007FFF00
0007FF80
0000FF80
00003F80
7C001F80
FC001F80
FE001F80
FE001F80
7F003F80
7FC0FF80
3FFFFF00
3FFFFF00
1FFFFE00
0FFFF800
03FFE000
001C0000
ENDCHAR
STARTCHAR 0161
ENCODING 353
SWIDTH 562 0
DWIDTH 25 0
BBX 22 33 1 -1
BITMAP
0F87C0
07CF80
07DF00
03FE00
01FE00
00FC00
000000
000000
002000
07FF80
1FFFC0
3FFFE0
3FFFF0
7E03F0
7E01F8
7E0100
7F8000
7FF800
3FFF00
3FFFE0
1FFFF0
07FFF8
00FFF8
000FF8
0001FC
FE01FC
FE01F8
7F03F8
7FFFF0
3FFFF0
1FFFE0
07FF80
001000
ENDCHAR
STARTCHAR 0162
ENCODING 354
SWIDTH 607 0
DWIDTH 27 0
BBX 25 46 1 -14
BITMAP
FFFFFF80
FFFFFF80
FFFFFF80
FFFFFF80
FFFFFF80
FFFFFF80
007F0000
007F0000
007F0000
007F0000
007F0000
007F0000
007F0000
007F0000
007F0000
007F0000
007F0000
007F0000
007F0000
007F0000
007F0000
007F0000
007F0000
007F0000
007F0000
007F0000
007F0000
007F0000
007F0000
007F0000
007F0000
007F0000
00000000
00000000
00000000
003F0000
003F0000
003F0000
003F0000
003F0000
003F0000
000E0000
001E0000
003C0000
00380000
00300000
ENDCHAR
STARTCHAR 0163
ENCODING 355
SWIDTH 337 0
DWIDTH 15 0
BBX 13 44 1 -13
BITMAP
0180
0380
0F80
3F80
3F80
3F80
3F80
3F80
FFF8
FFF8
FFF8
FFF8
FFF8
3F80
3F80
3F80
3F80
3F80
3F80
3F80
3F80
3F80
3F80
3F80
3F80
1F80
1FF8
1FF8
1FF8
1FF8
07F8
0080
0000
0000
07C0
07C0
07C0
07C0
07C0
01C0
01C0
0780
0700
0600
ENDCHAR
STARTCHAR 0164
ENCODING 356
SWIDTH 607 0
DWIDTH 27 0
BBX 25 40 1 0
BITMAP
07C3E000
03E7C000
01F7C000
00FF8000
00FF0000
007F0000
00000000
00000000
FFFFFF80
FFFFFF80
FFFFFF80
FFFFFF80
FFFFFF80
FFFFFF80
007F0000
007F0000
007F0000
007F0000
007F0000
007F0000
007F0000
007F0000
007F0000
007F0000
007F0000
007F0000
007F0000
007F0000
007F0000
007F0000
007F0000
007F0000
007F0000
007F0000
007F0000
007F0000
007F0000
007F0000
007F0000
007F0000
ENDCHAR
STARTCHAR 0165
ENCODING 357
SWIDTH 472 0
DWIDTH 21 0
BBX 20 33 1 -1
BITMAP
0001F0
0181F0
0381F0
0F81F0
3F81F0
3F81F0
3F8070
3F8070
3F8070
FFF9E0
FFF9C0
FFF980
FFF800
FFF800
3F8000
3F8000
3F8000
3F8000
3F8000
3F8000
3F8000
3F8000
3F8000
3F8000
3F8000
3F8000
3F8000
1FF800
1FF800
1FF800
1FF800
0FF800
008000
ENDCHAR
STARTCHAR 0166
ENCODING 358
SWIDTH 607 0
DWIDTH 27 0
BBX 25 32 1 0
BITMAP
FFFFFF80
FFFFFF80
FFFFFF80
FFFFFF80
FFFFFF80
FFFFFF80
007F0000
007F0000
007F0000
007F0000
007F0000
007F0000
007F0000
007F0000
007F0000
007F0000
1FFFFE00
1FFFFE00
1FFFFE00
1FFFFE00
007F0000
007F0000
007F0000
007F0000
007F0000
007F0000
007F0000
007F0000
007F0000
007F0000
007F0000
007F0000
ENDCHAR
STARTCHAR 0167
ENCODING 359
SWIDTH 337 0
DWIDTH 15 0
BBX 14 31 0 -1
BITMAP
0080
0380
0780
1F80
1F80
1F80
1F80
1F80
FFF8
FFF8
FFF8
FFF8
FFF8
1F80
1F80
1F80
1F80
1F80
FFF8
FFF8
FFF8
FFF8
1F80
1F80
1F80
1F80
1FFC
1FFC
0FFC
0FFC
07FC
ENDCHAR
STARTCHAR 0168
ENCODING 360
SWIDTH 720 0
DWIDTH 32 0
BBX 26 41 3 -1
BITMAP
01F07000
03FEF000
03FFF000
07FFF000
0707E000
00000000
00000000
00000000
FE001FC0
FE001FC0
FE001FC0
FE001FC0
FE001FC0
FE001FC0
FE001FC0
FE001FC0
FE001FC0
FE001FC0
FE001FC0
FE001FC0
FE001FC0
FE001FC0
FE001FC0
FE001FC0
FE001FC0
FE001FC0
FE001FC0
FE001FC0
FE001FC0
FE001F80
FE001F80
7E001F80
7F003F80
7F003F80
7FC0FF80
3FFFFF00
3FFFFE00
1FFFFE00
07FFF800
03FFF000
000C0000
ENDCHAR
STARTCHAR 0169
ENCODING 361
SWIDTH 607 0
DWIDTH 27 0
BBX 21 33 3 -1
BITMAP
0301C0
0FE1C0
1FFFC0
1FFF80
1C7F80
1C0E00
000000
000000
000000
FC01F8
FC01F8
FC01F8
FC01F8
FC01F8
FC01F8
FC01F8
FC01F8
FC01F8
FC01F8
FC01F8
FC01F8
FC01F8
FC01F8
FC01F8
FC01F8
FC03F8
FE07F8
7F0FF8
7FFFF8
7FFFF8
3FFDF8
0FF1F8
010000
ENDCHAR
STARTCHAR 016A
ENCODING 362
SWIDTH 720 0
DWIDTH 32 0
BBX 26 40 3 -1
BITMAP
03FFF000
03FFF000
03FFF000
03FFF000
00000000
00000000
00000000
FE001FC0
FE001FC0
FE001FC0
FE001FC0
FE001FC0
FE001FC0
FE001FC0
FE001FC0
FE001FC0
FE001FC0
FE001FC0
FE001FC0
FE001FC0
FE001FC0
FE001FC0
FE001FC0
FE001FC0
FE001FC0
FE001FC0
FE001FC0
FE001FC0
FE001F80
FE001F80
7E001F80
7F003F80
7F003F80
7FC0FF80
3FFFFF00
3FFFFE00
1FFFFE00
07FFF800
03FFF000
000C0000
ENDCHAR
STARTCHAR 016B
ENCODING 363
SWIDTH 607 0
DWIDTH 27 0
BBX 21 32 3 -1
BITMAP
0FFFC0
0FFFC0
0FFFC0
0FFFC0
000000
000000
000000
000000
FC01F8
FC01F8
FC01F8
FC01F8
FC01F8
FC01F8
FC01F8
FC01F8
FC01F8
FC01F8
FC01F8
FC01F8
FC01F8
FC01F8
FC01F8
FC01F8
FC03F8
FE07F8
7F0FF8
7FFFF8
7FFFF8
3FFDF8
0FF1F8
010000
ENDCHAR
STARTCHAR 016C
ENCODING 364
SWIDTH 720 0
DWIDTH 32 0
BBX 26 42 3 -1
BITMAP
03807000
03C0F000
01C0E000
01FFE000
00FFC000
007F8000
00000000
00000000
00000000
FE001FC0
FE001FC0
FE001FC0
FE001FC0
FE001FC0
FE001FC0
FE001FC0
FE001FC0
FE001FC0
FE001FC0
FE001FC0
FE001FC0
FE001FC0
FE001FC0
FE001FC0
FE001FC0
FE001FC0
FE001FC0
FE001FC0
FE001FC0
FE001FC0
FE001F80
FE001F80
7E001F80
7F003F80
7F003F80
7FC0FF80
3FFFFF00
3FFFFE00
1FFFFE00
07FFF800
03FFF000
000C0000
ENDCHAR
STARTCHAR 016D
ENCODING 365
SWIDTH 607 0
DWIDTH 27 0
BBX 21 33 3 -1
BITMAP
0E0380
0E0380
0F8F80
07FF00
03FE00
00F800
000000
000000
000000
FC01F8
FC01F8
FC01F8
FC01F8
FC01F8
FC01F8
FC01F8
FC01F8
FC01F8
FC01F8
FC01F8
FC01F8
FC01F8
FC01F8
FC01F8
FC01F8
FC03F8
FE07F8
7F0FF8
7FFFF8
7FFFF8
3FFDF8
0FF1F8
010000
ENDCHAR
STARTCHAR 016E
ENCODING 366
SWIDTH 720 0
DWIDTH 32 0
BBX 26 42 3 -1
BITMAP
001E0000
003F0000
007F8000
00618000
00618000
00638000
007F8000
003F0000
000C0000
FE001FC0
FE001FC0
FE001FC0
FE001FC0
FE001FC0
FE001FC0
FE001FC0
FE001FC0
FE001FC0
FE001FC0
FE001FC0
FE001FC0
FE001FC0
FE001FC0
FE001FC0
FE001FC0
FE001FC0
FE001FC0
FE001FC0
FE001FC0
FE001FC0
FE001F80
FE001F80
7E001F80
7F003F80
7F003F80
7FC0FF80
3FFFFF00
3FFFFE00
1FFFFE00
07FFF800
03FFF000
000C0000
ENDCHAR
STARTCHAR 016F
ENCODING 367
SWIDTH 607 0
DWIDTH 27 0
BBX 21 34 3 -1
BITMAP
00F800
01FC00
018E00
038E00
038E00
01CC00
01FC00
00F800
000000
000000
FC01F8
FC01F8
FC01F8
FC01F8
FC01F8
FC01F8
FC01F8
FC01F8
FC01F8
FC01F8
FC01F8
FC01F8
FC01F8
FC01F8
FC01F8
FC01F8
FC03F8
FE07F8
7F0FF8
7FFFF8
7FFFF8
3FFDF8
0FF1F8
010000
ENDCHAR
STARTCHAR 0170
ENCODING 368
SWIDTH 720 0
DWIDTH 32 0
BBX 26 41 3 -1
BITMAP
007E7E00
00FC7C00
00F8F800
01F0F800
01F1F000
01E1E000
00000000
00000000
FE001FC0
FE001FC0
FE001FC0
FE001FC0
FE001FC0
FE001FC0
FE001FC0
FE001FC0
FE001FC0
FE001FC0
FE001FC0
FE001FC0
FE001FC0
FE001FC0
FE001FC0
FE001FC0
FE001FC0
FE001FC0
FE001FC0
FE001FC0
FE001FC0
FE001F80
FE001F80
7E001F80
7F003F80
7F003F80
7FC0FF80
3FFFFF00
3FFFFE00
1FFFFE00
07FFF800
03FFF000
000C0000
ENDCHAR
STARTCHAR 0171
ENCODING 369
SWIDTH 607 0
DWIDTH 27 0
BBX 21 33 3 -1
BITMAP
03F9F8
03F3F0
03E3E0
07C7C0
078780
0F0F00
000000
000000
000000
FC01F8
FC01F8
FC01F8
FC01F8
FC01F8
FC01F8
FC01F8
FC01F8
FC01F8
FC01F8
FC01F8
FC01F8
FC01F8
FC01F8
FC01F8
FC01F8
FC03F8
FE07F8
7F0FF8
7FFFF8
7FFFF8
3FFDF8
0FF1F8
010000
ENDCHAR
STARTCHAR 0172
ENCODING 370
SWIDTH 720 0
DWIDTH 32 0
BBX 26 41 3 -9
BITMAP
FE001FC0
FE001FC0
FE001FC0
FE001FC0
FE001FC0
FE001FC0
FE001FC0
FE001FC0
FE001FC0
FE001FC0
FE001FC0
FE001FC0
FE001FC0
FE001FC0
FE001FC0
FE001FC0
FE001FC0
FE001FC0
FE001FC0
FE001FC0
FE001FC0
FE001F80
FE001F80
7E001F80
7F003F80
7F003F80
7FC0FF80
3FFFFF00
3FFFFF00
1FFFFE00
07FFF800
03FFE000
001C0000
003C0000
003C0000
003C0000
003C0000
003E0000
003FF000
001FF000
000FF000
ENDCHAR
STARTCHAR 0173
ENCODING 371
SWIDTH 607 0
DWIDTH 27 0
BBX 24 32 3 -9
BITMAP
FC01F8
FC01F8
FC01F8
FC01F8
FC01F8
FC01F8
FC01F8
FC01F8
FC01F8
FC01F8
FC01F8
FC01F8
FC01F8
FC01F8
FC01F8
FC01F8
FC03F8
FE07F8
FF0FF8
7FFFF8
7FFFF8
3FFDF8
1FF1F8
0101C0
0001C0
0001C0
0001C0
0001E0
0001F0
0001FF
0000FF
00007F
ENDCHAR
STARTCHAR 0174
ENCODING 372
SWIDTH 945 0
DWIDTH 42 0
BBX 42 41 0 0
BITMAP
00003F000000
00007F800000
0000FFC00000
0000FFC00000
0001F3E00000
0003E1F00000
000000000000
000000000000
000000000000
FE007F801FC0
FE007F801FC0
7E007FC01F80
7E00FFC01F80
7F00FFC03F80
7F00FFC03F80
3F00FFE03F00
3F01FFE03F00
3F81FFE03F00
3F81FFE07F00
1F81F3F07E00
1F83F3F07E00
1F83F3F07E00
1FC3F3F07E00
0FC3E1F8FC00
0FC7E1F8FC00
0FC7E1F8FC00
0FE7E1F8FC00
07EFC0FDF800
07EFC0FDF800
07EFC0FDF800
07EF807DF800
07FF807FF000
03FF807FF000
03FF807FF000
03FF003FF000
03FF003FF000
01FF003FE000
01FF003FE000
01FE001FE000
01FE001FE000
00FE001FC000
ENDCHAR
STARTCHAR 0175
ENCODING 373
SWIDTH 787 0
DWIDTH 35 0
BBX 34 32 0 0
BITMAP
0003F80000
0007F80000
000FFC0000
000FBE0000
001F3F0000
003E1F0000
0000000000
0000000000
0000000000
FC03F00FC0
7E03F80FC0
7E03F80FC0
7E07F81F80
3E07F81F80
3F07FC1F80
3F07FC1F00
1F0FFC3F00
1F8FFC3F00
1F8FBE3E00
0F8FBE7E00
0F9F3E7E00
0FDF3E7E00
0FDF1F7C00
07DF1FFC00
07FE1FFC00
07FE0FF800
03FE0FF800
03FE0FF800
03FC0FF000
01FC07F000
01FC07F000
01FC07E000
ENDCHAR
STARTCHAR 0176
ENCODING 374
SWIDTH 675 0
DWIDTH 30 0
BBX 29 41 0 0
BITMAP
000FC000
001FE000
003FF000
003FF000
007CF800
00F87C00
00000000
00000000
00000000
FF0003F8
7F0003F8
7F8007F0
3F800FF0
1FC00FE0
1FE01FC0
0FE01FC0
07F03F80
07F07F00
03F87F00
03FCFE00
01FCFE00
00FFFC00
00FFF800
007FF800
003FF000
003FE000
001FE000
001FC000
000FC000
000FC000
000FC000
000FC000
000FC000
000FC000
000FC000
000FC000
000FC000
000FC000
000FC000
000FC000
000FC000
ENDCHAR
STARTCHAR 0177
ENCODING 375
SWIDTH 562 0
DWIDTH 25 0
BBX 24 41 0 -9
BITMAP
007F00
00FF80
00FF80
01F7C0
03E3E0
07C3E0
000000
000000
000000
FE007F
7E007E
7F007E
3F007E
3F00FC
3F80FC
1F80FC
1F81F8
0FC1F8
0FC1F0
0FC3F0
07E3F0
07E3E0
07E7E0
03F7E0
03F7C0
01FFC0
01FFC0
01FF80
00FF80
00FF00
00FF00
007F00
007E00
007E00
00FE00
01FC00
3FFC00
3FF800
3FF800
3FF000
3FC000
ENDCHAR
STARTCHAR 0178
ENCODING 376
SWIDTH 675 0
DWIDTH 30 0
BBX 29 39 0 0
BITMAP
00F87C00
00F87C00
00F87C00
00F87C00
00F87C00
00000000
00000000
FF0003F8
7F0003F8
7F8007F0
3F800FF0
1FC00FE0
1FE01FC0
0FE01FC0
07F03F80
07F07F00
03F87F00
03FCFE00
01FCFE00
00FFFC00
00FFF800
007FF800
003FF000
003FE000
001FE000
001FC000
000FC000
000FC000
000FC000
000FC000
000FC000
000FC000
000FC000
000FC000
000FC000
000FC000
000FC000
000FC000
000FC000
ENDCHAR
STARTCHAR 0179
ENCODING 377
SWIDTH 607 0
DWIDTH 27 0
BBX 26 40 0 0
BITMAP
000FE000
000FC000
001F8000
001F0000
003E0000
003C0000
00000000
00000000
3FFFFFC0
3FFFFFC0
3FFFFFC0
3FFFFFC0
3FFFFFC0
3FFFFF80
0000FF80
0000FF00
0001FE00
0003FC00
0007F800
000FF800
000FF000
001FE000
003FC000
007F8000
00FF0000
00FF0000
01FE0000
03FC0000
07F80000
0FF00000
1FF00000
1FE00000
3FC00000
7F800000
FF000000
FFFFFFC0
FFFFFFC0
FFFFFFC0
FFFFFFC0
FFFFFFC0
ENDCHAR
STARTCHAR 017A
ENCODING 378
SWIDTH 495 0
DWIDTH 22 0
BBX 20 32 1 0
BITMAP
00FE00
00FC00
00F800
01F000
01E000
03C000
000000
000000
000000
7FFFF0
7FFFF0
7FFFF0
7FFFF0
7FFFE0
001FE0
003FC0
007F80
00FF00
01FE00
03FC00
03F800
07F000
0FF000
1FE000
3FC000
7F8000
FF0000
FFFFF0
FFFFF0
FFFFF0
FFFFF0
FFFFF0
ENDCHAR
STARTCHAR 017B
ENCODING 379
SWIDTH 607 0
DWIDTH 27 0
BBX 26 40 0 0
BITMAP
001F8000
001F8000
001F8000
001F8000
001F8000
001F8000
00000000
00000000
3FFFFFC0
3FFFFFC0
3FFFFFC0
3FFFFFC0
3FFFFFC0
3FFFFF80
0000FF80
0000FF00
0001FE00
0003FC00
0007F800
000FF800
000FF000
001FE000
003FC000
007F8000
00FF0000
00FF0000
01FE0000
03FC0000
07F80000
0FF00000
1FF00000
1FE00000
3FC00000
7F800000
FF000000
FFFFFFC0
FFFFFFC0
FFFFFFC0
FFFFFFC0
FFFFFFC0
ENDCHAR
STARTCHAR 017C
ENCODING 380
SWIDTH 495 0
DWIDTH 22 0
BBX 20 32 1 0
BITMAP
01F800
01F800
01F800
01F800
01F800
000000
000000
000000
000000
7FFFF0
7FFFF0
7FFFF0
7FFFF0
7FFFE0
001FE0
003FC0
007F80
00FF00
01FE00
03FC00
03F800
07F000
0FF000
1FE000
3FC000
7F8000
FF0000
FFFFF0
FFFFF0
FFFFF0
FFFFF0
FFFFF0
ENDCHAR
STARTCHAR 017D
ENCODING 381
SWIDTH 607 0
DWIDTH 27 0
BBX 26 40 0 0
BITMAP
03E1F000
01F3E000
00FBE000
00FFC000
007F8000
003F8000
00000000
00000000
3FFFFFC0
3FFFFFC0
3FFFFFC0
3FFFFFC0
3FFFFFC0
3FFFFF80
0000FF80
0000FF00
0001FE00
0003FC00
0007F800
000FF800
000FF000
001FE000
003FC000
007F8000
00FF0000
00FF0000
01FE0000
03FC0000
07F80000
0FF00000
1FF00000
1FE00000
3FC00000
7F800000
FF000000
FFFFFFC0
FFFFFFC0
FFFFFFC0
FFFFFFC0
FFFFFFC0
ENDCHAR
STARTCHAR 017E
ENCODING 382
SWIDTH 495 0
DWIDTH 22 0
BBX 20 32 1 0
BITMAP
1F0F80
0F9F00
07FE00
07FE00
03FC00
01F800
000000
000000
000000
7FFFF0
7FFFF0
7FFFF0
7FFFF0
7FFFE0
001FE0
003FC0
007F80
00FF00
01FE00
03FC00
03F800
07F000
0FF000
1FE000
3FC000
7F8000
FF0000
FFFFF0
FFFFF0
FFFFF0
FFFFF0
FFFFF0
ENDCHAR
STARTCHAR 017F
ENCODING 383
SWIDTH 270 0
DWIDTH 12 0
BBX 12 32 3 0
BITMAP
1FF0
3FF0
7FF0
FFF0
FE20
FC00
FC00
FC00
FC00
FC00
FC00
FC00
FC00
FC00
FC00
FC00
FC00
FC00
FC00
FC00
FC00
FC00
FC00
FC00
FC00
FC00
FC00
FC00
FC00
FC00
FC00
FC00
ENDCHAR
STARTCHAR 018F
ENCODING 399
SWIDTH 720 0
DWIDTH 32 0
BBX 28 33 2 -1
BITMAP
00FFE000
03FFF800
07FFFE00
0FFFFF00
1FFFFF80
3FF0FFC0
3FC03FC0
7F801FE0
7F000FE0
1E0007F0
000007F0
000007F0
000003F0
FFFFFFF0
FFFFFFF0
FFFFFFF0
FFFFFFF0
FFFFFFF0
FFFFFFF0
FE0003F0
FE0007F0
7E0007F0
7F0007F0
7F000FE0
3F800FE0
3FC01FC0
1FE07FC0
1FFFFF80
0FFFFF00
07FFFE00
01FFFC00
00FFF000
00060000
ENDCHAR
STARTCHAR 0192
ENCODING 402
SWIDTH 562 0
DWIDTH 25 0
BBX 25 41 0 -9
BITMAP
0001FF80
0007FF80
0007FF00
000FFF00
000FFF00
000FC000
000FC000
001FC000
001F8000
01FFFC00
01FFFC00
03FFF800
03FFF800
03FFF800
003F0000
003F0000
003F0000
003F0000
003F0000
007E0000
007E0000
007E0000
007E0000
007E0000
00FE0000
00FC0000
00FC0000
00FC0000
00FC0000
00FC0000
01FC0000
01F80000
01F80000
01F80000
01F80000
03F80000
7FF00000
FFF00000
FFF00000
FFE00000
FFC00000
ENDCHAR
STARTCHAR 01A0
ENCODING 416
SWIDTH 855 0
DWIDTH 38 0
BBX 36 33 2 -1
BITMAP
003FF803F0
01FFFE03F0
03FFFF83F0
07FFFFC3F0
0FFFFFE3F0
1FF83FF3F0
3FE00FF870
3F8007F870
7F0003F8F0
7F0001FCE0
7E0001FFE0
FE0000FFC0
FE0000FF00
FE0000FE00
FE0000FE00
FE0000FE00
FE0000FE00
FE0000FE00
FE0000FE00
FE0000FE00
FE0000FC00
7E0001FC00
7F0001FC00
7F0003FC00
3F8003F800
3FC00FF800
1FF01FF000
1FFFFFE000
0FFFFFC000
03FFFF8000
01FFFF0000
007FFC0000
0001000000
ENDCHAR
STARTCHAR 01A1
ENCODING 417
SWIDTH 720 0
DWIDTH 32 0
BBX 30 25 2 -1
BITMAP
00100000
03FF81FC
07FFE1FC
1FFFF1FC
1FFFF9FC
3FEFFDFC
7F01FDFC
7E00FE3C
FE00FE38
FC007E38
FC007E78
FC007FF0
FC007FE0
FC007FC0
FC007E00
FC007E00
FE00FE00
7F00FE00
7F01FC00
3FEFF800
3FFFF800
1FFFF000
07FFC000
03FF8000
00100000
ENDCHAR
STARTCHAR 01AF
ENCODING 431
SWIDTH 832 0
DWIDTH 37 0
BBX 34 33 3 -1
BITMAP
FE001FCFC0
FE001FCFC0
FE001FCFC0
FE001FCFC0
FE001FCFC0
FE001FCFC0
FE001FC1C0
FE001FC1C0
FE001FC380
FE001FC380
FE001FC780
FE001FFF00
FE001FFC00
FE001FF000
FE001FC000
FE001FC000
FE001FC000
FE001FC000
FE001FC000
FE001FC000
FE001FC000
FE001F8000
FE001F8000
7E001F8000
7F003F8000
7F003F8000
7FC0FF8000
3FFFFF0000
3FFFFE0000
1FFFFE0000
07FFF80000
01FFE00000
0004000000
ENDCHAR
STARTCHAR 01B0
ENCODING 432
SWIDTH 720 0
DWIDTH 32 0
BBX 29 24 3 -1
BITMAP
FC01F9F8
FC01F9F8
FC01F9F8
FC01F9F8
FC01F9F8
FC01F9F8
FC01F838
FC01F838
FC01F838
FC01F870
FC01F9F0
FC01FFE0
FC01FF80
FC01FC00
FC01F800
FC01F800
FE03F800
FE07F800
7F0FF800
7FFFF800
7FFFF800
3FFDF800
1FF1F800
01000000
ENDCHAR
STARTCHAR 01CD
ENCODING 461
SWIDTH 720 0
DWIDTH 32 0
BBX 32 40 0 0
BITMAP
007C3E00
003E7C00
003EF800
001FF800
000FF000
000FE000
00000000
00000000
000FE000
000FF000
001FF000
001FF800
001FF800
003FF800
003FFC00
003FFC00
007EFE00
007EFE00
00FE7E00
00FC7F00
00FC7F00
01FC3F80
01F83F80
03F81F80
03F01FC0
03F01FC0
07F00FE0
07FFFFE0
0FFFFFE0
0FFFFFF0
0FFFFFF0
1FFFFFF8
1FFFFFF8
1F8003F8
3F8001FC
3F0001FC
7F0000FE
7F0000FE
7E0000FE
FE00007F
ENDCHAR
STARTCHAR 01CE
ENCODING 462
SWIDTH 562 0
DWIDTH 25 0
BBX 21 33 2 -1
BITMAP
1F8F80
0F9F00
07DF00
03FE00
03FC00
01FC00
000000
000000
002000
0FFF00
1FFFC0
3FFFE0
7FFFE0
7F0FF0
FC03F0
1C03F0
0003F0
000FF0
00FFF0
0FFFF0
3FFFF0
7FF3F0
FF03F0
FC03F0
FC03F0
FC03F0
FC07F0
FE0FF0
FFFFF0
7FFFF0
3FF9F8
1FF1F8
010000
ENDCHAR
STARTCHAR 01CF
ENCODING 463
SWIDTH 270 0
DWIDTH 12 0
BBX 14 40 -1 0
BITMAP
F87C
7CF8
3EF8
3FF0
1FE0
0FE0
0000
0000
0FC0
0FC0
0FC0
0FC0
0FC0
0FC0
0FC0
0FC0
0FC0
0FC0
0FC0
0FC0
0FC0
0FC0
0FC0
0FC0
0FC0
0FC0
0FC0
0FC0
0FC0
0FC0
0FC0
0FC0
0FC0
0FC0
0FC0
0FC0
0FC0
0FC0
0FC0
0FC0
ENDCHAR
STARTCHAR 01D0
ENCODING 464
SWIDTH 270 0
DWIDTH 12 0
BBX 14 32 -1 0
BITMAP
F87C
7CF8
3FF8
1FF0
1FE0
0FC0
0000
0000
0000
0FC0
0FC0
0FC0
0FC0
0FC0
0FC0
0FC0
0FC0
0FC0
0FC0
0FC0
0FC0
0FC0
0FC0
0FC0
0FC0
0FC0
0FC0
0FC0
0FC0
0FC0
0FC0
0FC0
ENDCHAR
STARTCHAR 01D1
ENCODING 465
SWIDTH 787 0
DWIDTH 35 0
BBX 31 41 2 -1
BITMAP
00F87C00
007CF800
003EF800
001FF000
001FE000
000FE000
00000000
00000000
003FF800
01FFFE00
03FFFF80
07FFFFC0
0FFFFFE0
1FF83FF0
3FE00FF8
3F8007F8
7F0003FC
7F0001FC
7E0001FC
FE0000FC
FE0000FE
FE0000FE
FE0000FE
FE0000FE
FE0000FE
FE0000FE
FE0000FE
FE0000FE
FE0000FC
7E0001FC
7F0001FC
7F0003FC
3F8007F8
3FC00FF8
1FF01FF0
1FFFFFE0
0FFFFFC0
03FFFF80
01FFFF00
007FFC00
00010000
ENDCHAR
STARTCHAR 01D2
ENCODING 466
SWIDTH 607 0
DWIDTH 27 0
BBX 24 33 2 -1
BITMAP
07C7C0
03C7C0
03EF80
01FF00
00FF00
00FE00
000000
000000
001000
03FF80
07FFE0
1FFFF0
3FFFF8
3FEFFC
7F01FC
7E00FE
FE00FE
FC007E
FC007E
FC007F
FC007F
FC007F
FC007E
FC007E
FE007E
7F00FE
7F81FC
3FEFF8
3FFFF8
1FFFF0
07FFC0
03FF80
001000
ENDCHAR
STARTCHAR 01D3
ENCODING 467
SWIDTH 720 0
DWIDTH 32 0
BBX 26 41 3 -1
BITMAP
03E1F000
01F3E000
00FFC000
00FFC000
007F8000
003F0000
00000000
00000000
FE001FC0
FE001FC0
FE001FC0
FE001FC0
FE001FC0
FE001FC0
FE001FC0
FE001FC0
FE001FC0
FE001FC0
FE001FC0
FE001FC0
FE001FC0
FE001FC0
FE001FC0
FE001FC0
FE001FC0
FE001FC0
FE001FC0
FE001FC0
FE001FC0
FE001F80
FE001F80
7E001F80
7F003F80
7F003F80
7FC0FF80
3FFFFF00
3FFFFE00
1FFFFE00
07FFF800
03FFF000
000C0000
ENDCHAR
STARTCHAR 01D4
ENCODING 468
SWIDTH 607 0
DWIDTH 27 0
BBX 21 33 3 -1
BITMAP
0F8F80
078F80
07DF00
03FE00
01FE00
01FC00
000000
000000
000000
FC01F8
FC01F8
FC01F8
FC01F8
FC01F8
FC01F8
FC01F8
FC01F8
FC01F8
FC01F8
FC01F8
FC01F8
FC01F8
FC01F8
FC01F8
FC01F8
FC03F8
FE07F8
7F0FF8
7FFFF8
7FFFF8
3FFDF8
0FF1F8
010000
ENDCHAR
STARTCHAR 01D5
ENCODING 469
SWIDTH 720 0
DWIDTH 32 0
BBX 26 41 3 -1
BITMAP
01FFC000
01FFC000
01FFC000
00000000
01C1E000
01C1E000
01C1E000
01C1E000
FE001FC0
FE001FC0
FE001FC0
FE001FC0
FE001FC0
FE001FC0
FE001FC0
FE001FC0
FE001FC0
FE001FC0
FE001FC0
FE001FC0
FE001FC0
FE001FC0
FE001FC0
FE001FC0
FE001FC0
FE001FC0
FE001FC0
FE001FC0
FE001FC0
FE001F80
FE001F80
7E001F80
7F003F80
7F003F80
7FC0FF80
3FFFFF00
3FFFFE00
1FFFFE00
07FFF800
03FFF000
000C0000
ENDCHAR
STARTCHAR 01D6
ENCODING 470
SWIDTH 607 0
DWIDTH 27 0
BBX 21 41 3 -1
BITMAP
0FFFC0
0FFFC0
0FFFC0
0FFFC0
000000
000000
000000
000000
1F07C0
1F07C0
1F07C0
1F07C0
1F07C0
000000
000000
000000
000000
FC01F8
FC01F8
FC01F8
FC01F8
FC01F8
FC01F8
FC01F8
FC01F8
FC01F8
FC01F8
FC01F8
FC01F8
FC01F8
FC01F8
FC01F8
FC01F8
FC03F8
FE07F8
7F0FF8
7FFFF8
7FFFF8
3FFDF8
0FF1F8
010000
ENDCHAR
STARTCHAR 01D7
ENCODING 471
SWIDTH 720 0
DWIDTH 32 0
BBX 26 41 3 -1
BITMAP
0007C000
000F8000
000F0000
001C0000
01C1E000
01C1E000
01C1E000
01C1E000
FE001FC0
FE001FC0
FE001FC0
FE001FC0
FE001FC0
FE001FC0
FE001FC0
FE001FC0
FE001FC0
FE001FC0
FE001FC0
FE001FC0
FE001FC0
FE001FC0
FE001FC0
FE001FC0
FE001FC0
FE001FC0
FE001FC0
FE001FC0
FE001FC0
FE001F80
FE001F80
7E001F80
7F003F80
7F003F80
7FC0FF80
3FFFFF00
3FFFFE00
1FFFFE00
07FFF800
03FFF000
000C0000
ENDCHAR
STARTCHAR 01D8
ENCODING 472
SWIDTH 607 0
DWIDTH 27 0
BBX 21 41 3 -1
BITMAP
003F80
003F00
007E00
007C00
00F800
00F000
000000
000000
1F07C0
1F07C0
1F07C0
1F07C0
1F07C0
000000
000000
000000
000000
FC01F8
FC01F8
FC01F8
FC01F8
FC01F8
FC01F8
FC01F8
FC01F8
FC01F8
FC01F8
FC01F8
FC01F8
FC01F8
FC01F8
FC01F8
FC01F8
FC03F8
FE07F8
7F0FF8
7FFFF8
7FFFF8
3FFDF8
0FF1F8
010000
ENDCHAR
STARTCHAR 01D9
ENCODING 473
SWIDTH 720 0
DWIDTH 32 0
BBX 26 41 3 -1
BITMAP
01F3C000
00F78000
007F0000
003E0000
01C1E000
01C1E000
01C1E000
01C1E000
FE001FC0
FE001FC0
FE001FC0
FE001FC0
FE001FC0
FE001FC0
FE001FC0
FE001FC0
FE001FC0
FE001FC0
FE001FC0
FE001FC0
FE001FC0
FE001FC0
FE001FC0
FE001FC0
FE001FC0
FE001FC0
FE001FC0
FE001FC0
FE001FC0
FE001F80
FE001F80
7E001F80
7F003F80
7F003F80
7FC0FF80
3FFFFF00
3FFFFE00
1FFFFE00
07FFF800
03FFF000
000C0000
ENDCHAR
STARTCHAR 01DA
ENCODING 474
SWIDTH 607 0
DWIDTH 27 0
BBX 21 41 3 -1
BITMAP
0F87C0
0F8F80
07DF00
03FE00
03FE00
01FC00
000000
000000
1F07C0
1F07C0
1F07C0
1F07C0
1F07C0
000000
000000
000000
000000
FC01F8
FC01F8
FC01F8
FC01F8
FC01F8
FC01F8
FC01F8
FC01F8
FC01F8
FC01F8
FC01F8
FC01F8
FC01F8
FC01F8
FC01F8
FC01F8
FC03F8
FE07F8
7F0FF8
7FFFF8
7FFFF8
3FFDF8
0FF1F8
010000
ENDCHAR
STARTCHAR 01DB
ENCODING 475
SWIDTH 720 0
DWIDTH 32 0
BBX 26 41 3 -1
BITMAP
00F80000
00780000
003C0000
001E0000
01C1E000
01C1E000
01C1E000
01C1E000
FE001FC0
FE001FC0
FE001FC0
FE001FC0
FE001FC0
FE001FC0
FE001FC0
FE001FC0
FE001FC0
FE001FC0
FE001FC0
FE001FC0
FE001FC0
FE001FC0
FE001FC0
FE001FC0
FE001FC0
FE001FC0
FE001FC0
FE001FC0
FE001FC0
FE001F80
FE001F80
7E001F80
7F003F80
7F003F80
7FC0FF80
3FFFFF00
3FFFFE00
1FFFFE00
07FFF800
03FFF000
000C0000
ENDCHAR
STARTCHAR 01DC
ENCODING 476
SWIDTH 607 0
DWIDTH 27 0
BBX 21 41 3 -1
BITMAP
0FE000
07E000
03F000
01F000
00F800
007800
000000
000000
1F07C0
1F07C0
1F07C0
1F07C0
1F07C0
000000
000000
000000
000000
FC01F8
FC01F8
FC01F8
FC01F8
FC01F8
FC01F8
FC01F8
FC01F8
FC01F8
FC01F8
FC01F8
FC01F8
FC01F8
FC01F8
FC01F8
FC01F8
FC03F8
FE07F8
7F0FF8
7FFFF8
7FFFF8
3FFDF8
0FF1F8
010000
ENDCHAR
STARTCHAR 01FA
ENCODING 506
SWIDTH 720 0
DWIDTH 32 0
BBX 32 45 0 0
BITMAP
0000FC00
0001F800
0001F800
0003F000
0003E000
0007C000
00078000
0003C000
000FE000
000E7000
000C3000
001C3000
000C7000
000FE000
000FF000
001FF000
001FF800
001FF800
003FF800
003FFC00
003FFC00
007EFE00
007EFE00
00FE7E00
00FC7F00
00FC7F00
01FC3F80
01F83F80
03F81F80
03F01FC0
03F01FC0
07F00FE0
07FFFFE0
0FFFFFE0
0FFFFFF0
0FFFFFF0
1FFFFFF8
1FFFFFF8
1F8003F8
3F8001FC
3F0001FC
7F0000FE
7F0000FE
7E0000FE
FE00007F
ENDCHAR
STARTCHAR 01FB
ENCODING 507
SWIDTH 562 0
DWIDTH 25 0
BBX 21 42 2 -1
BITMAP
003F00
007E00
007C00
00F800
00F800
01F000
000000
000000
00F800
01FC00
038C00
038E00
038E00
039C00
01FC00
00F800
000000
002000
0FFF00
1FFFC0
3FFFE0
7FFFE0
7F0FF0
FC03F0
1C03F0
0003F0
000FF0
00FFF0
0FFFF0
3FFFF0
7FF3F0
FF03F0
FC03F0
FC03F0
FC03F0
FC07F0
FE0FF0
FFFFF0
7FFFF0
3FF9F8
1FF1F8
010000
ENDCHAR
STARTCHAR 01FC
ENCODING 508
SWIDTH 990 0
DWIDTH 44 0
BBX 44 41 -2 0
BITMAP
000000FC0000
000001F80000
000001F00000
000003E00000
000003C00000
000007C00000
000000000000
000000000000
000000000000
0001FFFFFFF0
0003FFFFFFF0
0003FFFFFFF0
0007FFFFFFF0
0007FFFFFFF0
000FE3FFFFF0
000FC3F00000
000FC3F00000
001FC3F00000
001F83F00000
003F83F00000
003F03F00000
007F03F00000
007E03FFFFC0
00FE03FFFFC0
00FC03FFFFC0
01FC03FFFFC0
01FC03FFFFC0
03F803F00000
03FFFFF00000
07FFFFF00000
07FFFFF00000
07FFFFF00000
0FFFFFF00000
0FFFFFF00000
1FC003F00000
1FC003F00000
3F8003FFFFF0
3F8003FFFFF0
7F0003FFFFF0
7F0003FFFFF0
FE0003FFFFF0
ENDCHAR
STARTCHAR 01FD
ENCODING 509
SWIDTH 900 0
DWIDTH 40 0
BBX 35 33 2 -1
BITMAP
00007F0000
00007E0000
0000FC0000
0000F80000
0001F00000
0001E00000
0000000000
0000000000
0030008000
07FF8FFC00
1FFFFFFE00
3FFFFFFF00
3FFFFFFF80
7F0FFE1FC0
7E03FC0FC0
1C03F807E0
0003F807E0
0007F007E0
00FFFFFFE0
0FFFFFFFE0
3FFFFFFFE0
7FF3FFFFE0
7F03F00000
FE03F00000
FC03F80000
FC03F807C0
FC07FC0FE0
FE0FFE1FC0
FFFFFFFFC0
7FFFFFFF80
3FFE3FFF00
1FF80FFC00
0100000000
ENDCHAR
STARTCHAR 01FE
ENCODING 510
SWIDTH 787 0
DWIDTH 35 0
BBX 31 43 2 -2
BITMAP
0001F800
0003F000
0003E000
0007C000
00078000
000F8000
00000000
00000000
00000008
003FF81C
01FFFE3E
03FFFFFC
07FFFFF8
0FFFFFF8
1FF83FF0
3FC00FF0
3F800FF8
7F000FF8
7F001FFC
7E003FFC
FE007CFC
FE00F8FC
FE01F0FE
FE03F0FE
FE07E0FE
FE0FC0FE
FE0F80FE
FE1F00FE
FE3E00FE
FE7C00FC
7EF801FC
7FF001FC
7FF003FC
3FE003F8
3FC007F8
1FF01FF0
1FFFFFE0
3FFFFFC0
7FFFFF80
F9FFFF00
F07FFC00
70010000
20000000
ENDCHAR
STARTCHAR 01FF
ENCODING 511
SWIDTH 607 0
DWIDTH 27 0
BBX 24 34 2 -2
BITMAP
001FC0
003F00
003E00
007E00
007C00
007800
000000
000000
00100C
01FF9E
07FFFE
0FFFFC
1FFFF8
3FC3FC
7F01FC
7E03FE
FE07FE
FC0F7E
FC1F7F
FC1E3F
FC3C3F
FC783F
FCF07F
FDE07E
7FC07E
7FC0FE
7F81FC
3FC7FC
1FFFF8
3FFFF0
7FFFE0
F1FF80
601000
200000
ENDCHAR
STARTCHAR 0218
ENCODING 536
SWIDTH 675 0
DWIDTH 30 0
BBX 25 44 2 -12
BITMAP
01FFC000
07FFF000
1FFFFC00
1FFFFE00
3FFFFE00
7F81FF00
7E007F00
7E007F00
7E003F80
7E003000
7F800000
7FE00000
3FFE0000
3FFFE000
1FFFF800
0FFFFC00
03FFFE00
007FFF00
0007FF80
0000FF80
00003F80
7C001F80
FC001F80
FE001F80
FE001F80
7F003F80
7FC0FF80
3FFFFF00
3FFFFF00
1FFFFE00
0FFFF800
03FFE000
001C0000
00000000
003F0000
003F0000
003F0000
003F0000
000F0000
000F0000
001E0000
007E0000
003C0000
00300000
ENDCHAR
STARTCHAR 0219
ENCODING 537
SWIDTH 562 0
DWIDTH 25 0
BBX 22 36 1 -12
BITMAP
002000
07FF80
1FFFC0
3FFFE0
3FFFF0
7E03F0
7E01F8
7E0100
7F8000
7FF800
3FFF00
3FFFE0
1FFFF0
07FFF8
00FFF8
000FF8
0001FC
FE01FC
FE01F8
7F03F8
7FFFF0
3FFFF0
1FFFE0
07FF80
001000
000000
00FC00
00FC00
00FC00
00FC00
001C00
003C00
003C00
00F800
00F000
00E000
ENDCHAR
STARTCHAR 021A
ENCODING 538
SWIDTH 607 0
DWIDTH 27 0
BBX 25 44 1 -12
BITMAP
FFFFFF80
FFFFFF80
FFFFFF80
FFFFFF80
FFFFFF80
FFFFFF80
007F0000
007F0000
007F0000
007F0000
007F0000
007F0000
007F0000
007F0000
007F0000
007F0000
007F0000
007F0000
007F0000
007F0000
007F0000
007F0000
007F0000
007F0000
007F0000
007F0000
007F0000
007F0000
007F0000
007F0000
007F0000
007F0000
00000000
00000000
007F0000
007F0000
007F0000
007F0000
000F0000
000F0000
001E0000
007E0000
003C0000
00300000
ENDCHAR
STARTCHAR 021B
ENCODING 539
SWIDTH 337 0
DWIDTH 15 0
BBX 13 43 1 -12
BITMAP
0180
0380
0F80
3F80
3F80
3F80
3F80
3F80
FFF8
FFF8
FFF8
FFF8
FFF8
3F80
3F80
3F80
3F80
3F80
3F80
3F80
3F80
3F80
3F80
3F80
3F80
1F80
1FF8
1FF8
1FF8
1FF8
07F8
0080
0000
07E0
07E0
07E0
07E0
00E0
01E0
01E0
07C0
0780
0700
ENDCHAR
STARTCHAR 0259
ENCODING 601
SWIDTH 562 0
DWIDTH 25 0
BBX 21 25 2 -1
BITMAP
002000
07FF00
1FFF80
3FFFC0
3FFFE0
7F0FF0
FE03F0
7C03F8
0001F8
0001F8
0001F8
FFFFF8
FFFFF8
FFFFF8
FC01F8
FC01F8
FC01F8
7E03F0
7E03F0
7F8FF0
3FFFE0
1FFFC0
0FFF80
03FE00
002000
ENDCHAR
STARTCHAR 02C6
ENCODING 710
SWIDTH 337 0
DWIDTH 15 0
BBX 14 6 0 26
BITMAP
0FE0
1FF0
1FF0
3EF8
7C7C
F87C
ENDCHAR
STARTCHAR 02C7
ENCODING 711
SWIDTH 337 0
DWIDTH 15 0
BBX 13 6 1 26
BITMAP
F8F8
F9F0
7DF0
3FE0
3FC0
1FC0
ENDCHAR
STARTCHAR 02C9
ENCODING 713
SWIDTH 337 0
DWIDTH 15 0
BBX 14 4 0 27
BITMAP
FFFC
FFFC
FFFC
FFFC
ENDCHAR
STARTCHAR 02D8
ENCODING 728
SWIDTH 337 0
DWIDTH 15 0
BBX 13 6 1 26
BITMAP
E038
E078
F8F0
7FF0
3FE0
0F80
ENDCHAR
STARTCHAR 02D9
ENCODING 729
SWIDTH 337 0
DWIDTH 15 0
BBX 6 5 4 27
BITMAP
FC
FC
FC
FC
FC
ENDCHAR
STARTCHAR 02DA
ENCODING 730
SWIDTH 337 0
DWIDTH 15 0
BBX 9 8 3 25
BITMAP
3E00
7F00
E300
E380
E380
E700
7F00
3E00
ENDCHAR
STARTCHAR 02DB
ENCODING 731
SWIDTH 337 0
DWIDTH 15 0
BBX 10 10 3 -9
BITMAP
7000
7000
7000
7000
7000
F000
7800
7FC0
7FC0
1FC0
ENDCHAR
STARTCHAR 02DC
ENCODING 732
SWIDTH 337 0
DWIDTH 15 0
BBX 15 6 0 26
BITMAP
180E
7F0E
FFFE
FFFC
E3FC
E070
ENDCHAR
STARTCHAR 02DD
ENCODING 733
SWIDTH 337 0
DWIDTH 15 0
BBX 17 6 2 26
BITMAP
1F9F80
3F3F00
3E3E00
7C7C00
787800
F0F800
ENDCHAR
STARTCHAR 0300
ENCODING 768
SWIDTH 0 0
DWIDTH 0 0
BBX 9 6 -13 34
BITMAP
FE00
7F00
3F00
1F80
0F80
0780
ENDCHAR
STARTCHAR 0301
ENCODING 769
SWIDTH 0 0
DWIDTH 0 0
BBX 9 6 -9 34
BITMAP
1F80
3F00
3E00
7C00
7C00
F800
ENDCHAR
STARTCHAR 0303
ENCODING 771
SWIDTH 0 0
DWIDTH 0 0
BBX 15 5 -20 34
BITMAP
000E
3F0E
7FFC
77FC
E0F8
ENDCHAR
STARTCHAR 0309
ENCODING 777
SWIDTH 0 0
DWIDTH 0 0
BBX 9 7 -10 33
BITMAP
FE00
FF00
0780
0780
0F80
1E00
1800
ENDCHAR
STARTCHAR 0323
ENCODING 803
SWIDTH 0 0
DWIDTH 0 0
BBX 6 6 -19 -9
BITMAP
FC
FC
FC
FC
FC
FC
ENDCHAR
STARTCHAR 037E
ENCODING 894
SWIDTH 337 0
DWIDTH 15 0
BBX 6 30 4 -7
BITMAP
FC
FC
FC
FC
FC
FC
00
00
00
00
00
00
00
00
00
00
00
FC
FC
FC
FC
FC
FC
1C
1C
1C
38
F8
F0
40
ENDCHAR
STARTCHAR 0384
ENCODING 900
SWIDTH 337 0
DWIDTH 15 0
BBX 9 6 4 26
BITMAP
1F80
3F00
3E00
7C00
7800
F800
ENDCHAR
STARTCHAR 0385
ENCODING 901
SWIDTH 472 0
DWIDTH 21 0
BBX 21 6 0 26
BITMAP
00FE00
F8FCF8
F8F8F8
F9F0F8
F9F0F8
F9E0F8
ENDCHAR
STARTCHAR 0386
ENCODING 902
SWIDTH 720 0
DWIDTH 32 0
BBX 32 32 0 0
BITMAP
1FEFE000
3F8FF000
3F0FF000
7E1FF800
FC1FF800
F03FF800
003FFC00
003FFC00
007EFE00
007EFE00
00FE7E00
00FC7F00
00FC3F00
01FC3F80
01F83F80
01F81F80
03F81FC0
03F01FC0
07F00FE0
07FFFFE0
07FFFFE0
0FFFFFF0
0FFFFFF0
1FFFFFF8
1FFFFFF8
1F8001F8
3F8001FC
3F8001FC
7F0000FE
7F0000FE
7E0000FE
FE00007F
ENDCHAR
STARTCHAR 0387
ENCODING 903
SWIDTH 337 0
DWIDTH 15 0
BBX 6 6 4 17
BITMAP
FC
FC
FC
FC
FC
FC
ENDCHAR
STARTCHAR 0388
ENCODING 904
SWIDTH 855 0
DWIDTH 38 0
BBX 37 32 -1 0
BITMAP
1FEFFFFFF0
3F8FFFFFF0
3F0FFFFFF0
7E0FFFFFF0
FC0FFFFFF0
F00FFFFFF0
000FE00000
000FE00000
000FE00000
000FE00000
000FE00000
000FE00000
000FE00000
000FFFFFE0
000FFFFFE0
000FFFFFE0
000FFFFFE0
000FFFFFE0
000FE00000
000FE00000
000FE00000
000FE00000
000FE00000
000FE00000
000FE00000
000FE00000
000FE00000
000FFFFFF8
000FFFFFF8
000FFFFFF8
000FFFFFF8
000FFFFFF8
ENDCHAR
STARTCHAR 0389
ENCODING 905
SWIDTH 900 0
DWIDTH 40 0
BBX 38 32 -1 0
BITMAP
1FEFE001FC
3F8FE001FC
3F0FE001FC
7E0FE001FC
FC0FE001FC
F00FE001FC
000FE001FC
000FE001FC
000FE001FC
000FE001FC
000FE001FC
000FE001FC
000FE001FC
000FFFFFFC
000FFFFFFC
000FFFFFFC
000FFFFFFC
000FFFFFFC
000FE001FC
000FE001FC
000FE001FC
000FE001FC
000FE001FC
000FE001FC
000FE001FC
000FE001FC
000FE001FC
000FE001FC
000FE001FC
000FE001FC
000FE001FC
000FE001FC
ENDCHAR
STARTCHAR 038A
ENCODING 906
SWIDTH 472 0
DWIDTH 21 0
BBX 19 32 -1 0
BITMAP
1FEFE0
3F8FE0
3F0FE0
7E0FE0
FC0FE0
F00FE0
000FE0
000FE0
000FE0
000FE0
000FE0
000FE0
000FE0
000FE0
000FE0
000FE0
000FE0
000FE0
000FE0
000FE0
000FE0
000FE0
000FE0
000FE0
000FE0
000FE0
000FE0
000FE0
000FE0
000FE0
000FE0
000FE0
ENDCHAR
STARTCHAR 038C
ENCODING 908
SWIDTH 832 0
DWIDTH 37 0
BBX 37 33 -2 -1
BITMAP
1FE0FFE000
1FC7FFF800
3F8FFFFE00
7E1FFFFF00
7C3FFFFF80
F87FE0FFC0
00FF003FC0
00FE001FE0
01FE000FE0
01FC0007F0
01F80007F0
03F80003F0
03F80003F8
03F80003F8
03F80003F8
03F80003F8
03F80003F8
03F80003F8
03F80003F8
03F80003F8
03F80003F0
01F80007F0
01FC0007F0
01FE000FF0
00FE000FE0
00FF003FE0
007FC07FC0
007FFFFF80
003FFFFF00
001FFFFE00
0007FFFC00
0001FFF000
0000040000
ENDCHAR
STARTCHAR 038E
ENCODING 910
SWIDTH 922 0
DWIDTH 41 0
BBX 42 32 -1 0
BITMAP
1FE7F0001FC0
3FC7F8003F80
3F03F8003F80
7E01FC007F00
7C01FE00FF00
F800FE00FE00
0000FF01FC00
00007F01FC00
00003F83F800
00003FC7F000
00001FC7F000
00000FEFE000
00000FEFC000
000007FFC000
000003FF8000
000003FF8000
000001FF0000
000001FE0000
000000FE0000
000000FE0000
000000FE0000
000000FE0000
000000FE0000
000000FE0000
000000FE0000
000000FE0000
000000FE0000
000000FE0000
000000FE0000
000000FE0000
000000FE0000
000000FE0000
ENDCHAR
STARTCHAR 038F
ENCODING 911
SWIDTH 832 0
DWIDTH 37 0
BBX 37 32 -2 0
BITMAP
1FE0FFE000
3FC7FFFC00
3F0FFFFE00
7E1FFFFF00
7C3FFFFF80
F87FE0FFC0
00FF803FE0
00FF001FE0
01FE000FF0
01FC0007F0
01FC0007F0
03F80007F0
03F80003F8
03F80003F8
03F80003F8
03F80003F8
03F80003F0
01F80003F0
01F80003F0
01F80007F0
00FC0007E0
00FC0007E0
007E000FC0
007F001FC0
003F801F80
001FC07F00
000FE0FE00
03FFF1FFF8
03FFF1FFF8
03FFF1FFF8
03FFF1FFF8
03FFF1FFF8
ENDCHAR
STARTCHAR 0390
ENCODING 912
SWIDTH 270 0
DWIDTH 12 0
BBX 22 32 -5 0
BITMAP
007E00
FC7CFC
FCFCFC
FCF8FC
FCF0FC
FDE0FC
000000
000000
000000
00FC00
00FC00
00FC00
00FC00
00FC00
00FC00
00FC00
00FC00
00FC00
00FC00
00FC00
00FC00
00FC00
00FC00
00FC00
00FC00
00FC00
00FC00
00FC00
00FC00
00FC00
00FC00
00FC00
ENDCHAR
STARTCHAR 0391
ENCODING 913
SWIDTH 720 0
DWIDTH 32 0
BBX 32 32 0 0
BITMAP
000FE000
000FF000
001FF000
001FF800
001FF800
003FF800
003FFC00
003FFC00
007EFE00
007EFE00
00FE7E00
00FC7F00
00FC7F00
01FC3F80
01F83F80
03F81F80
03F01FC0
03F01FC0
07F00FE0
07FFFFE0
0FFFFFE0
0FFFFFF0
0FFFFFF0
1FFFFFF8
1FFFFFF8
1F8003F8
3F8001FC
3F0001FC
7F0000FE
7F0000FE
7E0000FE
FE00007F
ENDCHAR
STARTCHAR 0392
ENCODING 914
SWIDTH 720 0
DWIDTH 32 0
BBX 27 32 3 0
BITMAP
FFFFC000
FFFFF800
FFFFFE00
FFFFFF00
FFFFFF00
FE3FFF80
FE003F80
FE001F80
FE001F80
FE001F80
FE001F80
FE003F80
FE00FF00
FFFFFE00
FFFFFC00
FFFFFC00
FFFFFF00
FFFFFF80
FE00FFC0
FE001FC0
FE000FE0
FE000FE0
FE000FE0
FE000FE0
FE000FE0
FE001FE0
FE00FFC0
FFFFFFC0
FFFFFF80
FFFFFF00
FFFFFE00
FFFFF000
ENDCHAR
STARTCHAR 0393
ENCODING 915
SWIDTH 607 0
DWIDTH 27 0
BBX 23 32 3 0
BITMAP
FFFFFE
FFFFFE
FFFFFE
FFFFFE
FFFFFE
FFFFFE
FE0000
FE0000
FE0000
FE0000
FE0000
FE0000
FE0000
FE0000
FE0000
FE0000
FE0000
FE0000
FE0000
FE0000
FE0000
FE0000
FE0000
FE0000
FE0000
FE0000
FE0000
FE0000
FE0000
FE0000
FE0000
FE0000
ENDCHAR
STARTCHAR 0394
ENCODING 916
SWIDTH 720 0
DWIDTH 32 0
BBX 32 32 0 0
BITMAP
000FE000
000FF000
001FF000
001FF800
001FF800
003FF800
003FFC00
003FFC00
007EFE00
007EFE00
00FE7E00
00FC7F00
00FC3F00
01FC3F80
01F83F80
03F81F80
03F01FC0
03F01FC0
07F00FE0
07E00FE0
0FE007E0
0FE007F0
0FC007F0
1FC003F8
1FC003F8
1F8003F8
3F8001FC
3FFFFFFC
7FFFFFFE
7FFFFFFE
7FFFFFFE
FFFFFFFF
ENDCHAR
STARTCHAR 0395
ENCODING 917
SWIDTH 675 0
DWIDTH 30 0
BBX 24 32 3 0
BITMAP
FFFFFF
FFFFFF
FFFFFF
FFFFFF
FFFFFF
FFFFFF
FE0000
FE0000
FE0000
FE0000
FE0000
FE0000
FE0000
FFFFFE
FFFFFE
FFFFFE
FFFFFE
FFFFFE
FE0000
FE0000
FE0000
FE0000
FE0000
FE0000
FE0000
FE0000
FE0000
FFFFFF
FFFFFF
FFFFFF
FFFFFF
FFFFFF
ENDCHAR
STARTCHAR 0396
ENCODING 918
SWIDTH 607 0
DWIDTH 27 0
BBX 26 32 0 0
BITMAP
3FFFFFC0
3FFFFFC0
3FFFFFC0
3FFFFFC0
3FFFFFC0
3FFFFF80
0000FF80
0000FF00
0001FE00
0003FC00
0007F800
000FF800
000FF000
001FE000
003FC000
007F8000
00FF0000
00FF0000
01FE0000
03FC0000
07F80000
0FF00000
1FF00000
1FE00000
3FC00000
7F800000
FF000000
FFFFFFC0
FFFFFFC0
FFFFFFC0
FFFFFFC0
FFFFFFC0
ENDCHAR
STARTCHAR 0397
ENCODING 919
SWIDTH 720 0
DWIDTH 32 0
BBX 26 32 3 0
BITMAP
FE001FC0
FE001FC0
FE001FC0
FE001FC0
FE001FC0
FE001FC0
FE001FC0
FE001FC0
FE001FC0
FE001FC0
FE001FC0
FE001FC0
FE001FC0
FFFFFFC0
FFFFFFC0
FFFFFFC0
FFFFFFC0
FFFFFFC0
FE001FC0
FE001FC0
FE001FC0
FE001FC0
FE001FC0
FE001FC0
FE001FC0
FE001FC0
FE001FC0
FE001FC0
FE001FC0
FE001FC0
FE001FC0
FE001FC0
ENDCHAR
STARTCHAR 0398
ENCODING 920
SWIDTH 787 0
DWIDTH 35 0
BBX 31 33 2 -1
BITMAP
003FF800
01FFFE00
03FFFF80
07FFFFC0
0FFFFFE0
1FF83FF0
3FC00FF0
3F8007F8
7F0003F8
7F0001FC
7E0001FC
FE0000FC
FE0000FC
FE3FF0FE
FE3FF0FE
FE3FF0FE
FE3FF0FE
FE3FF0FE
FE3FF0FE
FE0000FE
FE0000FC
FE0001FC
7F0001FC
7F0003F8
3F8007F8
3FC00FF8
1FF03FF0
1FFFFFE0
0FFFFFC0
07FFFF80
01FFFF00
007FFC00
00010000
ENDCHAR
STARTCHAR 0399
ENCODING 921
SWIDTH 270 0
DWIDTH 12 0
BBX 6 32 3 0
BITMAP
FC
FC
FC
FC
FC
FC
FC
FC
FC
FC
FC
FC
FC
FC
FC
FC
FC
FC
FC
FC
FC
FC
FC
FC
FC
FC
FC
FC
FC
FC
FC
FC
ENDCHAR
STARTCHAR 039A
ENCODING 922
SWIDTH 720 0
DWIDTH 32 0
BBX 29 32 3 0
BITMAP
FE001FF0
FE001FE0
FE003FC0
FE007F80
FE00FF00
FE01FE00
FE03FC00
FE07F800
FE0FF000
FE1FE000
FE3FC000
FE7F8000
FEFF0000
FEFF8000
FFFFC000
FFFFC000
FFFFE000
FFFFF000
FFE7F000
FFC7F800
FF83FC00
FF01FC00
FE01FE00
FE00FE00
FE00FF00
FE007F80
FE007F80
FE003FC0
FE001FE0
FE001FE0
FE000FF0
FE000FF8
ENDCHAR
STARTCHAR 039B
ENCODING 923
SWIDTH 675 0
DWIDTH 30 0
BBX 29 32 0 0
BITMAP
001FC000
001FE000
001FE000
003FE000
003FF000
007FF000
007FF800
007FF800
00FFF800
00FDFC00
00FDFC00
01FCFC00
01F8FE00
01F8FE00
03F87E00
03F07F00
03F07F00
07F03F00
07E03F80
0FE03F80
0FE01FC0
0FC01FC0
1FC01FC0
1FC00FE0
1F800FE0
3F800FE0
3F8007F0
3F0007F0
7F0007F0
7F0003F8
7E0003F8
FE0003F8
ENDCHAR
STARTCHAR 039C
ENCODING 924
SWIDTH 832 0
DWIDTH 37 0
BBX 31 32 3 0
BITMAP
FFC007FE
FFC007FE
FFC007FE
FFE00FFE
FFE00FFE
FFE00FFE
FFE00FFE
FFF01FFE
FFF01FFE
FDF01F7E
FDF01F7E
FDF83F7E
FDF83E7E
FCF83E7E
FCFC7E7E
FCFC7E7E
FCFC7C7E
FC7C7C7E
FC7EFC7E
FC7EFC7E
FC7EF87E
FC3EF87E
FC3FF87E
FC3FF87E
FC1FF07E
FC1FF07E
FC1FF07E
FC1FF07E
FC0FE07E
FC0FE07E
FC0FE07E
FC0FE07E
ENDCHAR
STARTCHAR 039D
ENCODING 925
SWIDTH 720 0
DWIDTH 32 0
BBX 26 32 3 0
BITMAP
FE000FC0
FE000FC0
FF000FC0
FF800FC0
FF800FC0
FFC00FC0
FFC00FC0
FFE00FC0
FFF00FC0
FFF00FC0
FFF80FC0
FFF80FC0
FDFC0FC0
FCFE0FC0
FCFE0FC0
FC7F0FC0
FC7F8FC0
FC3F8FC0
FC1FCFC0
FC1FCFC0
FC0FEFC0
FC07FFC0
FC07FFC0
FC03FFC0
FC03FFC0
FC01FFC0
FC00FFC0
FC00FFC0
FC007FC0
FC003FC0
FC003FC0
FC001FC0
ENDCHAR
STARTCHAR 039E
ENCODING 926
SWIDTH 652 0
DWIDTH 29 0
BBX 24 32 2 0
BITMAP
7FFFFF
7FFFFF
7FFFFF
7FFFFF
7FFFFF
7FFFFF
000000
000000
000000
000000
000000
000000
000000
3FFFFE
3FFFFE
3FFFFE
3FFFFE
3FFFFE
000000
000000
000000
000000
000000
000000
000000
000000
000000
FFFFFF
FFFFFF
FFFFFF
FFFFFF
FFFFFF
ENDCHAR
STARTCHAR 039F
ENCODING 927
SWIDTH 787 0
DWIDTH 35 0
BBX 31 33 2 -1
BITMAP
003FF800
01FFFE00
03FFFF80
07FFFFC0
0FFFFFE0
1FF83FF0
3FE00FF8
3F8007F8
7F0003FC
7F0001FC
7E0001FC
FE0000FC
FE0000FE
FE0000FE
FE0000FE
FE0000FE
FE0000FE
FE0000FE
FE0000FE
FE0000FE
FE0000FC
7E0001FC
7F0001FC
7F0003FC
3F8007F8
3FC00FF8
1FF01FF0
1FFFFFE0
0FFFFFC0
03FFFF80
01FFFF00
007FFC00
00010000
ENDCHAR
STARTCHAR 03A0
ENCODING 928
SWIDTH 720 0
DWIDTH 32 0
BBX 26 32 3 0
BITMAP
FFFFFFC0
FFFFFFC0
FFFFFFC0
FFFFFFC0
FFFFFFC0
FFFFFFC0
FE001FC0
FE001FC0
FE001FC0
FE001FC0
FE001FC0
FE001FC0
FE001FC0
FE001FC0
FE001FC0
FE001FC0
FE001FC0
FE001FC0
FE001FC0
FE001FC0
FE001FC0
FE001FC0
FE001FC0
FE001FC0
FE001FC0
FE001FC0
FE001FC0
FE001FC0
FE001FC0
FE001FC0
FE001FC0
FE001FC0
ENDCHAR
STARTCHAR 03A1
ENCODING 929
SWIDTH 675 0
DWIDTH 30 0
BBX 25 32 3 0
BITMAP
FFFE0000
FFFFF000
FFFFFC00
FFFFFE00
FFFFFE00
FFFFFF00
FE00FF00
FE007F00
FE003F80
FE003F80
FE003F80
FE003F80
FE007F00
FE00FF00
FE07FF00
FFFFFE00
FFFFFC00
FFFFFC00
FFFFF000
FFFFC000
FE000000
FE000000
FE000000
FE000000
FE000000
FE000000
FE000000
FE000000
FE000000
FE000000
FE000000
FE000000
ENDCHAR
STARTCHAR 03A3
ENCODING 931
SWIDTH 607 0
DWIDTH 27 0
BBX 23 32 2 0
BITMAP
FFFFFC
FFFFFC
FFFFFC
FFFFFC
FFFFFC
FFFFFC
7F8000
3FC000
1FE000
1FF000
0FF000
07F800
03FC00
01FE00
00FF00
00FF00
00FF00
01FE00
03FC00
07F800
0FF000
0FF000
1FE000
3FC000
7F8000
FF0000
FF0000
FFFFFE
FFFFFE
FFFFFE
FFFFFE
FFFFFE
ENDCHAR
STARTCHAR 03A4
ENCODING 932
SWIDTH 607 0
DWIDTH 27 0
BBX 25 32 1 0
BITMAP
FFFFFF80
FFFFFF80
FFFFFF80
FFFFFF80
FFFFFF80
FFFFFF80
007F0000
007F0000
007F0000
007F0000
007F0000
007F0000
007F0000
007F0000
007F0000
007F0000
007F0000
007F0000
007F0000
007F0000
007F0000
007F0000
007F0000
007F0000
007F0000
007F0000
007F0000
007F0000
007F0000
007F0000
007F0000
007F0000
ENDCHAR
STARTCHAR 03A5
ENCODING 933
SWIDTH 675 0
DWIDTH 30 0
BBX 29 32 0 0
BITMAP
FF0003F8
7F0003F8
7F8007F0
3F800FF0
1FC00FE0
1FE01FC0
0FE01FC0
07F03F80
07F07F00
03F87F00
03FCFE00
01FCFE00
00FFFC00
00FFF800
007FF800
003FF000
003FE000
001FE000
001FC000
000FC000
000FC000
000FC000
000FC000
000FC000
000FC000
000FC000
000FC000
000FC000
000FC000
000FC000
000FC000
000FC000
ENDCHAR
STARTCHAR 03A6
ENCODING 934
SWIDTH 810 0
DWIDTH 36 0
BBX 33 34 2 -1
BITMAP
0007E00000
0007E00000
0007E00000
001FFC0000
01FFFF8000
03FFFFE000
0FFFFFF000
1FFFFFF800
3FFFFFFC00
3FC7E3FE00
7F87E0FE00
7F07E07F00
FE07E07F00
FE07E07F00
FE07E03F80
FE07E03F80
FC07E03F80
FE07E03F80
FE07E03F80
FE07E03F00
FE07E07F00
7F07E07F00
7F07E0FE00
7F87E1FE00
3FF7E7FC00
1FFFFFFC00
0FFFFFF800
07FFFFF000
03FFFFC000
00FFFF0000
0007E00000
0007E00000
0007E00000
0007E00000
ENDCHAR
STARTCHAR 03A7
ENCODING 935
SWIDTH 675 0
DWIDTH 30 0
BBX 29 32 0 0
BITMAP
7F8007F0
3F800FF0
3FC00FE0
1FE01FC0
0FE01FC0
0FF03F80
07F07F80
03F87F00
03FCFE00
01FDFE00
00FFFC00
00FFF800
007FF800
003FF000
003FE000
001FE000
003FE000
007FF000
007FF800
00FFF800
00FFFC00
01FDFE00
03FCFE00
03F8FF00
07F87F80
0FF03F80
0FE03FC0
1FE01FE0
3FC00FE0
3F800FF0
7F8007F8
FF0007F8
ENDCHAR
STARTCHAR 03A8
ENCODING 936
SWIDTH 810 0
DWIDTH 36 0
BBX 32 32 2 0
BITMAP
FC07E03F
FC07E03F
FC07E03F
FC07E03F
FC07E03F
FC07E03F
FC07E03F
FC07E03F
FC07E03F
FC07E03F
FC07E03F
FE07E07F
FE07E07F
FE07E07F
FE07E07F
7F07E0FE
7F87E1FE
3FFFFFFC
3FFFFFFC
1FFFFFF8
0FFFFFF0
03FFFFC0
003FFC00
0007E000
0007E000
0007E000
0007E000
0007E000
0007E000
0007E000
0007E000
0007E000
ENDCHAR
STARTCHAR 03A9
ENCODING 937
SWIDTH 810 0
DWIDTH 36 0
BBX 32 32 2 0
BITMAP
003FFC00
00FFFF00
03FFFFC0
07FFFFE0
0FFFFFF0
1FF83FF0
1FE00FF8
3FC003FC
3F8003FC
7F8001FC
7F0001FE
7F0000FE
7F0000FE
7E0000FE
7E0000FE
7E0000FE
7E0000FE
7E0000FE
7F0000FC
3F0000FC
3F0001FC
1F8001F8
1F8003F8
0FC003F0
0FE007E0
07F00FC0
03FC3F80
FFFE7FFF
FFFE7FFF
FFFE7FFF
FFFE7FFF
FFFE7FFF
ENDCHAR
STARTCHAR 03AA
ENCODING 938
SWIDTH 270 0
DWIDTH 12 0
BBX 14 39 -1 0
BITMAP
F87C
F87C
F87C
F87C
F87C
0000
0000
0FC0
0FC0
0FC0
0FC0
0FC0
0FC0
0FC0
0FC0
0FC0
0FC0
0FC0
0FC0
0FC0
0FC0
0FC0
0FC0
0FC0
0FC0
0FC0
0FC0
0FC0
0FC0
0FC0
0FC0
0FC0
0FC0
0FC0
0FC0
0FC0
0FC0
0FC0
0FC0
ENDCHAR
STARTCHAR 03AB
ENCODING 939
SWIDTH 675 0
DWIDTH 30 0
BBX 29 39 0 0
BITMAP
01F0FC00
01F0FC00
01F0FC00
01F0FC00
01F0FC00
00000000
00000000
FF0003F8
7F0003F8
7F8007F0
3F800FF0
1FC00FE0
1FE01FC0
0FE01FC0
07F03F80
07F07F00
03F87F00
03FCFE00
01FCFE00
00FFFC00
00FFF800
007FF800
003FF000
003FE000
001FE000
001FC000
000FC000
000FC000
000FC000
000FC000
000FC000
000FC000
000FC000
000FC000
000FC000
000FC000
000FC000
000FC000
000FC000
ENDCHAR
STARTCHAR 03AC
ENCODING 940
SWIDTH 607 0
DWIDTH 27 0
BBX 24 33 2 -1
BITMAP
000FE0
001F80
001F00
003F00
003E00
003C00
000000
000000
004000
07FC3F
0FFE3E
1FFF3E
3FFFFE
7FCFFC
7F03FC
FE03FC
FE01FC
FC01F8
FC01F8
FC00F8
FC00F8
FC00F8
FC01F8
FC01F8
FE01F8
7E01FC
7F03FC
3FCFFC
3FFFFC
1FFF3E
0FFE3E
07FC3E
004000
ENDCHAR
STARTCHAR 03AD
ENCODING 941
SWIDTH 450 0
DWIDTH 20 0
BBX 19 33 2 -1
BITMAP
00FC00
01F800
01F000
03E000
03C000
07C000
000000
000000
00C000
0FFE00
1FFF80
3FFF80
7FFF00
7FBE00
7E0000
7E0000
7E0000
7F8000
3FF000
1FF000
1FF000
3FF000
7FF000
FE0000
FC0000
FC0000
FC0700
FF1F80
FFFFC0
7FFFE0
3FFF80
0FFC00
008000
ENDCHAR
STARTCHAR 03AE
ENCODING 942
SWIDTH 607 0
DWIDTH 27 0
BBX 21 41 3 -9
BITMAP
003F80
007E00
007C00
00FC00
00F800
00F000
000000
000000
000400
FC7FC0
FCFFE0
FDFFF0
FFFFF0
FF87F8
FF03F8
FE01F8
FE01F8
FC01F8
FC01F8
FC01F8
FC01F8
FC01F8
FC01F8
FC01F8
FC01F8
FC01F8
FC01F8
FC01F8
FC01F8
FC01F8
FC01F8
FC01F8
0001F8
0001F8
0001F8
0001F8
0001F8
0001F8
0001F8
0001F8
0001F8
ENDCHAR
STARTCHAR 03AF
ENCODING 943
SWIDTH 270 0
DWIDTH 12 0
BBX 9 32 3 0
BITMAP
3F80
3F00
7E00
7C00
7800
F000
0000
0000
0000
FC00
FC00
FC00
FC00
FC00
FC00
FC00
FC00
FC00
FC00
FC00
FC00
FC00
FC00
FC00
FC00
FC00
FC00
FC00
FC00
FC00
FC00
FC00
ENDCHAR
STARTCHAR 03B0
ENCODING 944
SWIDTH 585 0
DWIDTH 26 0
BBX 22 32 2 -1
BITMAP
007E00
FC7CFC
FCFCFC
FCF8FC
FCF0FC
FDE0FC
000000
000000
000000
7E01F8
7E01F8
7E01F8
7E01F8
7E01F8
7E01F8
7E01F8
7E01F8
7E01F8
7E01F8
7E01F8
7E01F8
7E01F8
7E01F8
7E01F8
7E01F8
7E01F8
7F03F0
3FFFF0
3FFFF0
1FFFE0
0FFFC0
03FF00
ENDCHAR
STARTCHAR 03B1
ENCODING 945
SWIDTH 607 0
DWIDTH 27 0
BBX 24 25 2 -1
BITMAP
004000
07FC3F
0FFE3E
1FFF3E
3FFFFE
7FCFFC
7F03FC
FE03FC
FE01FC
FC01F8
FC01F8
FC00F8
FC00F8
FC00F8
FC01F8
FC01F8
FE01F8
7E01FC
7F03FC
3FCFFC
3FFFFC
1FFF3E
0FFE3E
07FC3E
004000
ENDCHAR
STARTCHAR 03B2
ENCODING 946
SWIDTH 607 0
DWIDTH 27 0
BBX 22 41 3 -9
BITMAP
01FF00
07FF80
1FFFE0
3FFFE0
3FDFF0
7F07F0
7E03F8
7E01F8
FC01F8
FC01F8
FC03F0
FC03F0
FC0FE0
FC7FC0
FC7F00
FC7FC0
FC7FF0
FC07F8
FC01F8
FC01FC
FC00FC
FC00FC
FE00FC
FE00FC
FE00FC
FF00FC
FF81FC
FFE7FC
FFFFF8
FDFFF0
FCFFE0
FC3FC0
FC0000
FC0000
FC0000
FC0000
FC0000
FC0000
FC0000
FC0000
FC0000
ENDCHAR
STARTCHAR 03B3
ENCODING 947
SWIDTH 562 0
DWIDTH 25 0
BBX 23 32 1 -9
BITMAP
FC007E
FC00FE
FE00FC
7E00FC
7E01FC
7F01F8
3F01F8
3F83F0
1F83F0
1F87F0
1FC7E0
0FC7E0
0FCFC0
07EFC0
07EFC0
07FF80
03FF80
03FF80
01FF00
01FF00
01FE00
00FE00
00FE00
00FC00
00FC00
00FC00
00FC00
00FC00
00FC00
00FC00
00FC00
00FC00
ENDCHAR
STARTCHAR 03B4
ENCODING 948
SWIDTH 607 0
DWIDTH 27 0
BBX 23 33 2 -1
BITMAP
3FFFF8
3FFFF8
3FFFF8
3FFFF8
3FFFF8
1FE000
0FF000
03F800
01FE00
01FF00
07FFC0
0FFFE0
1FFFF0
3FFFF8
7F83FC
7F01FC
FE00FE
FC007E
FC007E
FC007E
FC007E
FC007E
FC007E
FC007E
FC007E
7E00FC
7F01FC
3FC7F8
3FFFF8
1FFFF0
0FFFE0
03FF80
001000
ENDCHAR
STARTCHAR 03B5
ENCODING 949
SWIDTH 472 0
DWIDTH 21 0
BBX 19 25 2 -1
BITMAP
00C000
0FFE00
1FFF80
3FFF80
7FFF00
7FBE00
7E0000
7E0000
7E0000
7F8000
3FF000
1FF000
1FF000
3FF000
7FF000
FE0000
FC0000
FC0000
FC0700
FF1F80
FFFFC0
7FFFE0
3FFF80
0FFC00
008000
ENDCHAR
STARTCHAR 03B6
ENCODING 950
SWIDTH 450 0
DWIDTH 20 0
BBX 18 41 2 -9
BITMAP
3FFFC0
3FFFC0
3FFFC0
3FFFC0
3FFFC0
003F00
007E00
00FC00
01F800
03F000
07E000
0FC000
0F8000
1F8000
3F0000
3E0000
7E0000
7E0000
FC0000
FC0000
FC0000
FC0000
FC0000
FC0000
FC0000
FE0000
FFC000
7FFC00
7FFE00
3FFF00
1FFF80
07FF80
003F80
001F80
001F80
001F80
00FF80
00FF00
01FF00
01FC00
01F000
ENDCHAR
STARTCHAR 03B7
ENCODING 951
SWIDTH 607 0
DWIDTH 27 0
BBX 21 33 3 -9
BITMAP
000400
FC7FC0
FCFFE0
FDFFF0
FFFFF0
FF87F8
FF03F8
FE01F8
FE01F8
FC01F8
FC01F8
FC01F8
FC01F8
FC01F8
FC01F8
FC01F8
FC01F8
FC01F8
FC01F8
FC01F8
FC01F8
FC01F8
FC01F8
FC01F8
0001F8
0001F8
0001F8
0001F8
0001F8
0001F8
0001F8
0001F8
0001F8
ENDCHAR
STARTCHAR 03B8
ENCODING 952
SWIDTH 540 0
DWIDTH 24 0
BBX 20 32 2 -1
BITMAP
03FC00
0FFF00
1FFF80
3FFFC0
3FFFC0
7F0FE0
7E07E0
7E07E0
FC03F0
FC03F0
FC03F0
FC03F0
FC03F0
FC03F0
FFFFF0
FFFFF0
FFFFF0
FFFFF0
FFFFF0
FC03F0
FC03F0
FC03F0
FC03F0
FC03F0
7E07E0
7E07E0
7F0FE0
3FFFC0
3FFFC0
1FFF80
0FFF00
03FE00
ENDCHAR
STARTCHAR 03B9
ENCODING 953
SWIDTH 270 0
DWIDTH 12 0
BBX 6 23 3 0
BITMAP
FC
FC
FC
FC
FC
FC
FC
FC
FC
FC
FC
FC
FC
FC
FC
FC
FC
FC
FC
FC
FC
FC
FC
ENDCHAR
STARTCHAR 03BA
ENCODING 954
SWIDTH 562 0
DWIDTH 25 0
BBX 21 23 3 0
BITMAP
FC07F0
FC0FE0
FC1FC0
FC3F80
FC7F00
FCFE00
FDFE00
FDFC00
FFF800
FFF000
FFF000
FFF800
FFFC00
FFFC00
FEFE00
FC7F00
FC3F80
FC3F80
FC1FC0
FC0FE0
FC0FF0
FC07F0
FC03F8
ENDCHAR
STARTCHAR 03BB
ENCODING 955
SWIDTH 562 0
DWIDTH 25 0
BBX 23 32 1 0
BITMAP
07E000
07E000
03F000
03F000
03F800
01F800
01F800
00FC00
00FC00
00FC00
00FE00
01FE00
01FF00
03FF00
03FF00
03FF80
07FF80
07EFC0
07EFC0
0FCFC0
0FC7E0
1F87E0
1F87F0
1F83F0
3F03F0
3F03F8
7F01F8
7E01FC
7E00FC
FC00FC
FC00FE
FC007E
ENDCHAR
STARTCHAR 03BC
ENCODING 956
SWIDTH 607 0
DWIDTH 27 0
BBX 21 32 3 -9
BITMAP
FC01F8
FC01F8
FC01F8
FC01F8
FC01F8
FC01F8
FC01F8
FC01F8
FC01F8
FC01F8
FC01F8
FC01F8
FC01F8
FC01F8
FC01F8
FE01F8
FE03F8
FF07F8
FF8FF8
FFFFF8
FFFFF8
FDFFF8
FCFDF8
FC0000
FC0000
FC0000
FC0000
FC0000
FC0000
FC0000
FC0000
FC0000
ENDCHAR
STARTCHAR 03BD
ENCODING 957
SWIDTH 562 0
DWIDTH 25 0
BBX 24 23 0 0
BITMAP
FE003F
7E007F
7F007E
3F007E
3F00FC
3F80FC
1F81FC
1F81F8
0FC1F8
0FC3F0
0FE3F0
07E3F0
07E7E0
03F7E0
03F7C0
03FFC0
01FFC0
01FF80
00FF80
00FF00
00FF00
007F00
007E00
ENDCHAR
STARTCHAR 03BE
ENCODING 958
SWIDTH 450 0
DWIDTH 20 0
BBX 18 41 2 -9
BITMAP
07FE00
1FFE00
3FFE00
3FFE00
7FFE00
7F0000
7E0000
7E0000
7E0000
7F0000
3FFE00
1FFE00
0FFE00
03FE00
07FE00
1FE000
3F8000
7F0000
7E0000
FE0000
FC0000
FC0000
FC0000
FC0000
FE0000
FF0000
FFC000
7FF800
3FFE00
1FFF00
0FFF80
01FFC0
003FC0
001FC0
001FC0
003FC0
00FF80
00FF80
01FF00
01FE00
01F800
ENDCHAR
STARTCHAR 03BF
ENCODING 959
SWIDTH 607 0
DWIDTH 27 0
BBX 24 25 2 -1
BITMAP
001000
03FF80
07FFE0
1FFFF0
3FFFF8
3FEFFC
7F01FC
7E00FE
FE00FE
FC007E
FC007E
FC007F
FC007F
FC007F
FC007E
FC007E
FE007E
7F00FE
7F81FC
3FEFF8
3FFFF8
1FFFF0
07FFC0
03FF80
001000
ENDCHAR
STARTCHAR 03C0
ENCODING 960
SWIDTH 765 0
DWIDTH 34 0
BBX 32 23 1 0
BITMAP
FFFFFFFF
FFFFFFFF
FFFFFFFF
FFFFFFFF
FFFFFFFF
03F00FC0
03F00FC0
03F00FC0
03F00FC0
03F00FC0
03F00FC0
03F00FC0
03F00FC0
03F00FC0
03F00FC0
03F00FC0
03F00FC0
03F00FC0
03F00FC0
03F00FC0
03F00FC0
03F00FC0
03F00FC0
ENDCHAR
STARTCHAR 03C1
ENCODING 961
SWIDTH 607 0
DWIDTH 27 0
BBX 23 33 3 -9
BITMAP
002000
03FF00
0FFFC0
1FFFE0
3FFFF0
7FEFF8
7F03F8
FE01FC
FC00FC
FC00FC
FC00FE
FC007E
FC007E
FC007E
FC00FE
FC00FE
FC00FC
FE01FC
FF03F8
FFFFF8
FFFFF0
FFFFE0
FFFFC0
FDFF00
FC0000
FC0000
FC0000
FC0000
FC0000
FC0000
FC0000
FC0000
FC0000
ENDCHAR
STARTCHAR 03C2
ENCODING 962
SWIDTH 517 0
DWIDTH 23 0
BBX 20 33 2 -9
BITMAP
000200
00FFF0
03FFF0
07FFF0
0FFFF0
1FFFE0
3FE000
7F8000
7E0000
FE0000
FC0000
FC0000
F80000
F80000
F80000
FC0000
FE0000
7F8000
7FF000
3FFE00
1FFF80
0FFFC0
01FFE0
003FE0
0007F0
0003F0
0003F0
0007F0
01FFE0
01FFE0
01FFC0
01FF80
03FE00
ENDCHAR
STARTCHAR 03C3
ENCODING 963
SWIDTH 675 0
DWIDTH 30 0
BBX 27 25 2 -1
BITMAP
00180000
03FFFFE0
07FFFFE0
1FFFFFE0
3FFFFFE0
3FEFFFE0
7F01FC00
7E00FE00
FE00FE00
FC007E00
FC007E00
FC007E00
FC007E00
FC007E00
FC007E00
FC007E00
FE00FE00
7E00FC00
7F01FC00
3FEFF800
3FFFF800
1FFFF000
0FFFC000
03FF8000
00100000
ENDCHAR
STARTCHAR 03C4
ENCODING 964
SWIDTH 450 0
DWIDTH 20 0
BBX 18 23 1 0
BITMAP
FFFFC0
FFFFC0
FFFFC0
FFFFC0
FFFFC0
03F000
03F000
03F000
03F000
03F000
03F000
03F000
03F000
03F000
03F000
03F000
03F000
03F000
03F000
03F000
03F000
03F000
03F000
ENDCHAR
STARTCHAR 03C5
ENCODING 965
SWIDTH 585 0
DWIDTH 26 0
BBX 20 23 3 -1
BITMAP
FC03F0
FC03F0
FC03F0
FC03F0
FC03F0
FC03F0
FC03F0
FC03F0
FC03F0
FC03F0
FC03F0
FC03F0
FC03F0
FC03F0
FC03F0
FC03F0
FC03F0
FE07E0
7FFFE0
7FFFE0
3FFFC0
1FFF80
07FE00
ENDCHAR
STARTCHAR 03C6
ENCODING 966
SWIDTH 720 0
DWIDTH 32 0
BBX 28 33 2 -9
BITMAP
00404000
07C7FC00
0FCFFF00
1FCFFF80
3F9FFFC0
7F9FDFC0
7F1F8FE0
FE1F87E0
FE1F87F0
FC1F83F0
FC1F83F0
FC1F83F0
FC1F83F0
FC1F83F0
FC1F87F0
FE1F87F0
FE1F87E0
7F1F8FE0
7F9F9FC0
3FFFBFC0
1FFFFF80
0FFFFF00
07FFFE00
01FFF800
003F8000
001F8000
001F8000
001F8000
001F8000
001F8000
001F8000
001F8000
001F8000
ENDCHAR
STARTCHAR 03C7
ENCODING 967
SWIDTH 585 0
DWIDTH 26 0
BBX 24 32 1 -9
BITMAP
FE007E
7E00FE
7F00FC
3F01FC
3F81F8
1F83F8
1FC3F0
0FC7F0
0FE7E0
07EFE0
07FFC0
03FFC0
03FF80
01FF80
00FF00
00FF00
00FF00
01FF00
01FF80
03FFC0
03FFC0
07EFE0
0FE7E0
0FC7F0
1FC3F0
1F83F8
3F81F8
3F01FC
7F00FC
7E00FE
FE007F
FC007F
ENDCHAR
STARTCHAR 03C8
ENCODING 968
SWIDTH 742 0
DWIDTH 33 0
BBX 28 32 3 -9
BITMAP
FC1F83F0
FC1F83F0
FC1F83F0
FC1F83F0
FC1F83F0
FC1F83F0
FC1F83F0
FC1F83F0
FC1F83F0
FC1F83F0
FC1F83F0
FC1F83F0
FC1F83F0
FC1F83F0
FC1F83F0
FC1F87F0
FE1F87E0
FE1F8FE0
7FDFBFE0
7FFFFFC0
3FFFFF80
1FFFFF00
07FFFC00
007FC000
001F8000
001F8000
001F8000
001F8000
001F8000
001F8000
001F8000
001F8000
ENDCHAR
STARTCHAR 03C9
ENCODING 969
SWIDTH 855 0
DWIDTH 38 0
BBX 34 24 2 -1
BITMAP
1F80007E00
3F00007E00
3F00003F00
7E00003F00
7E00003F80
7E00001F80
FE03F01F80
FC03F01F80
FC03F01FC0
FC03F01FC0
FC03F00FC0
FC03F00FC0
FC03F00FC0
FC03F00FC0
FC03F01FC0
FC03F01FC0
FE07F01F80
7F07F83F80
7F9FFCFF00
3FFF7FFF00
1FFF3FFE00
0FFE1FFC00
07FC0FF000
0040000000
ENDCHAR
STARTCHAR 03CA
ENCODING 970
SWIDTH 270 0
DWIDTH 12 0
BBX 14 32 -1 0
BITMAP
F87C
F87C
F87C
F87C
F87C
0000
0000
0000
0000
0FC0
0FC0
0FC0
0FC0
0FC0
0FC0
0FC0
0FC0
0FC0
0FC0
0FC0
0FC0
0FC0
0FC0
0FC0
0FC0
0FC0
0FC0
0FC0
0FC0
0FC0
0FC0
0FC0
ENDCHAR
STARTCHAR 03CB
ENCODING 971
SWIDTH 585 0
DWIDTH 26 0
BBX 20 32 3 -1
BITMAP
1F0F80
1F0F80
1F0F80
1F0F80
1F0F80
000000
000000
000000
000000
FC03F0
FC03F0
FC03F0
FC03F0
FC03F0
FC03F0
FC03F0
FC03F0
FC03F0
FC03F0
FC03F0
FC03F0
FC03F0
FC03F0
FC03F0
FC03F0
FC03F0
FE07E0
7FFFE0
7FFFE0
3FFFC0
1FFF80
07FE00
ENDCHAR
STARTCHAR 03CC
ENCODING 972
SWIDTH 607 0
DWIDTH 27 0
BBX 24 33 2 -1
BITMAP
001FC0
003F00
003E00
007E00
007C00
007800
000000
000000
001000
03FF80
07FFE0
1FFFF0
3FFFF8
3FEFFC
7F01FC
7E00FE
FE00FE
FC007E
FC007E
FC007F
FC007F
FC007F
FC007E
FC007E
FE007E
7F00FE
7F81FC
3FEFF8
3FFFF8
1FFFF0
07FFC0
03FF80
001000
ENDCHAR
STARTCHAR 03CD
ENCODING 973
SWIDTH 585 0
DWIDTH 26 0
BBX 20 32 3 -1
BITMAP
007F00
007E00
00FC00
00F800
01F000
01E000
000000
000000
000000
FC03F0
FC03F0
FC03F0
FC03F0
FC03F0
FC03F0
FC03F0
FC03F0
FC03F0
FC03F0
FC03F0
FC03F0
FC03F0
FC03F0
FC03F0
FC03F0
FC03F0
FE07E0
7FFFE0
7FFFE0
3FFFC0
1FFF80
07FE00
ENDCHAR
STARTCHAR 03CE
ENCODING 974
SWIDTH 855 0
DWIDTH 38 0
BBX 34 33 2 -1
BITMAP
0001F80000
0003F00000
0003E00000
0007C00000
0007800000
000F000000
0000000000
0000000000
0000000000
1F80007E00
3F00007E00
3F00003F00
7E00003F00
7E00003F80
7E00001F80
FE03F01F80
FC03F01F80
FC03F01FC0
FC03F01FC0
FC03F00FC0
FC03F00FC0
FC03F00FC0
FC03F00FC0
FC03F01FC0
FC03F01FC0
FE07F01F80
7F07F83F80
7F9FFCFF00
3FFF7FFF00
1FFF3FFE00
0FFE1FFC00
07FC0FF000
0040000000
ENDCHAR
STARTCHAR 0401
ENCODING 1025
SWIDTH 675 0
DWIDTH 30 0
BBX 24 39 3 0
BITMAP
07C3E0
07C3E0
07C3E0
07C3E0
07C3E0
000000
000000
FFFFFF
FFFFFF
FFFFFF
FFFFFF
FFFFFF
FFFFFF
FE0000
FE0000
FE0000
FE0000
FE0000
FE0000
FE0000
FFFFFE
FFFFFE
FFFFFE
FFFFFE
FFFFFE
FE0000
FE0000
FE0000
FE0000
FE0000
FE0000
FE0000
FE0000
FE0000
FFFFFF
FFFFFF
FFFFFF
FFFFFF
FFFFFF
ENDCHAR
STARTCHAR 0402
ENCODING 1026
SWIDTH 877 0
DWIDTH 39 0
BBX 37 32 1 0
BITMAP
FFFFFF8000
FFFFFF8000
FFFFFF8000
FFFFFF8000
FFFFFF8000
FFFFFF8000
007F000000
007F000000
007F000000
007F000000
007F000000
007F1FFC00
007FFFFF00
007FFFFF80
007FFFFFC0
007FFFFFE0
007FFC7FF0
007FE00FF0
007F8007F0
007F0003F8
007F0003F8
007F0003F8
007F0003F8
007F0003F0
007F0003F0
007F0007F0
007F000FF0
007F03FFE0
007F03FFC0
007F03FF80
007F03FF00
007F03FC00
ENDCHAR
STARTCHAR 0403
ENCODING 1027
SWIDTH 562 0
DWIDTH 25 0
BBX 23 40 3 0
BITMAP
001F80
003F00
003E00
007C00
007C00
00F800
000000
000000
FFFFFE
FFFFFE
FFFFFE
FFFFFE
FFFFFE
FFFFFE
FE0000
FE0000
FE0000
FE0000
FE0000
FE0000
FE0000
FE0000
FE0000
FE0000
FE0000
FE0000
FE0000
FE0000
FE0000
FE0000
FE0000
FE0000
FE0000
FE0000
FE0000
FE0000
FE0000
FE0000
FE0000
FE0000
ENDCHAR
STARTCHAR 0404
ENCODING 1028
SWIDTH 720 0
DWIDTH 32 0
BBX 28 33 2 -1
BITMAP
007FF000
01FFFC00
03FFFF00
07FFFF80
0FFFFFC0
1FF0FFC0
3FC01FE0
3F800FE0
7F000FF0
7F000780
7E000000
FE000000
FE000000
FFFF8000
FFFF8000
FFFF8000
FFFF8000
FFFF8000
FFFF8000
FE000000
FE000400
7E000780
7F0007F0
7F000FE0
3F800FE0
3FC01FE0
1FE07FC0
1FFFFF80
0FFFFF80
07FFFF00
01FFFC00
00FFF000
00020000
ENDCHAR
STARTCHAR 0405
ENCODING 1029
SWIDTH 675 0
DWIDTH 30 0
BBX 25 33 2 -1
BITMAP
01FFC000
07FFF000
1FFFFC00
1FFFFE00
3FFFFE00
7F81FF00
7E007F00
7E007F00
7E003F80
7E003000
7F800000
7FE00000
3FFE0000
3FFFE000
1FFFF800
0FFFFC00
03FFFE00
007FFF00
0007FF80
0000FF80
00003F80
7C001F80
FC001F80
FE001F80
FE001F80
7F003F80
7FC0FF80
3FFFFF00
3FFFFF00
1FFFFE00
0FFFF800
03FFE000
001C0000
ENDCHAR
STARTCHAR 0406
ENCODING 1030
SWIDTH 270 0
DWIDTH 12 0
BBX 6 32 3 0
BITMAP
FC
FC
FC
FC
FC
FC
FC
FC
FC
FC
FC
FC
FC
FC
FC
FC
FC
FC
FC
FC
FC
FC
FC
FC
FC
FC
FC
FC
FC
FC
FC
FC
ENDCHAR
STARTCHAR 0407
ENCODING 1031
SWIDTH 270 0
DWIDTH 12 0
BBX 14 39 -1 0
BITMAP
F87C
F87C
F87C
F87C
F87C
0000
0000
0FC0
0FC0
0FC0
0FC0
0FC0
0FC0
0FC0
0FC0
0FC0
0FC0
0FC0
0FC0
0FC0
0FC0
0FC0
0FC0
0FC0
0FC0
0FC0
0FC0
0FC0
0FC0
0FC0
0FC0
0FC0
0FC0
0FC0
0FC0
0FC0
0FC0
0FC0
0FC0
ENDCHAR
STARTCHAR 0408
ENCODING 1032
SWIDTH 562 0
DWIDTH 25 0
BBX 20 33 1 -1
BITMAP
0003F0
0003F0
0003F0
0003F0
0003F0
0003F0
0003F0
0003F0
0003F0
0003F0
0003F0
0003F0
0003F0
0003F0
0003F0
0003F0
0003F0
0003F0
0003F0
0003F0
0003F0
0003F0
FC03F0
FC03F0
FC07F0
FE07F0
FF0FE0
7FFFE0
7FFFC0
3FFFC0
1FFF80
0FFE00
004000
ENDCHAR
STARTCHAR 0409
ENCODING 1033
SWIDTH 1102 0
DWIDTH 49 0
BBX 46 32 1 0
BITMAP
0FFFFF800000
0FFFFF800000
0FFFFF800000
0FFFFF800000
0FFFFF800000
0FFFFF800000
0FC01F800000
0FC01F800000
0FC01F800000
0FC01F800000
0FC01F800000
0FC01F800000
0FC01F800000
0FC01FFFFE00
0FC01FFFFF80
0FC01FFFFFE0
0FC01FFFFFE0
0FC01FFFFFF0
0FC01F801FF8
0FC01F8003F8
0FC01F8003F8
0FC01F8001F8
0FC01F8001FC
0FC01F8001F8
0FC01F8003F8
0FC01F8003F8
1FC01F803FF8
FFC01FFFFFF0
FF801FFFFFF0
FF801FFFFFE0
FF001FFFFF80
FC001FFFFE00
ENDCHAR
STARTCHAR 040A
ENCODING 1034
SWIDTH 1057 0
DWIDTH 47 0
BBX 42 32 3 0
BITMAP
FE01FC000000
FE01FC000000
FE01FC000000
FE01FC000000
FE01FC000000
FE01FC000000
FE01FC000000
FE01FC000000
FE01FC000000
FE01FC000000
FE01FC000000
FE01FC000000
FE01FC000000
FFFFFFFFF000
FFFFFFFFFC00
FFFFFFFFFE00
FFFFFFFFFF00
FFFFFFFFFF80
FE01FC00FF80
FE01FC003FC0
FE01FC001FC0
FE01FC001FC0
FE01FC001FC0
FE01FC001FC0
FE01FC001FC0
FE01FC003FC0
FE01FC01FF80
FE01FFFFFF80
FE01FFFFFF00
FE01FFFFFE00
FE01FFFFFC00
FE01FFFFF000
ENDCHAR
STARTCHAR 040B
ENCODING 1035
SWIDTH 877 0
DWIDTH 39 0
BBX 35 32 1 0
BITMAP
FFFFFF8000
FFFFFF8000
FFFFFF8000
FFFFFF8000
FFFFFF8000
FFFFFF8000
003F000000
003F000000
003F000000
003F000000
003F000000
003F3FF800
003FFFFE00
003FFFFF00
003FFFFF80
003FFFFFC0
003FE07FC0
003F001FC0
003F000FE0
003F000FE0
003F000FE0
003F000FE0
003F000FE0
003F000FE0
003F000FE0
003F000FE0
003F000FE0
003F000FE0
003F000FE0
003F000FE0
003F000FE0
003F000FE0
ENDCHAR
STARTCHAR 040C
ENCODING 1036
SWIDTH 607 0
DWIDTH 27 0
BBX 23 40 3 0
BITMAP
003F80
007F00
007E00
007C00
00F800
00F000
000000
000000
FE003E
FE00FE
FE01FE
FE03FE
FE03FE
FE07E0
FE07C0
FE0FC0
FE0F80
FE1F80
FE1F80
FE3F00
FE3F00
FEFE00
FFFC00
FFF800
FFFE00
FFFF00
FE7F80
FE3F80
FE1FC0
FE1FC0
FE0FE0
FE0FF0
FE07F0
FE07F8
FE03F8
FE03F8
FE01FC
FE01FC
FE01FE
FE00FE
ENDCHAR
STARTCHAR 040D
ENCODING 1037
SWIDTH 720 0
DWIDTH 32 0
BBX 26 40 3 0
BITMAP
03F80000
01F80000
00FC0000
007C0000
003E0000
001E0000
00000000
00000000
FC001FC0
FC003FC0
FC003FC0
FC007FC0
FC007FC0
FC00FFC0
FC01FFC0
FC01FFC0
FC03FFC0
FC03FFC0
FC07FFC0
FC0FEFC0
FC0FEFC0
FC1FCFC0
FC1FCFC0
FC3F8FC0
FC7F0FC0
FC7F0FC0
FCFE0FC0
FDFC0FC0
FDFC0FC0
FFF80FC0
FFF80FC0
FFF00FC0
FFE00FC0
FFE00FC0
FFC00FC0
FFC00FC0
FF800FC0
FF000FC0
FF000FC0
FE000FC0
ENDCHAR
STARTCHAR 040E
ENCODING 1038
SWIDTH 630 0
DWIDTH 28 0
BBX 28 40 0 0
BITMAP
01E03800
00E03800
00F07000
00FFF000
007FE000
003FC000
00000000
00000000
FE0007F0
7F000FE0
7F000FE0
3F800FC0
3F801FC0
1FC01F80
1FC01F80
0FC03F00
0FE03F00
07E07F00
07F07E00
03F07E00
03F8FC00
01F8FC00
01FDF800
00FDF800
00FFF000
007FF000
007FF000
003FE000
003FE000
001FC000
001FC000
000F8000
001F8000
001F0000
003F0000
0FFE0000
0FFE0000
0FFC0000
0FF80000
0FF00000
ENDCHAR
STARTCHAR 040F
ENCODING 1039
SWIDTH 720 0
DWIDTH 32 0
BBX 26 41 3 -9
BITMAP
FE001FC0
FE001FC0
FE001FC0
FE001FC0
FE001FC0
FE001FC0
FE001FC0
FE001FC0
FE001FC0
FE001FC0
FE001FC0
FE001FC0
FE001FC0
FE001FC0
FE001FC0
FE001FC0
FE001FC0
FE001FC0
FE001FC0
FE001FC0
FE001FC0
FE001FC0
FE001FC0
FE001FC0
FE001FC0
FE001FC0
FE001FC0
FFFFFFC0
FFFFFFC0
FFFFFFC0
FFFFFFC0
FFFFFFC0
003F0000
003F0000
003F0000
003F0000
003F0000
003F0000
003F0000
003F0000
003F0000
ENDCHAR
STARTCHAR 0410
ENCODING 1040
SWIDTH 720 0
DWIDTH 32 0
BBX 32 32 0 0
BITMAP
000FE000
000FF000
001FF000
001FF800
001FF800
003FF800
003FFC00
003FFC00
007EFE00
007EFE00
00FE7E00
00FC7F00
00FC7F00
01FC3F80
01F83F80
03F81F80
03F01FC0
03F01FC0
07F00FE0
07FFFFE0
0FFFFFE0
0FFFFFF0
0FFFFFF0
1FFFFFF8
1FFFFFF8
1F8003F8
3F8001FC
3F0001FC
7F0000FE
7F0000FE
7E0000FE
FE00007F
ENDCHAR
STARTCHAR 0411
ENCODING 1041
SWIDTH 720 0
DWIDTH 32 0
BBX 27 32 3 0
BITMAP
FFFFFF00
FFFFFF00
FFFFFF00
FFFFFF00
FFFFFF00
FFFFFF00
FE000000
FE000000
FE000000
FE000000
FE000000
FE000000
FE000000
FFFFF000
FFFFFE00
FFFFFF00
FFFFFF80
FFFFFFC0
FE00FFC0
FE001FE0
FE000FE0
FE000FE0
FE000FE0
FE000FE0
FE000FE0
FE001FE0
FE01FFC0
FFFFFFC0
FFFFFF80
FFFFFF00
FFFFFE00
FFFFF000
ENDCHAR
STARTCHAR 0412
ENCODING 1042
SWIDTH 720 0
DWIDTH 32 0
BBX 27 32 3 0
BITMAP
FFFFC000
FFFFF800
FFFFFE00
FFFFFF00
FFFFFF00
FE3FFF80
FE003F80
FE001F80
FE001F80
FE001F80
FE001F80
FE003F80
FE00FF00
FFFFFE00
FFFFFC00
FFFFFC00
FFFFFF00
FFFFFF80
FE00FFC0
FE001FC0
FE000FE0
FE000FE0
FE000FE0
FE000FE0
FE000FE0
FE001FE0
FE00FFC0
FFFFFFC0
FFFFFF80
FFFFFF00
FFFFFE00
FFFFF000
ENDCHAR
STARTCHAR 0413
ENCODING 1043
SWIDTH 562 0
DWIDTH 25 0
BBX 21 32 4 0
BITMAP
FFFFF8
FFFFF8
FFFFF8
FFFFF8
FFFFF8
FFFFF8
FC0000
FC0000
FC0000
FC0000
FC0000
FC0000
FC0000
FC0000
FC0000
FC0000
FC0000
FC0000
FC0000
FC0000
FC0000
FC0000
FC0000
FC0000
FC0000
FC0000
FC0000
FC0000
FC0000
FC0000
FC0000
FC0000
ENDCHAR
STARTCHAR 0414
ENCODING 1044
SWIDTH 720 0
DWIDTH 32 0
BBX 31 39 0 -7
BITMAP
03FFFFF0
03FFFFF0
03FFFFF0
03FFFFF0
03FFFFF0
03FFFFF0
03F007F0
03F007F0
03F007F0
03F007F0
03F007F0
03F007F0
03F007F0
03F007F0
07F007F0
07F007F0
07E007F0
07E007F0
07E007F0
07E007F0
07E007F0
0FE007F0
0FE007F0
0FC007F0
0FC007F0
1FC007F0
1F8007F0
FFFFFFFE
FFFFFFFE
FFFFFFFE
FFFFFFFE
FFFFFFFE
F800007E
F800007E
F800007E
F800007E
F800007E
F800007E
F800007E
ENDCHAR
STARTCHAR 0415
ENCODING 1045
SWIDTH 675 0
DWIDTH 30 0
BBX 24 32 3 0
BITMAP
FFFFFF
FFFFFF
FFFFFF
FFFFFF
FFFFFF
FFFFFF
FE0000
FE0000
FE0000
FE0000
FE0000
FE0000
FE0000
FFFFFE
FFFFFE
FFFFFE
FFFFFE
FFFFFE
FE0000
FE0000
FE0000
FE0000
FE0000
FE0000
FE0000
FE0000
FE0000
FFFFFF
FFFFFF
FFFFFF
FFFFFF
FFFFFF
ENDCHAR
STARTCHAR 0416
ENCODING 1046
SWIDTH 900 0
DWIDTH 40 0
BBX 38 32 1 0
BITMAP
F800FC007C
FF00FC01FC
FF80FC03FC
FF80FC07FC
FFC0FC0FFC
0FC0FC0FC0
07E0FC1F80
07E0FC1F80
03F0FC1F00
03F0FC3F00
01F0FC3E00
01F8FC7E00
01F8FC7E00
00FEFDFC00
007FFFF800
003FFFF000
007FFFFC00
01FFFFFE00
01FCFCFF00
03F8FC7F00
07F8FC3F80
07F0FC3F80
0FF0FC1FC0
0FE0FC1FC0
1FE0FC0FE0
1FC0FC0FE0
3FC0FC07F0
3F80FC07F0
7F80FC07F8
7F00FC03F8
FF00FC03FC
FE00FC01FC
ENDCHAR
STARTCHAR 0417
ENCODING 1047
SWIDTH 630 0
DWIDTH 28 0
BBX 24 33 1 -1
BITMAP
01FFC0
07FFF0
1FFFF8
3FFFFC
3FFFFC
7F81FE
7F00FE
7E007E
06007E
00007E
00007E
0000FC
0001FC
0007F8
003FE0
003FE0
003FF8
003FFC
003FFE
0000FF
00007F
00007F
00003F
0C003F
FE007F
FE007F
7F00FF
7FFFFE
3FFFFE
1FFFFC
0FFFF8
03FFE0
000800
ENDCHAR
STARTCHAR 0418
ENCODING 1048
SWIDTH 720 0
DWIDTH 32 0
BBX 26 32 3 0
BITMAP
FC001FC0
FC003FC0
FC003FC0
FC007FC0
FC007FC0
FC00FFC0
FC01FFC0
FC01FFC0
FC03FFC0
FC03FFC0
FC07FFC0
FC0FEFC0
FC0FEFC0
FC1FCFC0
FC1FCFC0
FC3F8FC0
FC7F0FC0
FC7F0FC0
FCFE0FC0
FDFC0FC0
FDFC0FC0
FFF80FC0
FFF80FC0
FFF00FC0
FFE00FC0
FFE00FC0
FFC00FC0
FFC00FC0
FF800FC0
FF000FC0
FF000FC0
FE000FC0
ENDCHAR
STARTCHAR 0419
ENCODING 1049
SWIDTH 720 0
DWIDTH 32 0
BBX 26 40 3 0
BITMAP
03807000
03C07000
01C0E000
01FFE000
00FFC000
007F8000
000C0000
00000000
FC001FC0
FC003FC0
FC003FC0
FC007FC0
FC007FC0
FC00FFC0
FC01FFC0
FC01FFC0
FC03FFC0
FC03FFC0
FC07FFC0
FC0FEFC0
FC0FEFC0
FC1FCFC0
FC1FCFC0
FC3F8FC0
FC7F0FC0
FC7F0FC0
FCFE0FC0
FDFC0FC0
FDFC0FC0
FFF80FC0
FFF80FC0
FFF00FC0
FFE00FC0
FFE00FC0
FFC00FC0
FFC00FC0
FF800FC0
FF000FC0
FF000FC0
FE000FC0
ENDCHAR
STARTCHAR 041A
ENCODING 1050
SWIDTH 607 0
DWIDTH 27 0
BBX 23 32 3 0
BITMAP
FE003E
FE00FE
FE01FE
FE03FE
FE03FE
FE07E0
FE07C0
FE0FC0
FE0F80
FE1F80
FE1F80
FE3F00
FE3F00
FEFE00
FFFC00
FFF800
FFFE00
FFFF00
FE7F80
FE3F80
FE1FC0
FE1FC0
FE0FE0
FE0FF0
FE07F0
FE07F8
FE03F8
FE03F8
FE01FC
FE01FC
FE01FE
FE00FE
ENDCHAR
STARTCHAR 041B
ENCODING 1051
SWIDTH 697 0
DWIDTH 31 0
BBX 27 32 1 0
BITMAP
0FFFFFE0
0FFFFFE0
0FFFFFE0
0FFFFFE0
0FFFFFE0
0FFFFFE0
0FE00FE0
0FE00FE0
0FE00FE0
0FE00FE0
0FE00FE0
0FE00FE0
0FE00FE0
0FE00FE0
0FE00FE0
0FE00FE0
0FE00FE0
0FE00FE0
0FE00FE0
0FE00FE0
0FE00FE0
07E00FE0
07E00FE0
07E00FE0
07E00FE0
0FE00FE0
0FE00FE0
FFC00FE0
FFC00FE0
FFC00FE0
FF800FE0
FF000FE0
ENDCHAR
STARTCHAR 041C
ENCODING 1052
SWIDTH 832 0
DWIDTH 37 0
BBX 31 32 3 0
BITMAP
FFC007FE
FFC007FE
FFC007FE
FFE00FFE
FFE00FFE
FFE00FFE
FFE00FFE
FFF01FFE
FFF01FFE
FDF01F7E
FDF01F7E
FDF83F7E
FDF83E7E
FCF83E7E
FCFC7E7E
FCFC7E7E
FCFC7C7E
FC7C7C7E
FC7EFC7E
FC7EFC7E
FC7EF87E
FC3EF87E
FC3FF87E
FC3FF87E
FC1FF07E
FC1FF07E
FC1FF07E
FC1FF07E
FC0FE07E
FC0FE07E
FC0FE07E
FC0FE07E
ENDCHAR
STARTCHAR 041D
ENCODING 1053
SWIDTH 720 0
DWIDTH 32 0
BBX 26 32 3 0
BITMAP
FE001FC0
FE001FC0
FE001FC0
FE001FC0
FE001FC0
FE001FC0
FE001FC0
FE001FC0
FE001FC0
FE001FC0
FE001FC0
FE001FC0
FE001FC0
FFFFFFC0
FFFFFFC0
FFFFFFC0
FFFFFFC0
FFFFFFC0
FE001FC0
FE001FC0
FE001FC0
FE001FC0
FE001FC0
FE001FC0
FE001FC0
FE001FC0
FE001FC0
FE001FC0
FE001FC0
FE001FC0
FE001FC0
FE001FC0
ENDCHAR
STARTCHAR 041E
ENCODING 1054
SWIDTH 787 0
DWIDTH 35 0
BBX 31 33 2 -1
BITMAP
003FF800
01FFFE00
03FFFF80
07FFFFC0
0FFFFFE0
1FF83FF0
3FE00FF8
3F8007F8
7F0003FC
7F0001FC
7E0001FC
FE0000FC
FE0000FE
FE0000FE
FE0000FE
FE0000FE
FE0000FE
FE0000FE
FE0000FE
FE0000FE
FE0000FC
7E0001FC
7F0001FC
7F0003FC
3F8007F8
3FC00FF8
1FF01FF0
1FFFFFE0
0FFFFFC0
03FFFF80
01FFFF00
007FFC00
00010000
ENDCHAR
STARTCHAR 041F
ENCODING 1055
SWIDTH 720 0
DWIDTH 32 0
BBX 26 32 3 0
BITMAP
FFFFFFC0
FFFFFFC0
FFFFFFC0
FFFFFFC0
FFFFFFC0
FFFFFFC0
FE001FC0
FE001FC0
FE001FC0
FE001FC0
FE001FC0
FE001FC0
FE001FC0
FE001FC0
FE001FC0
FE001FC0
FE001FC0
FE001FC0
FE001FC0
FE001FC0
FE001FC0
FE001FC0
FE001FC0
FE001FC0
FE001FC0
FE001FC0
FE001FC0
FE001FC0
FE001FC0
FE001FC0
FE001FC0
FE001FC0
ENDCHAR
STARTCHAR 0420
ENCODING 1056
SWIDTH 675 0
DWIDTH 30 0
BBX 25 32 3 0
BITMAP
FFFE0000
FFFFF000
FFFFFC00
FFFFFE00
FFFFFE00
FFFFFF00
FE00FF00
FE007F00
FE003F80
FE003F80
FE003F80
FE003F80
FE007F00
FE00FF00
FE07FF00
FFFFFE00
FFFFFC00
FFFFFC00
FFFFF000
FFFFC000
FE000000
FE000000
FE000000
FE000000
FE000000
FE000000
FE000000
FE000000
FE000000
FE000000
FE000000
FE000000
ENDCHAR
STARTCHAR 0421
ENCODING 1057
SWIDTH 720 0
DWIDTH 32 0
BBX 28 33 2 -1
BITMAP
003FF000
01FFFC00
03FFFF00
07FFFF80
0FFFFFC0
1FF07FC0
3FC01FE0
3F800FE0
7F0007F0
7F000780
7E000000
7E000000
FE000000
FE000000
FE000000
FE000000
FE000000
FE000000
FE000000
FE000000
FE000000
7E000780
7F0007F0
7F000FE0
3F800FE0
3FC01FE0
1FF07FC0
0FFFFF80
0FFFFF80
03FFFF00
01FFFC00
007FF000
00020000
ENDCHAR
STARTCHAR 0422
ENCODING 1058
SWIDTH 607 0
DWIDTH 27 0
BBX 25 32 1 0
BITMAP
FFFFFF80
FFFFFF80
FFFFFF80
FFFFFF80
FFFFFF80
FFFFFF80
007F0000
007F0000
007F0000
007F0000
007F0000
007F0000
007F0000
007F0000
007F0000
007F0000
007F0000
007F0000
007F0000
007F0000
007F0000
007F0000
007F0000
007F0000
007F0000
007F0000
007F0000
007F0000
007F0000
007F0000
007F0000
007F0000
ENDCHAR
STARTCHAR 0423
ENCODING 1059
SWIDTH 630 0
DWIDTH 28 0
BBX 28 32 0 0
BITMAP
FE0007F0
7F000FE0
7F000FE0
3F800FC0
3F801FC0
1FC01F80
1FC01F80
0FC03F00
0FE03F00
07E07F00
07F07E00
03F07E00
03F8FC00
01F8FC00
01FDF800
00FDF800
00FFF000
007FF000
007FF000
003FE000
003FE000
001FC000
001FC000
000F8000
001F8000
001F0000
003F0000
0FFE0000
0FFE0000
0FFC0000
0FF80000
0FF00000
ENDCHAR
STARTCHAR 0424
ENCODING 1060
SWIDTH 855 0
DWIDTH 38 0
BBX 34 32 2 0
BITMAP
0003F00000
0003F00000
0003F00000
000FFC0000
01FFFFE000
07FFFFF800
0FFFFFFC00
1FFFFFFE00
3FFFFFFF00
7F83F0FF80
7F03F03F80
7E03F01F80
FE03F01FC0
FC03F00FC0
FC03F00FC0
FC03F00FC0
FC03F00FC0
FC03F00FC0
FE03F00FC0
FE03F01FC0
7F03F01F80
7F03F03F80
3FE3F1FF00
3FFFFFFF00
1FFFFFFE00
0FFFFFFC00
03FFFFF000
00FFFFC000
0003F00000
0003F00000
0003F00000
0003F00000
ENDCHAR
STARTCHAR 0425
ENCODING 1061
SWIDTH 675 0
DWIDTH 30 0
BBX 29 32 0 0
BITMAP
7F8007F0
3F800FF0
3FC00FE0
1FE01FC0
0FE01FC0
0FF03F80
07F07F80
03F87F00
03FCFE00
01FDFE00
00FFFC00
00FFF800
007FF800
003FF000
003FE000
001FE000
003FE000
007FF000
007FF800
00FFF800
00FFFC00
01FDFE00
03FCFE00
03F8FF00
07F87F80
0FF03F80
0FE03FC0
1FE01FE0
3FC00FE0
3F800FF0
7F8007F8
FF0007F8
ENDCHAR
STARTCHAR 0426
ENCODING 1062
SWIDTH 720 0
DWIDTH 32 0
BBX 28 39 3 -7
BITMAP
FE001FC0
FE001FC0
FE001FC0
FE001FC0
FE001FC0
FE001FC0
FE001FC0
FE001FC0
FE001FC0
FE001FC0
FE001FC0
FE001FC0
FE001FC0
FE001FC0
FE001FC0
FE001FC0
FE001FC0
FE001FC0
FE001FC0
FE001FC0
FE001FC0
FE001FC0
FE001FC0
FE001FC0
FE001FC0
FE001FC0
FE001FC0
FFFFFFF0
FFFFFFF0
FFFFFFF0
FFFFFFF0
FFFFFFF0
000001F0
000001F0
000001F0
000001F0
000001F0
000001F0
000001F0
ENDCHAR
STARTCHAR 0427
ENCODING 1063
SWIDTH 697 0
DWIDTH 31 0
BBX 25 32 3 0
BITMAP
FC003F80
FC003F80
FC003F80
FC003F80
FC003F80
FC003F80
FC003F80
FC003F80
FC003F80
FC003F80
FC003F80
FC003F80
FC003F80
FE003F80
FF007F80
FFC7FF80
7FFFFF80
3FFFFF80
1FFFFF80
0FFFFF80
01FE3F80
00003F80
00003F80
00003F80
00003F80
00003F80
00003F80
00003F80
00003F80
00003F80
00003F80
00003F80
ENDCHAR
STARTCHAR 0428
ENCODING 1064
SWIDTH 1012 0
DWIDTH 45 0
BBX 38 32 3 0
BITMAP
FE00FC00FC
FE00FC00FC
FE00FC00FC
FE00FC00FC
FE00FC00FC
FE00FC00FC
FE00FC00FC
FE00FC00FC
FE00FC00FC
FE00FC00FC
FE00FC00FC
FE00FC00FC
FE00FC00FC
FE00FC00FC
FE00FC00FC
FE00FC00FC
FE00FC00FC
FE00FC00FC
FE00FC00FC
FE00FC00FC
FE00FC00FC
FE00FC00FC
FE00FC00FC
FE00FC00FC
FE00FC00FC
FE00FC00FC
FE00FC00FC
FFFFFFFFFC
FFFFFFFFFC
FFFFFFFFFC
FFFFFFFFFC
FFFFFFFFFC
ENDCHAR
STARTCHAR 0429
ENCODING 1065
SWIDTH 1012 0
DWIDTH 45 0
BBX 41 39 3 -7
BITMAP
FE00FC00FC00
FE00FC00FC00
FE00FC00FC00
FE00FC00FC00
FE00FC00FC00
FE00FC00FC00
FE00FC00FC00
FE00FC00FC00
FE00FC00FC00
FE00FC00FC00
FE00FC00FC00
FE00FC00FC00
FE00FC00FC00
FE00FC00FC00
FE00FC00FC00
FE00FC00FC00
FE00FC00FC00
FE00FC00FC00
FE00FC00FC00
FE00FC00FC00
FE00FC00FC00
FE00FC00FC00
FE00FC00FC00
FE00FC00FC00
FE00FC00FC00
FE00FC00FC00
FE00FC00FC00
FFFFFFFFFF80
FFFFFFFFFF80
FFFFFFFFFF80
FFFFFFFFFF80
FFFFFFFFFF80
000000000F80
000000000F80
000000000F80
000000000F80
000000000F80
000000000F80
000000000F80
ENDCHAR
STARTCHAR 042A
ENCODING 1066
SWIDTH 877 0
DWIDTH 39 0
BBX 36 32 1 0
BITMAP
FFFE000000
FFFE000000
FFFE000000
FFFE000000
FFFE000000
FFFE000000
007E000000
007E000000
007E000000
007E000000
007E000000
007E000000
007E000000
007FFFF800
007FFFFE00
007FFFFF80
007FFFFFC0
007FFFFFC0
007E007FE0
007E000FE0
007E000FE0
007E0007F0
007E0007F0
007E0007F0
007E000FE0
007E000FE0
007E00FFE0
007FFFFFC0
007FFFFFC0
007FFFFF80
007FFFFE00
007FFFF800
ENDCHAR
STARTCHAR 042B
ENCODING 1067
SWIDTH 990 0
DWIDTH 44 0
BBX 37 32 3 0
BITMAP
FE000001F8
FE000001F8
FE000001F8
FE000001F8
FE000001F8
FE000001F8
FE000001F8
FE000001F8
FE000001F8
FE000001F8
FE000001F8
FE000001F8
FE000001F8
FFFFF001F8
FFFFFE01F8
FFFFFF01F8
FFFFFF81F8
FFFFFFC1F8
FE00FFC1F8
FE001FE1F8
FE000FE1F8
FE000FE1F8
FE000FE1F8
FE000FE1F8
FE000FE1F8
FE001FE1F8
FE00FFC1F8
FFFFFFC1F8
FFFFFF81F8
FFFFFF01F8
FFFFFE01F8
FFFFF801F8
ENDCHAR
STARTCHAR 042C
ENCODING 1068
SWIDTH 720 0
DWIDTH 32 0
BBX 27 32 3 0
BITMAP
FE000000
FE000000
FE000000
FE000000
FE000000
FE000000
FE000000
FE000000
FE000000
FE000000
FE000000
FE000000
FE000000
FFFFF000
FFFFFE00
FFFFFF00
FFFFFF80
FFFFFFC0
FE00FFC0
FE001FC0
FE000FE0
FE000FE0
FE000FE0
FE000FE0
FE000FE0
FE001FE0
FE01FFC0
FFFFFFC0
FFFFFF80
FFFFFF00
FFFFFE00
FFFFF000
ENDCHAR
STARTCHAR 042D
ENCODING 1069
SWIDTH 720 0
DWIDTH 32 0
BBX 28 33 2 -1
BITMAP
00FFC000
07FFF800
0FFFFC00
1FFFFE00
3FFFFF00
7FE1FF80
7F807F80
FF003FC0
FE001FC0
3E000FE0
00000FE0
000007E0
000007E0
001FFFF0
001FFFF0
001FFFF0
001FFFF0
001FFFF0
001FFFF0
000007F0
000007E0
1E000FE0
FE000FE0
FE000FE0
7F001FC0
7F803FC0
7FE0FF80
3FFFFF00
1FFFFE00
0FFFFC00
07FFF800
01FFE000
000C0000
ENDCHAR
STARTCHAR 042E
ENCODING 1070
SWIDTH 1035 0
DWIDTH 46 0
BBX 41 33 3 -1
BITMAP
FE0007FF0000
FE001FFFC000
FE007FFFE000
FE00FFFFF800
FE01FFFFF800
FE01FF0FFC00
FE03FC03FE00
FE07F800FE00
FE07F000FF00
FE07E0007F00
FE0FE0007F00
FE0FE0003F00
FE0FE0003F80
FFFFC0003F80
FFFFC0003F80
FFFFC0003F80
FFFFC0003F80
FFFFC0003F80
FFFFC0003F80
FE0FE0003F80
FE0FE0003F00
FE0FE0003F00
FE07E0007F00
FE07F0007F00
FE07F800FE00
FE03F801FE00
FE03FE03FC00
FE01FFFFFC00
FE00FFFFF800
FE007FFFF000
FE003FFFC000
FE000FFF0000
000000200000
ENDCHAR
STARTCHAR 042F
ENCODING 1071
SWIDTH 720 0
DWIDTH 32 0
BBX 29 32 0 0
BITMAP
003FFFF8
01FFFFF8
07FFFFF8
0FFFFFF8
0FFFFFF8
1FFFFFF8
1FE003F8
1FC003F8
1F8003F8
1F8003F8
1F8003F8
1FC003F8
1FC003F8
0FFC03F8
0FFFFFF8
07FFFFF8
01FFFFF8
007FFFF8
003FFFF8
007F83F8
00FF03F8
01FE03F8
03FC03F8
07F803F8
07F803F8
0FF003F8
0FE003F8
1FE003F8
3FC003F8
3F8003F8
7F8003F8
FF0003F8
ENDCHAR
STARTCHAR 0430
ENCODING 1072
SWIDTH 562 0
DWIDTH 25 0
BBX 21 25 2 -1
BITMAP
002000
0FFF00
1FFFC0
3FFFE0
7FFFE0
7F0FF0
FC03F0
1C03F0
0003F0
000FF0
00FFF0
0FFFF0
3FFFF0
7FF3F0
FF03F0
FC03F0
FC03F0
FC03F0
FC07F0
FE0FF0
FFFFF0
7FFFF0
3FF9F8
1FF1F8
010000
ENDCHAR
STARTCHAR 0431
ENCODING 1073
SWIDTH 607 0
DWIDTH 27 0
BBX 24 34 2 -1
BITMAP
00003E
001FFE
01FFFC
07FFFC
1FFFF8
1FFFF0
3F8000
3E0000
7C0000
780000
783F00
F1FFC0
F3FFE0
F7FFF0
F7FFF8
FF83FC
FF01FC
FE00FE
FE007E
FC007E
FC007F
FC007F
FC007F
FC007E
7E007E
7E00FE
7F00FE
7F81FC
3FFFFC
1FFFF8
0FFFF0
07FFE0
03FF80
001000
ENDCHAR
STARTCHAR 0432
ENCODING 1074
SWIDTH 607 0
DWIDTH 27 0
BBX 23 23 3 0
BITMAP
FFFFC0
FFFFF0
FFFFF8
FFFFF8
FC01FC
FC01FC
FC00FC
FC00FC
FC01F8
FC1FF8
FFFFE0
FFFFE0
FFFFF8
FC07F8
FC00FC
FC00FC
FC00FE
FC00FE
FC01FC
FFFFFC
FFFFF8
FFFFF0
FFFFC0
ENDCHAR
STARTCHAR 0433
ENCODING 1075
SWIDTH 427 0
DWIDTH 19 0
BBX 16 23 3 0
BITMAP
FFFF
FFFF
FFFF
FFFF
FFFF
FC00
FC00
FC00
FC00
FC00
FC00
FC00
FC00
FC00
FC00
FC00
FC00
FC00
FC00
FC00
FC00
FC00
FC00
ENDCHAR
STARTCHAR 0434
ENCODING 1076
SWIDTH 630 0
DWIDTH 28 0
BBX 27 29 0 -6
BITMAP
03FFFF80
03FFFF80
03FFFF80
03FFFF80
03FFFF80
03E01F80
03E01F80
03E01F80
03E01F80
03E01F80
07E01F80
07E01F80
07E01F80
07C01F80
0FC01F80
0FC01F80
1F801F80
1F801F80
FFFFFFE0
FFFFFFE0
FFFFFFE0
FFFFFFE0
FFFFFFE0
F80003E0
F80003E0
F80003E0
F80003E0
F80003E0
F80003E0
ENDCHAR
STARTCHAR 0435
ENCODING 1077
SWIDTH 562 0
DWIDTH 25 0
BBX 22 25 1 -1
BITMAP
003000
03FF00
07FFC0
0FFFE0
1FFFF0
3F87F0
3F03F8
7E01F8
7E00F8
7E00FC
7E00FC
FFFFFC
FFFFFC
FFFFFC
7E0000
7E0000
7E0000
7E01F0
3F01F8
3FC3F8
1FFFF0
1FFFE0
07FFC0
03FF80
001000
ENDCHAR
STARTCHAR 0436
ENCODING 1078
SWIDTH 720 0
DWIDTH 32 0
BBX 31 23 0 0
BITMAP
7C07E07E
7F07E0FE
7F07E1FE
7F87E1FE
0F87E3F0
07C7E3E0
07C7E3C0
07C7E7C0
03E7E7C0
03FFFF80
01FFFF00
00FFFF00
03FFFF80
07E7EFC0
07E7E7E0
0FC7E3F0
1F87E3F0
1F87E1F8
3F07E1F8
3F07E1FC
7F07E0FC
7E07E0FE
FE07E07E
ENDCHAR
STARTCHAR 0437
ENCODING 1079
SWIDTH 495 0
DWIDTH 22 0
BBX 19 25 1 -1
BITMAP
004000
07FE00
1FFF00
3FFF80
7FFFC0
7E0FC0
FC0FC0
0407C0
0007C0
000FC0
007F80
00FF00
00FE00
00FF80
00FFC0
000FE0
0007E0
1807E0
FC07E0
FE0FE0
7FFFE0
7FFFC0
3FFF80
0FFE00
004000
ENDCHAR
STARTCHAR 0438
ENCODING 1080
SWIDTH 607 0
DWIDTH 27 0
BBX 21 23 3 0
BITMAP
FC01F8
FC03F8
FC03F8
FC07F8
FC0FF8
FC0FF8
FC1FF8
FC3FF8
FC3FF8
FC7FF8
FCFDF8
FCF9F8
FDF9F8
FFF1F8
FFE1F8
FFE1F8
FFC1F8
FF81F8
FF81F8
FF01F8
FF01F8
FE01F8
FC01F8
ENDCHAR
STARTCHAR 0439
ENCODING 1081
SWIDTH 607 0
DWIDTH 27 0
BBX 21 32 3 0
BITMAP
0E03C0
0F0380
078780
07FF00
03FE00
00F800
000000
000000
000000
FC01F8
FC03F8
FC03F8
FC07F8
FC0FF8
FC0FF8
FC1FF8
FC3FF8
FC3FF8
FC7FF8
FCFDF8
FCF9F8
FDF9F8
FFF1F8
FFE1F8
FFE1F8
FFC1F8
FF81F8
FF81F8
FF01F8
FF01F8
FE01F8
FC01F8
ENDCHAR
STARTCHAR 043A
ENCODING 1082
SWIDTH 495 0
DWIDTH 22 0
BBX 19 23 3 0
BITMAP
FC07C0
FC0FC0
FC1FC0
FC3FC0
FC3E00
FC3C00
FC7C00
FC7C00
FCF800
FFF800
FFF000
FFF000
FFF800
FCFC00
FC7E00
FC7E00
FC3F00
FC3F00
FC1F80
FC1F80
FC0FC0
FC0FC0
FC0FE0
ENDCHAR
STARTCHAR 043B
ENCODING 1083
SWIDTH 630 0
DWIDTH 28 0
BBX 24 23 1 0
BITMAP
0FFFFF
0FFFFF
0FFFFF
0FFFFF
0FFFFF
0FC03F
0FC03F
0FC03F
0FC03F
0FC03F
0FC03F
0FC03F
0FC03F
0FC03F
0FC03F
0FC03F
0FC03F
0FC03F
1FC03F
FF803F
FF803F
FF803F
FF003F
ENDCHAR
STARTCHAR 043C
ENCODING 1084
SWIDTH 742 0
DWIDTH 33 0
BBX 27 23 3 0
BITMAP
FF001FE0
FF001FE0
FF801FE0
FF803FE0
FFC03FE0
FFC07FE0
FFC07FE0
FFE07FE0
FFE0FFE0
FFE0FBE0
FFF0FBE0
FDF1F3E0
FDF1F3E0
FCF9F3E0
FCFBE3E0
FCFBE3E0
FC7FE3E0
FC7FC3E0
FC7FC3E0
FC3F83E0
FC3F83E0
FC3F83E0
FC1F03E0
ENDCHAR
STARTCHAR 043D
ENCODING 1085
SWIDTH 607 0
DWIDTH 27 0
BBX 21 23 3 0
BITMAP
FC01F8
FC01F8
FC01F8
FC01F8
FC01F8
FC01F8
FC01F8
FC01F8
FFFFF8
FFFFF8
FFFFF8
FFFFF8
FFFFF8
FC01F8
FC01F8
FC01F8
FC01F8
FC01F8
FC01F8
FC01F8
FC01F8
FC01F8
FC01F8
ENDCHAR
STARTCHAR 043E
ENCODING 1086
SWIDTH 607 0
DWIDTH 27 0
BBX 24 25 2 -1
BITMAP
001000
03FF80
07FFE0
1FFFF0
3FFFF8
3FEFFC
7F01FC
7E00FE
FE00FE
FC007E
FC007E
FC007F
FC007F
FC007F
FC007E
FC007E
FE007E
7F00FE
7F81FC
3FEFF8
3FFFF8
1FFFF0
07FFC0
03FF80
001000
ENDCHAR
STARTCHAR 043F
ENCODING 1087
SWIDTH 607 0
DWIDTH 27 0
BBX 20 23 3 0
BITMAP
FFFFF0
FFFFF0
FFFFF0
FFFFF0
FFFFF0
FC03F0
FC03F0
FC03F0
FC03F0
FC03F0
FC03F0
FC03F0
FC03F0
FC03F0
FC03F0
FC03F0
FC03F0
FC03F0
FC03F0
FC03F0
FC03F0
FC03F0
FC03F0
ENDCHAR
STARTCHAR 0440
ENCODING 1088
SWIDTH 607 0
DWIDTH 27 0
BBX 22 33 3 -9
BITMAP
000C00
FC7F80
FDFFE0
FFFFF0
FFFFF0
FFCFF8
FF03FC
FE01FC
FE00FC
FC00FC
FC00FC
FC00FC
FC00FC
FC00FC
FC00FC
FC00FC
FE00FC
FE01FC
FF03F8
FFEFF8
FFFFF0
FFFFF0
FDFFC0
FC7F80
FC0000
FC0000
FC0000
FC0000
FC0000
FC0000
FC0000
FC0000
FC0000
ENDCHAR
STARTCHAR 0441
ENCODING 1089
SWIDTH 562 0
DWIDTH 25 0
BBX 22 25 2 -1
BITMAP
003000
03FF00
0FFFC0
1FFFE0
3FFFF0
3FC7F0
7F03F8
7E01F8
FE0180
FC0000
FC0000
FC0000
FC0000
FC0000
FC0000
FC00C0
FE01FC
7E01F8
7F03F8
7FEFF0
3FFFF0
1FFFE0
0FFFC0
03FF00
002000
ENDCHAR
STARTCHAR 0442
ENCODING 1090
SWIDTH 495 0
DWIDTH 22 0
BBX 21 23 0 0
BITMAP
FFFFF8
FFFFF8
FFFFF8
FFFFF8
FFFFF8
00FC00
00FC00
00FC00
00FC00
00FC00
00FC00
00FC00
00FC00
00FC00
00FC00
00FC00
00FC00
00FC00
00FC00
00FC00
00FC00
00FC00
00FC00
ENDCHAR
STARTCHAR 0443
ENCODING 1091
SWIDTH 562 0
DWIDTH 25 0
BBX 24 32 0 -9
BITMAP
FE007F
7E007E
7F007E
3F007E
3F00FC
3F80FC
1F80FC
1F81F8
0FC1F8
0FC1F0
0FC3F0
07E3F0
07E3E0
07E7E0
03F7E0
03F7C0
01FFC0
01FFC0
01FF80
00FF80
00FF00
00FF00
007F00
007E00
007E00
00FE00
01FC00
3FFC00
3FF800
3FF800
3FF000
3FC000
ENDCHAR
STARTCHAR 0444
ENCODING 1092
SWIDTH 877 0
DWIDTH 39 0
BBX 35 41 2 -9
BITMAP
0003F80000
0003F80000
0003F80000
0003F80000
0003F80000
0003F80000
0003F80000
0003F80000
0083F82000
07F3F9FC00
0FFBFBFF00
1FFFFFFF00
3FFFFFFF80
7F8FFE3FC0
7F07FC1FC0
7E03FC0FC0
FE03F80FE0
FC03F80FE0
FC03F807E0
FC03F007E0
FC03F007E0
FC03F007E0
FC03F807E0
FC03F80FE0
FE03F80FE0
7E07F80FC0
7F07FC1FC0
7F9FFE3F80
3FFFFFFF80
1FFFFFFF00
1FFBFBFE00
07F3F9FC00
0083F80000
0003F80000
0003F80000
0003F80000
0003F80000
0003F80000
0003F80000
0003F80000
0003F80000
ENDCHAR
STARTCHAR 0445
ENCODING 1093
SWIDTH 562 0
DWIDTH 25 0
BBX 23 23 1 0
BITMAP
FE01FC
7F03F8
7F83F8
3F87F0
1FCFE0
0FEFE0
0FFFC0
07FF80
03FF00
03FF00
01FE00
01FE00
01FF00
03FF80
07FF80
07FFC0
0FEFE0
1FCFE0
3F87F0
3F87F8
7F03FC
FE01FC
FE01FE
ENDCHAR
STARTCHAR 0446
ENCODING 1094
SWIDTH 607 0
DWIDTH 27 0
BBX 23 29 3 -6
BITMAP
FC01F8
FC01F8
FC01F8
FC01F8
FC01F8
FC01F8
FC01F8
FC01F8
FC01F8
FC01F8
FC01F8
FC01F8
FC01F8
FC01F8
FC01F8
FC01F8
FC01F8
FC01F8
FFFFFE
FFFFFE
FFFFFE
FFFFFE
FFFFFE
00003E
00003E
00003E
00003E
00003E
00003E
ENDCHAR
STARTCHAR 0447
ENCODING 1095
SWIDTH 585 0
DWIDTH 26 0
BBX 21 23 2 0
BITMAP
FE01F8
FE01F8
FE01F8
FE01F8
FE01F8
FE01F8
7E01F8
7E01F8
7E01F8
7F01F8
7FFFF8
3FFFF8
1FFFF8
0FFFF8
01F1F8
0001F8
0001F8
0001F8
0001F8
0001F8
0001F8
0001F8
0001F8
ENDCHAR
STARTCHAR 0448
ENCODING 1096
SWIDTH 832 0
DWIDTH 37 0
BBX 31 23 3 0
BITMAP
FC07C07E
FC07C07E
FC07C07E
FC07C07E
FC07C07E
FC07C07E
FC07C07E
FC07C07E
FC07C07E
FC07C07E
FC07C07E
FC07C07E
FC07C07E
FC07C07E
FC07C07E
FC07C07E
FC07C07E
FC07C07E
FFFFFFFE
FFFFFFFE
FFFFFFFE
FFFFFFFE
FFFFFFFE
ENDCHAR
STARTCHAR 0449
ENCODING 1097
SWIDTH 855 0
DWIDTH 38 0
BBX 34 29 3 -6
BITMAP
FC07C07E00
FC07C07E00
FC07C07E00
FC07C07E00
FC07C07E00
FC07C07E00
FC07C07E00
FC07C07E00
FC07C07E00
FC07C07E00
FC07C07E00
FC07C07E00
FC07C07E00
FC07C07E00
FC07C07E00
FC07C07E00
FC07C07E00
FC07C07E00
FFFFFFFFC0
FFFFFFFFC0
FFFFFFFFC0
FFFFFFFFC0
FFFFFFFFC0
00000007C0
00000007C0
00000007C0
00000007C0
00000007C0
00000007C0
ENDCHAR
STARTCHAR 044A
ENCODING 1098
SWIDTH 720 0
DWIDTH 32 0
BBX 30 23 1 0
BITMAP
FFF80000
FFF80000
FFF80000
FFF80000
FFF80000
01F80000
01F80000
01F80000
01F80000
01F80000
01FFFFC0
01FFFFF0
01FFFFF8
01F80FF8
01F801F8
01F801FC
01F801FC
01F801FC
01F803F8
01FFFFF8
01FFFFF0
01FFFFE0
01FFFF80
ENDCHAR
STARTCHAR 044B
ENCODING 1099
SWIDTH 855 0
DWIDTH 38 0
BBX 32 23 3 0
BITMAP
FC00003F
FC00003F
FC00003F
FC00003F
FC00003F
FC00003F
FC00003F
FC00003F
FC00003F
FC00003F
FFFFE03F
FFFFF83F
FFFFF83F
FC07FC3F
FC00FC3F
FC00FC3F
FC00FC3F
FC00FC3F
FC01FC3F
FFFFFC3F
FFFFF83F
FFFFF03F
FFFFC03F
ENDCHAR
STARTCHAR 044C
ENCODING 1100
SWIDTH 607 0
DWIDTH 27 0
BBX 23 23 3 0
BITMAP
FC0000
FC0000
FC0000
FC0000
FC0000
FC0000
FC0000
FC0000
FC0000
FC0000
FFFFE0
FFFFF8
FFFFF8
FC07FC
FC00FC
FC00FE
FC00FE
FC00FC
FC01FC
FFFFFC
FFFFF8
FFFFF0
FFFFC0
ENDCHAR
STARTCHAR 044D
ENCODING 1101
SWIDTH 562 0
DWIDTH 25 0
BBX 22 25 1 -1
BITMAP
002000
07FF00
0FFFC0
1FFFE0
3FFFF0
7F8FF0
7E03F8
0E01F8
0001F8
0001FC
0001FC
007FFC
007FFC
007FFC
0001FC
0001FC
0C01F8
FE03F8
7E03F8
7F8FF0
3FFFF0
1FFFE0
0FFFC0
07FF00
002000
ENDCHAR
STARTCHAR 044E
ENCODING 1102
SWIDTH 855 0
DWIDTH 38 0
BBX 33 25 3 -1
BITMAP
0000060000
FC007FE000
FC01FFF800
FC03FFFC00
FC07FFFE00
FC07F0FF00
FC0FE07F00
FC0FC03F00
FC1FC03F80
FC1F801F80
FFFF801F80
FFFF801F80
FFFF801F80
FFFF801F80
FFFF801F80
FC1F801F80
FC1FC03F80
FC0FC03F80
FC0FE07F00
FC07F9FF00
FC07FFFE00
FC03FFFC00
FC01FFF800
FC007FE000
0000020000
ENDCHAR
STARTCHAR 044F
ENCODING 1103
SWIDTH 585 0
DWIDTH 26 0
BBX 23 23 0 0
BITMAP
03FFFE
0FFFFE
1FFFFE
1FFFFE
3F807E
3F007E
3F007E
3F007E
3F807E
3FC07E
1FFFFE
0FFFFE
07FFFE
01FE7E
03F87E
07F07E
0FE07E
1FC07E
1FC07E
3F807E
3F807E
7F007E
FE007E
ENDCHAR
STARTCHAR 0451
ENCODING 1105
SWIDTH 562 0
DWIDTH 25 0
BBX 22 33 1 -1
BITMAP
0F87E0
0F87E0
0F87E0
0F87E0
0F87E0
000000
000000
000000
003000
03FF00
07FFC0
0FFFE0
1FFFF0
3F87F0
3F03F8
7E01F8
7E00F8
7E00FC
7E00FC
FFFFFC
FFFFFC
FFFFFC
7E0000
7E0000
7E0000
7E01F0
3F01F8
3FC3F8
1FFFF0
1FFFE0
07FFC0
03FF80
001000
ENDCHAR
STARTCHAR 0452
ENCODING 1106
SWIDTH 607 0
DWIDTH 27 0
BBX 24 41 0 -9
BITMAP
1F8000
1F8000
1F8000
FFFF80
FFFF80
FFFF80
1F8000
1F8000
1F8080
1F8FF8
1F9FFC
1FBFFE
1FFFFE
1FF0FF
1FE07F
1FC03F
1FC03F
1F803F
1F803F
1F803F
1F803F
1F803F
1F803F
1F803F
1F803F
1F803F
1F803F
1F803F
1F803F
1F803F
1F803F
1F803F
00003F
00003F
00003F
00003F
00037F
0003FF
0007FE
0007FE
0007F8
ENDCHAR
STARTCHAR 0453
ENCODING 1107
SWIDTH 427 0
DWIDTH 19 0
BBX 16 32 3 0
BITMAP
07F0
07E0
07C0
0F80
0F00
1E00
0000
0000
0000
FFFF
FFFF
FFFF
FFFF
FFFF
FC00
FC00
FC00
FC00
FC00
FC00
FC00
FC00
FC00
FC00
FC00
FC00
FC00
FC00
FC00
FC00
FC00
FC00
ENDCHAR
STARTCHAR 0454
ENCODING 1108
SWIDTH 562 0
DWIDTH 25 0
BBX 21 25 2 -1
BITMAP
002000
03FF00
0FFFC0
1FFFE0
3FFFF0
7F8FF0
7E03F8
FE0180
FC0000
FC0000
FC0000
FFF800
FFF800
FFF800
FC0000
FC0000
FE0180
FE01F8
7F03F8
7FC7F0
3FFFF0
1FFFE0
0FFFC0
07FF00
002000
ENDCHAR
STARTCHAR 0455
ENCODING 1109
SWIDTH 562 0
DWIDTH 25 0
BBX 22 25 1 -1
BITMAP
002000
07FF80
1FFFC0
3FFFE0
3FFFF0
7E03F0
7E01F8
7E0100
7F8000
7FF800
3FFF00
3FFFE0
1FFFF0
07FFF8
00FFF8
000FF8
0001FC
FE01FC
FE01F8
7F03F8
7FFFF0
3FFFF0
1FFFE0
07FF80
001000
ENDCHAR
STARTCHAR 0456
ENCODING 1110
SWIDTH 270 0
DWIDTH 12 0
BBX 6 32 3 0
BITMAP
FC
FC
FC
FC
FC
FC
00
00
00
FC
FC
FC
FC
FC
FC
FC
FC
FC
FC
FC
FC
FC
FC
FC
FC
FC
FC
FC
FC
FC
FC
FC
ENDCHAR
STARTCHAR 0457
ENCODING 1111
SWIDTH 292 0
DWIDTH 13 0
BBX 15 32 -1 0
BITMAP
F87E
F87E
F87E
F87E
F87E
0000
0000
0000
0000
0FC0
0FC0
0FC0
0FC0
0FC0
0FC0
0FC0
0FC0
0FC0
0FC0
0FC0
0FC0
0FC0
0FC0
0FC0
0FC0
0FC0
0FC0
0FC0
0FC0
0FC0
0FC0
0FC0
ENDCHAR
STARTCHAR 0458
ENCODING 1112
SWIDTH 270 0
DWIDTH 12 0
BBX 11 41 -2 -9
BITMAP
07E0
07E0
07E0
07E0
07E0
07E0
0000
0000
0000
07E0
07E0
07E0
07E0
07E0
07E0
07E0
07E0
07E0
07E0
07E0
07E0
07E0
07E0
07E0
07E0
07E0
07E0
07E0
07E0
07E0
07E0
07E0
07E0
07E0
07E0
1FE0
7FE0
7FE0
FFC0
FF80
FF00
ENDCHAR
STARTCHAR 0459
ENCODING 1113
SWIDTH 967 0
DWIDTH 43 0
BBX 40 23 1 0
BITMAP
0FFFFF0000
0FFFFF0000
0FFFFF0000
0FFFFF0000
0FFFFF0000
0FC03F0000
0FC03F0000
0FC03F0000
0FC03F0000
0FC03F0000
0FC03FFFF8
0FC03FFFFC
0FC03FFFFE
0FC03F01FF
0FC03F007F
0FC03F003F
0FC03F003F
0FC03F003F
FFC03F007F
FFC03FFFFF
FF803FFFFE
FF003FFFFC
FE003FFFE0
ENDCHAR
STARTCHAR 045A
ENCODING 1114
SWIDTH 900 0
DWIDTH 40 0
BBX 35 23 3 0
BITMAP
FC07E00000
FC07E00000
FC07E00000
FC07E00000
FC07E00000
FC07E00000
FC07E00000
FC07E00000
FFFFFFF000
FFFFFFFF00
FFFFFFFFC0
FFFFFFFFC0
FFFFFFFFE0
FC07E03FE0
FC07E007E0
FC07E007E0
FC07E007E0
FC07E007E0
FC07E00FE0
FC07FFFFE0
FC07FFFFC0
FC07FFFF80
FC07FFFE00
ENDCHAR
STARTCHAR 045B
ENCODING 1115
SWIDTH 607 0
DWIDTH 27 0
BBX 24 32 0 0
BITMAP
1F8000
1F8000
1F8000
FFFF80
FFFF80
FFFF80
1F8000
1F8000
1F8080
1F8FF8
1F9FFC
1FBFFE
1FFFFE
1FF0FF
1FE07F
1FC03F
1FC03F
1F803F
1F803F
1F803F
1F803F
1F803F
1F803F
1F803F
1F803F
1F803F
1F803F
1F803F
1F803F
1F803F
1F803F
1F803F
ENDCHAR
STARTCHAR 045C
ENCODING 1116
SWIDTH 495 0
DWIDTH 22 0
BBX 19 32 3 0
BITMAP
00FE00
00FC00
01F800
01F000
03E000
03C000
000000
000000
000000
FC07C0
FC0FC0
FC1FC0
FC3FC0
FC3E00
FC3C00
FC7C00
FC7C00
FCF800
FFF800
FFF000
FFF000
FFF800
FCFC00
FC7E00
FC7E00
FC3F00
FC3F00
FC1F80
FC1F80
FC0FC0
FC0FC0
FC0FE0
ENDCHAR
STARTCHAR 045D
ENCODING 1117
SWIDTH 607 0
DWIDTH 27 0
BBX 21 32 3 0
BITMAP
0FE000
07E000
03F000
01F000
00F800
007800
000000
000000
000000
FC01F8
FC03F8
FC03F8
FC07F8
FC0FF8
FC0FF8
FC1FF8
FC3FF8
FC3FF8
FC7FF8
FCFDF8
FCF9F8
FDF9F8
FFF1F8
FFE1F8
FFE1F8
FFC1F8
FF81F8
FF81F8
FF01F8
FF01F8
FE01F8
FC01F8
ENDCHAR
STARTCHAR 045E
ENCODING 1118
SWIDTH 562 0
DWIDTH 25 0
BBX 24 41 0 -9
BITMAP
0380E0
0380E0
03E3C0
01FFC0
00FF80
003E00
000000
000000
000000
FE007F
7E007E
7F007E
3F007E
3F00FC
3F80FC
1F80FC
1F81F8
0FC1F8
0FC1F0
0FC3F0
07E3F0
07E3E0
07E7E0
03F7E0
03F7C0
01FFC0
01FFC0
01FF80
00FF80
00FF00
00FF00
007F00
007E00
007E00
00FE00
01FC00
3FFC00
3FF800
3FF800
3FF000
3FC000
ENDCHAR
STARTCHAR 045F
ENCODING 1119
SWIDTH 607 0
DWIDTH 27 0
BBX 21 29 3 -6
BITMAP
FC01F8
FC01F8
FC01F8
FC01F8
FC01F8
FC01F8
FC01F8
FC01F8
FC01F8
FC01F8
FC01F8
FC01F8
FC01F8
FC01F8
FC01F8
FC01F8
FC01F8
FC01F8
FFFFF8
FFFFF8
FFFFF8
FFFFF8
FFFFF8
00F800
00F800
00F800
00F800
00F800
00F800
ENDCHAR
STARTCHAR 0490
ENCODING 1168
SWIDTH 495 0
DWIDTH 22 0
BBX 17 39 3 0
BITMAP
000F80
000F80
000F80
000F80
000F80
000F80
000F80
FFFF80
FFFF80
FFFF80
FFFF80
FFFF80
FFFF80
FE0000
FE0000
FE0000
FE0000
FE0000
FE0000
FE0000
FE0000
FE0000
FE0000
FE0000
FE0000
FE0000
FE0000
FE0000
FE0000
FE0000
FE0000
FE0000
FE0000
FE0000
FE0000
FE0000
FE0000
FE0000
FE0000
ENDCHAR
STARTCHAR 0491
ENCODING 1169
SWIDTH 450 0
DWIDTH 20 0
BBX 15 29 3 0
BITMAP
001E
001E
001E
001E
001E
001E
FFFE
FFFE
FFFE
FFFE
FFFE
FC00
FC00
FC00
FC00
FC00
FC00
FC00
FC00
FC00
FC00
FC00
FC00
FC00
FC00
FC00
FC00
FC00
FC00
ENDCHAR
STARTCHAR 0492
ENCODING 1170
SWIDTH 562 0
DWIDTH 25 0
BBX 25 32 0 0
BITMAP
0FFFFF80
0FFFFF80
0FFFFF80
0FFFFF80
0FFFFF80
0FFFFF80
0FC00000
0FC00000
0FC00000
0FC00000
0FC00000
0FC00000
0FC00000
0FC00000
FFFF0000
FFFF0000
FFFF0000
FFFF0000
0FC00000
0FC00000
0FC00000
0FC00000
0FC00000
0FC00000
0FC00000
0FC00000
0FC00000
0FC00000
0FC00000
0FC00000
0FC00000
0FC00000
ENDCHAR
STARTCHAR 0493
ENCODING 1171
SWIDTH 427 0
DWIDTH 19 0
BBX 19 23 0 0
BITMAP
1FFFE0
1FFFE0
1FFFE0
1FFFE0
1FFFE0
1F8000
1F8000
1F8000
1F8000
1F8000
FFF800
FFF800
FFF800
FFF800
1F8000
1F8000
1F8000
1F8000
1F8000
1F8000
1F8000
1F8000
1F8000
ENDCHAR
STARTCHAR 0496
ENCODING 1174
SWIDTH 900 0
DWIDTH 40 0
BBX 39 39 1 -7
BITMAP
F800FC007C
FF00FC01FC
FF80FC03FC
FF80FC07FC
FFC0FC0FFC
0FC0FC0FC0
07E0FC1F80
03E0FC1F80
03F0FC1F00
03F0FC3F00
01F0FC3E00
01F8FC7E00
00FCFC7E00
00FEFDFC00
007FFFF800
003FFFF000
007FFFFC00
00FFFFFE00
01FCFCFF00
03F8FC7F00
07F8FC3F80
07F0FC3F80
0FF0FC1FC0
0FE0FC1FC0
1FE0FC0FE0
1FC0FC0FE0
3FC0FC07F0
3F80FC07FE
7F80FC07FE
7F00FC03FE
FF00FC03FE
FE00FC01FE
000000007E
000000007E
000000007E
000000007E
000000007E
000000007E
000000007E
ENDCHAR
STARTCHAR 0497
ENCODING 1175
SWIDTH 720 0
DWIDTH 32 0
BBX 32 29 0 -6
BITMAP
7C07E07E
7F07E0FE
7F07E1FE
7F87E1FE
0F87E3F0
07C7E3E0
07C7E3C0
07C7E7C0
03E7E7C0
03FFFF80
01FFFF00
00FFFF00
03FFFFC0
07E7EFE0
0FC7E7E0
0FC7E3F0
1F87E3F0
1F87E1F8
3F07E1FF
3F07E1FF
7F07E0FF
7E07E0FF
FE07E07F
0000001F
0000001F
0000001F
0000001F
0000001F
0000001F
ENDCHAR
STARTCHAR 049A
ENCODING 1178
SWIDTH 607 0
DWIDTH 27 0
BBX 24 39 3 -7
BITMAP
FE003E
FE00FE
FE01FE
FE03FE
FE07FE
FE07E0
FE07C0
FE0FC0
FE0F80
FE1F80
FE1F80
FE3F00
FE3F00
FEFE00
FFFC00
FFF800
FFFE00
FFFF00
FE7F80
FE3F80
FE1FC0
FE1FE0
FE0FE0
FE0FF0
FE07F0
FE07F0
FE03F8
FE03FF
FE01FF
FE01FF
FE01FF
FE00FF
00003F
00003F
00003F
00003F
00003F
00003F
00003F
ENDCHAR
STARTCHAR 049B
ENCODING 1179
SWIDTH 495 0
DWIDTH 22 0
BBX 19 29 3 -6
BITMAP
FC07C0
FC0FC0
FC1FC0
FC3FC0
FC3E00
FC3C00
FC7C00
FC7C00
FCF800
FFF800
FFF000
FFF000
FFF800
FCFC00
FC7E00
FC7E00
FC3F00
FC3F00
FC1FE0
FC1FE0
FC0FE0
FC0FE0
FC0FE0
0003E0
0003E0
0003E0
0003E0
0003E0
0003E0
ENDCHAR
STARTCHAR 049C
ENCODING 1180
SWIDTH 607 0
DWIDTH 27 0
BBX 23 32 3 0
BITMAP
FE003E
FE00FE
FE01FE
FE03FE
FE07FE
FE67E0
FE67C0
FE6FC0
FE6F80
FE7F80
FE7F80
FE7F00
FE7F00
FEFE00
FFFC00
FFF800
FFFE00
FFFF00
FE7F80
FE7F80
FE7FC0
FE7FE0
FE6FE0
FE6FF0
FE67F0
FE67F8
FE63F8
FE03F8
FE01FC
FE01FC
FE01FE
FE00FE
ENDCHAR
STARTCHAR 049D
ENCODING 1181
SWIDTH 495 0
DWIDTH 22 0
BBX 19 23 3 0
BITMAP
FC07C0
FC0FC0
FC9FC0
FCBFC0
FCBE00
FCBC00
FCFC00
FCFC00
FCF800
FFF800
FFF000
FFF000
FFF800
FCFC00
FCFE00
FCFE00
FCBF00
FCBF00
FC9F80
FC9F80
FC0FC0
FC0FC0
FC0FE0
ENDCHAR
STARTCHAR 04A2
ENCODING 1186
SWIDTH 720 0
DWIDTH 32 0
BBX 28 39 3 -7
BITMAP
FE001FC0
FE001FC0
FE001FC0
FE001FC0
FE001FC0
FE001FC0
FE001FC0
FE001FC0
FE001FC0
FE001FC0
FE001FC0
FE001FC0
FE001FC0
FFFFFFC0
FFFFFFC0
FFFFFFC0
FFFFFFC0
FFFFFFC0
FE001FC0
FE001FC0
FE001FC0
FE001FC0
FE001FC0
FE001FC0
FE001FC0
FE001FC0
FE001FC0
FE001FF0
FE001FF0
FE001FF0
FE001FF0
FE001FF0
000001F0
000001F0
000001F0
000001F0
000001F0
000001F0
000001F0
ENDCHAR
STARTCHAR 04A3
ENCODING 1187
SWIDTH 607 0
DWIDTH 27 0
BBX 23 29 3 -6
BITMAP
FC01F8
FC01F8
FC01F8
FC01F8
FC01F8
FC01F8
FC01F8
FC01F8
FFFFF8
FFFFF8
FFFFF8
FFFFF8
FFFFF8
FC01F8
FC01F8
FC01F8
FC01F8
FC01F8
FC01FE
FC01FE
FC01FE
FC01FE
FC01FE
00003E
00003E
00003E
00003E
00003E
00003E
ENDCHAR
STARTCHAR 04AE
ENCODING 1198
SWIDTH 562 0
DWIDTH 25 0
BBX 24 32 0 0
BITMAP
FE003F
7E007F
7F007E
3F00FE
3F80FC
1F81FC
1FC1F8
0FC3F8
0FE3F0
07E7F0
07F7E0
03F7E0
03FFC0
01FFC0
01FF80
00FF80
00FF00
007F00
007E00
007E00
007E00
007E00
007E00
007E00
007E00
007E00
007E00
007E00
007E00
007E00
007E00
007E00
ENDCHAR
STARTCHAR 04AF
ENCODING 1199
SWIDTH 562 0
DWIDTH 25 0
BBX 23 32 1 -9
BITMAP
FC007E
FC007E
FE00FC
7E00FC
7E01FC
3F01F8
3F01F8
3F03F0
1F83F0
1F83F0
1F87E0
0FC7E0
0FC7E0
07CFC0
07EFC0
07EF80
03FF80
03FF80
01FF00
01FF00
01FE00
00FE00
00FE00
00FE00
00FE00
00FE00
00FE00
00FE00
00FE00
00FE00
00FE00
00FE00
ENDCHAR
STARTCHAR 04B0
ENCODING 1200
SWIDTH 562 0
DWIDTH 25 0
BBX 24 32 0 0
BITMAP
FE003F
7E007F
7F007E
3F00FE
3F80FC
1F81FC
1FC1F8
0FC3F8
0FE3F0
07E7F0
07F7E0
03F7E0
03FFC0
01FFC0
7FFFFE
7FFFFE
7FFFFE
7FFFFE
7FFFFE
007E00
007E00
007E00
007E00
007E00
007E00
007E00
007E00
007E00
007E00
007E00
007E00
007E00
ENDCHAR
STARTCHAR 04B1
ENCODING 1201
SWIDTH 562 0
DWIDTH 25 0
BBX 23 32 1 -9
BITMAP
FC007E
FC007E
FE00FC
7E00FC
7E01FC
3F01F8
3F01F8
3F03F0
1F83F0
1F83F0
1F87E0
0FC7E0
0FC7E0
07CFC0
07EFC0
07EF80
03FF80
03FF80
01FF00
01FF00
01FE00
00FE00
00FE00
3FFFF8
3FFFF8
3FFFF8
3FFFF8
00FE00
00FE00
00FE00
00FE00
00FE00
ENDCHAR
STARTCHAR 04B2
ENCODING 1202
SWIDTH 675 0
DWIDTH 30 0
BBX 30 39 0 -7
BITMAP
7F8007F0
3F800FF0
3FC00FE0
1FE01FC0
0FE01FC0
0FF03F80
07F07F80
03F87F00
03FCFE00
01FDFE00
00FFFC00
00FFF800
007FF800
003FF000
003FE000
001FE000
003FE000
007FF000
007FF800
00FFF800
00FFFC00
01FDFE00
03FCFE00
03F8FF00
07F87F80
0FF03F80
0FE03FC0
1FE01FFC
3FC00FFC
3F800FFC
7F8007FC
FF0007FC
000000FC
000000FC
000000FC
000000FC
000000FC
000000FC
000000FC
ENDCHAR
STARTCHAR 04B3
ENCODING 1203
SWIDTH 562 0
DWIDTH 25 0
BBX 23 29 1 -6
BITMAP
FE01FC
7F03F8
7F83F8
3F87F0
1FCFE0
0FEFE0
0FFFC0
07FF80
03FF00
03FF00
01FE00
01FE00
01FF00
03FF80
07FF80
07FFC0
0FEFE0
1FCFF0
3F87FE
3F87FE
7F03FE
FE01FE
FE01FE
00003E
00003E
00003E
00003E
00003E
00003E
ENDCHAR
STARTCHAR 04B8
ENCODING 1208
SWIDTH 697 0
DWIDTH 31 0
BBX 25 32 3 0
BITMAP
FC003F80
FC003F80
FC003F80
FC003F80
FC003F80
FC003F80
FC003F80
FC3C3F80
FC3C3F80
FC3C3F80
FC3C3F80
FC3C3F80
FC3C3F80
FE3C3F80
FF3C7F80
FFFFFF80
7FFFFF80
3FFFFF80
1FFFFF80
0FFFFF80
01FE3F80
003C3F80
003C3F80
003C3F80
003C3F80
003C3F80
003C3F80
00003F80
00003F80
00003F80
00003F80
00003F80
ENDCHAR
STARTCHAR 04B9
ENCODING 1209
SWIDTH 585 0
DWIDTH 26 0
BBX 21 23 2 0
BITMAP
FE01F8
FE01F8
FE01F8
FE01F8
FE31F8
FE31F8
FE31F8
7E31F8
7E31F8
7F31F8
7FFFF8
3FFFF8
1FFFF8
0FFFF8
01F1F8
0031F8
0031F8
0031F8
0031F8
0001F8
0001F8
0001F8
0001F8
ENDCHAR
STARTCHAR 04BA
ENCODING 1210
SWIDTH 697 0
DWIDTH 31 0
BBX 26 32 3 0
BITMAP
FE000000
FE000000
FE000000
FE000000
FE000000
FE000000
FE000000
FE000000
FE000000
FE000000
FE000000
FE0FC000
FEFFF800
FFFFFC00
FFFFFF00
FFFFFF00
FFFFFF80
FF007F80
FE003F80
FE001F80
FE001FC0
FE001FC0
FE001FC0
FE001FC0
FE001FC0
FE001FC0
FE001FC0
FE001FC0
FE001FC0
FE001FC0
FE001FC0
FE001FC0
ENDCHAR
STARTCHAR 04BB
ENCODING 1211
SWIDTH 607 0
DWIDTH 27 0
BBX 21 32 3 0
BITMAP
FC0000
FC0000
FC0000
FC0000
FC0000
FC0000
FC0000
FC0000
FC0400
FC7FC0
FCFFE0
FDFFF0
FFFFF0
FF87F8
FF03F8
FE01F8
FE01F8
FC01F8
FC01F8
FC01F8
FC01F8
FC01F8
FC01F8
FC01F8
FC01F8
FC01F8
FC01F8
FC01F8
FC01F8
FC01F8
FC01F8
FC01F8
ENDCHAR
STARTCHAR 04D8
ENCODING 1240
SWIDTH 720 0
DWIDTH 32 0
BBX 28 33 2 -1
BITMAP
00FFE000
03FFF800
07FFFE00
0FFFFF00
1FFFFF80
3FF0FFC0
3FC03FC0
7F801FE0
7F000FE0
1E0007F0
000007F0
000007F0
000003F0
FFFFFFF0
FFFFFFF0
FFFFFFF0
FFFFFFF0
FFFFFFF0
FFFFFFF0
FE0003F0
FE0007F0
7E0007F0
7F0007F0
7F000FE0
3F800FE0
3FC01FC0
1FE07FC0
1FFFFF80
0FFFFF00
07FFFE00
01FFFC00
00FFF000
00060000
ENDCHAR
STARTCHAR 04D9
ENCODING 1241
SWIDTH 562 0
DWIDTH 25 0
BBX 21 25 2 -1
BITMAP
002000
07FF00
1FFF80
3FFFC0
3FFFE0
7F0FF0
FE03F0
7C03F8
0001F8
0001F8
0001F8
FFFFF8
FFFFF8
FFFFF8
FC01F8
FC01F8
FC01F8
7E03F0
7E03F0
7F8FF0
3FFFE0
1FFFC0
0FFF80
03FE00
002000
ENDCHAR
STARTCHAR 04E8
ENCODING 1256
SWIDTH 787 0
DWIDTH 35 0
BBX 31 33 2 -1
BITMAP
003FF800
01FFFE00
03FFFF80
07FFFFC0
0FFFFFE0
1FF83FF0
3FC00FF0
3F8007F8
7F0003F8
7F0001FC
7E0001FC
FE0000FC
FE0000FC
FFFFFFFE
FFFFFFFE
FFFFFFFE
FFFFFFFE
FFFFFFFE
FFFFFFFE
FE0000FC
FE0000FC
FE0001FC
7F0001FC
7F0003F8
3F8007F8
3FC00FF8
1FF03FF0
1FFFFFE0
0FFFFFC0
07FFFF80
01FFFF00
007FFC00
00010000
ENDCHAR
STARTCHAR 04E9
ENCODING 1257
SWIDTH 607 0
DWIDTH 27 0
BBX 24 25 2 -1
BITMAP
001000
03FF80
07FFE0
1FFFF0
1FFFF8
3FEFFC
7F01FC
7E00FE
FE00FE
FC007E
FC007E
FFFFFF
FFFFFF
FFFFFF
FC007E
FC007E
FE00FE
7F00FE
7F81FC
3FEFFC
3FFFF8
1FFFF0
07FFE0
03FF80
001000
ENDCHAR
STARTCHAR 05B0
ENCODING 1456
SWIDTH 337 0
DWIDTH 15 0
BBX 3 8 6 -9
BITMAP
E0
E0
E0
C0
00
E0
E0
E0
ENDCHAR
STARTCHAR 05B1
ENCODING 1457
SWIDTH 337 0
DWIDTH 15 0
BBX 13 8 1 -9
BITMAP
E730
E738
E738
4630
0000
3838
3C38
3838
ENDCHAR
STARTCHAR 05B2
ENCODING 1458
SWIDTH 337 0
DWIDTH 15 0
BBX 13 8 1 -9
BITMAP
FE30
FE78
FE78
0030
0000
0070
0078
0070
ENDCHAR
STARTCHAR 05B3
ENCODING 1459
SWIDTH 337 0
DWIDTH 15 0
BBX 13 8 1 -9
BITMAP
FE30
FE78
FE78
3830
3800
3870
0078
0070
ENDCHAR
STARTCHAR 05B4
ENCODING 1460
SWIDTH 337 0
DWIDTH 15 0
BBX 3 4 6 -8
BITMAP
40
E0
E0
E0
ENDCHAR
STARTCHAR 05B5
ENCODING 1461
SWIDTH 337 0
DWIDTH 15 0
BBX 9 4 3 -8
BITMAP
4100
E380
E780
E380
ENDCHAR
STARTCHAR 05B6
ENCODING 1462
SWIDTH 337 0
DWIDTH 15 0
BBX 9 8 3 -9
BITMAP
E300
E780
E780
4300
0000
1C00
1C00
1C00
ENDCHAR
STARTCHAR 05B7
ENCODING 1463
SWIDTH 337 0
DWIDTH 15 0
BBX 9 2 3 -7
BITMAP
FF80
FF80
ENDCHAR
STARTCHAR 05B8
ENCODING 1464
SWIDTH 337 0
DWIDTH 15 0
BBX 9 6 3 -9
BITMAP
FF80
FF80
FF80
1C00
1C00
1C00
ENDCHAR
STARTCHAR 05B9
ENCODING 1465
SWIDTH 337 0
DWIDTH 15 0
BBX 3 3 6 26
BITMAP
E0
E0
E0
ENDCHAR
STARTCHAR 05BA
ENCODING 1466
SWIDTH 337 0
DWIDTH 15 0
BBX 3 3 6 26
BITMAP
E0
E0
E0
ENDCHAR
STARTCHAR 05BB
ENCODING 1467
SWIDTH 337 0
DWIDTH 15 0
BBX 14 8 0 -9
BITMAP
6000
F000
F100
6380
0380
039C
001C
001C
ENDCHAR
STARTCHAR 05BC
ENCODING 1468
SWIDTH 337 0
DWIDTH 15 0
BBX 3 3 6 11
BITMAP
E0
E0
E0
ENDCHAR
STARTCHAR 05BD
ENCODING 1469
SWIDTH 337 0
DWIDTH 15 0
BBX 3 8 6 -9
BITMAP
E0
E0
E0
E0
E0
E0
E0
E0
ENDCHAR
STARTCHAR 05BE
ENCODING 1470
SWIDTH 450 0
DWIDTH 20 0
BBX 14 5 3 18
BITMAP
FFFC
FFFC
FFFC
FFFC
FFFC
ENDCHAR
STARTCHAR 05BF
ENCODING 1471
SWIDTH 337 0
DWIDTH 15 0
BBX 9 2 3 27
BITMAP
FF80
FF80
ENDCHAR
STARTCHAR 05C0
ENCODING 1472
SWIDTH 292 0
DWIDTH 13 0
BBX 5 32 4 -4
BITMAP
F8
F8
F8
F8
F8
F8
F8
F8
F8
F8
F8
F8
F8
F8
F8
F8
F8
F8
F8
F8
F8
F8
F8
F8
F8
F8
F8
F8
F8
F8
F8
F8
ENDCHAR
STARTCHAR 05C1
ENCODING 1473
SWIDTH 337 0
DWIDTH 15 0
BBX 3 3 17 26
BITMAP
E0
E0
E0
ENDCHAR
STARTCHAR 05C2
ENCODING 1474
SWIDTH 337 0
DWIDTH 15 0
BBX 4 3 -6 26
BITMAP
70
F0
70
ENDCHAR
STARTCHAR 05C3
ENCODING 1475
SWIDTH 337 0
DWIDTH 15 0
BBX 6 23 4 0
BITMAP
FC
FC
FC
FC
FC
FC
00
00
00
00
00
00
00
00
00
00
00
FC
FC
FC
FC
FC
FC
ENDCHAR
STARTCHAR 05D0
ENCODING 1488
SWIDTH 585 0
DWIDTH 26 0
BBX 23 23 2 0
BITMAP
FE00FC
7F00FC
3F80FC
3FC0F8
1FC0F8
0FE0F8
0FF1F8
07F1F8
0FF9F0
1FFFF0
3FFFE0
3FFFC0
7F7F80
7E7F80
7E3F80
7E1FC0
7C0FE0
7C0FE0
FC07F0
FC03F8
FC03FC
FC01FC
FC00FE
ENDCHAR
STARTCHAR 05D1
ENCODING 1489
SWIDTH 585 0
DWIDTH 26 0
BBX 24 23 1 0
BITMAP
FFF800
FFFE00
7FFF80
7FFFC0
7FFFC0
003FE0
000FE0
0007E0
0007E0
0007E0
0007E0
0007E0
0007E0
0007E0
0007E0
0007E0
0007E0
0007E0
7FFFFF
7FFFFF
7FFFFF
7FFFFF
7FFFFF
ENDCHAR
STARTCHAR 05D2
ENCODING 1490
SWIDTH 450 0
DWIDTH 20 0
BBX 19 23 0 0
BITMAP
0FF800
0FFC00
0FFE00
0FFF00
0FFF00
007F00
003F00
003F00
003F00
003F00
003F00
003F00
003F00
003F00
01FF80
07FF80
0FFF80
1FFF80
3F8FC0
3F0FC0
7F0FC0
7E0FC0
FE07E0
ENDCHAR
STARTCHAR 05D3
ENCODING 1491
SWIDTH 540 0
DWIDTH 24 0
BBX 22 23 1 0
BITMAP
FFFFFC
FFFFFC
FFFFFC
FFFFFC
FFFFFC
0007E0
0007E0
0007E0
0007E0
0007E0
0007E0
0007E0
0007E0
0007E0
0007E0
0007E0
0007E0
0007E0
0007E0
0007E0
0007E0
0007E0
0007E0
ENDCHAR
STARTCHAR 05D4
ENCODING 1492
SWIDTH 607 0
DWIDTH 27 0
BBX 22 23 3 0
BITMAP
FFFC00
FFFF80
FFFFC0
FFFFE0
FFFFF0
000FF8
0003F8
0003F8
0001F8
0001FC
0001FC
FC01FC
FC01FC
FC01FC
FC01FC
FC01FC
FC01FC
FC01FC
FC01FC
FC01FC
FC01FC
FC01FC
FC01FC
ENDCHAR
STARTCHAR 05D5
ENCODING 1493
SWIDTH 270 0
DWIDTH 12 0
BBX 6 23 3 0
BITMAP
FC
FC
FC
FC
FC
FC
FC
FC
FC
FC
FC
FC
FC
FC
FC
FC
FC
FC
FC
FC
FC
FC
FC
ENDCHAR
STARTCHAR 05D6
ENCODING 1494
SWIDTH 405 0
DWIDTH 18 0
BBX 16 23 2 0
BITMAP
FFFF
FFFF
FFFF
FFFF
FFFC
03E0
07C0
0F80
0F80
0F80
0F80
0F80
0F80
0F80
0F80
0FC0
0FC0
0FC0
0FC0
0FC0
0FC0
0FC0
0FC0
ENDCHAR
STARTCHAR 05D7
ENCODING 1495
SWIDTH 607 0
DWIDTH 27 0
BBX 21 23 3 0
BITMAP
FFFE00
FFFF80
FFFFE0
FFFFF0
FFFFF0
FC07F8
FC03F8
FC01F8
FC01F8
FC01F8
FC01F8
FC01F8
FC01F8
FC01F8
FC01F8
FC01F8
FC01F8
FC01F8
FC01F8
FC01F8
FC01F8
FC01F8
FC01F8
ENDCHAR
STARTCHAR 05D8
ENCODING 1496
SWIDTH 630 0
DWIDTH 28 0
BBX 22 25 3 -1
BITMAP
000100
FC0FE0
FC3FF0
FC3FF8
FC7FF8
FC7FFC
FC31FC
FC00FC
FC00FC
FC00FC
FC00FC
FC00FC
FC00FC
FC00FC
FC00FC
FC00FC
FE00FC
7E01FC
7F03F8
7FFFF8
3FFFF0
1FFFE0
0FFFC0
03FF00
001000
ENDCHAR
STARTCHAR 05D9
ENCODING 1497
SWIDTH 270 0
DWIDTH 12 0
BBX 6 13 3 10
BITMAP
FC
FC
FC
FC
FC
FC
FC
FC
FC
FC
FC
FC
FC
ENDCHAR
STARTCHAR 05DA
ENCODING 1498
SWIDTH 517 0
DWIDTH 23 0
BBX 19 32 1 -9
BITMAP
FFF800
FFFE00
FFFF80
FFFFC0
FFFFC0
003FE0
000FE0
000FE0
0007E0
0007E0
0007E0
0007E0
0007E0
0007E0
0007E0
0007E0
0007E0
0007E0
0007E0
0007E0
0007E0
0007E0
0007E0
0007E0
0007E0
0007E0
0007E0
0007E0
0007E0
0007E0
0007E0
0007E0
ENDCHAR
STARTCHAR 05DB
ENCODING 1499
SWIDTH 495 0
DWIDTH 22 0
BBX 18 23 2 0
BITMAP
FFE000
FFF800
FFFC00
FFFE00
E3FF00
007F80
003F80
001FC0
001FC0
001FC0
000FC0
000FC0
000FC0
001FC0
001FC0
001FC0
003F80
007F80
E7FF00
FFFE00
FFFC00
FFF800
FFE000
ENDCHAR
STARTCHAR 05DC
ENCODING 1500
SWIDTH 495 0
DWIDTH 22 0
BBX 19 32 1 0
BITMAP
FC0000
FC0000
FC0000
FC0000
FC0000
FC0000
FC0000
FC0000
FC0000
FFFFE0
FFFFE0
FFFFE0
FFFFE0
FFFFE0
0007E0
0007E0
0007E0
0007E0
0007E0
000FE0
000FC0
001FC0
003F80
003F80
007F00
007E00
007E00
007E00
007E00
007E00
007E00
007E00
ENDCHAR
STARTCHAR 05DD
ENCODING 1501
SWIDTH 607 0
DWIDTH 27 0
BBX 21 23 3 0
BITMAP
FFFE00
FFFF80
FFFFE0
FFFFF0
FFFFF0
FC07F8
FC03F8
FC01F8
FC01F8
FC01F8
FC01F8
FC01F8
FC01F8
FC01F8
FC01F8
FC01F8
FC01F8
FC01F8
FFFFF8
FFFFF8
FFFFF8
FFFFF8
FFFFF8
ENDCHAR
STARTCHAR 05DE
ENCODING 1502
SWIDTH 630 0
DWIDTH 28 0
BBX 24 23 1 0
BITMAP
FC0FE0
7C3FF8
7C7FFC
7EFFFC
3FFFFE
3FF8FE
3FF07F
1FE03F
1FE03F
1FC03F
0FC03F
0FC03F
0FC03F
1F803F
1F803F
1F803F
1F803F
3F803F
3F07FF
3F07FF
3F07FF
3F07FF
7F07FF
ENDCHAR
STARTCHAR 05DF
ENCODING 1503
SWIDTH 270 0
DWIDTH 12 0
BBX 6 32 3 -9
BITMAP
FC
FC
FC
FC
FC
FC
FC
FC
FC
FC
FC
FC
FC
FC
FC
FC
FC
FC
FC
FC
FC
FC
FC
FC
FC
FC
FC
FC
FC
FC
FC
FC
ENDCHAR
STARTCHAR 05E0
ENCODING 1504
SWIDTH 382 0
DWIDTH 17 0
BBX 12 23 2 0
BITMAP
FF00
FFC0
FFE0
FFF0
FFF0
07F0
03F0
03F0
03F0
03F0
03F0
03F0
03F0
03F0
03F0
03F0
03F0
03F0
FFF0
FFF0
FFF0
FFF0
FFF0
ENDCHAR
STARTCHAR 05E1
ENCODING 1505
SWIDTH 607 0
DWIDTH 27 0
BBX 24 25 2 -1
BITMAP
001000
03FF80
07FFE0
1FFFF0
3FFFF8
3FEFFC
7F01FC
7E00FE
FE00FE
FC007E
FC007E
FC007F
FC007F
FC007E
FC007E
FC007E
FE00FE
7E00FE
7F01FC
3FEFF8
3FFFF8
1FFFF0
07FFE0
03FF80
001000
ENDCHAR
STARTCHAR 05E2
ENCODING 1506
SWIDTH 540 0
DWIDTH 24 0
BBX 22 26 0 -3
BITMAP
3F00FC
1F80FC
1F80FC
1F80FC
1F80FC
1F80FC
1FC0FC
0FC0FC
0FC0FC
0FC0FC
0FC0F8
0FC0F8
07E1F8
07E1F8
07E1F8
07E1F8
07E3F8
03E7F0
03FFF0
03FFE0
07FFC0
FFFF80
FFFE00
FFF800
7FC000
7C0000
ENDCHAR
STARTCHAR 05E3
ENCODING 1507
SWIDTH 585 0
DWIDTH 26 0
BBX 22 32 2 -9
BITMAP
FFFE00
FFFF80
FFFFE0
FFFFF0
FF7FF0
FC07F8
FC03F8
FC01F8
FC01FC
FC01FC
FC00FC
FE00FC
7F80FC
7FC0FC
3FC0FC
1FC0FC
0000FC
0000FC
0000FC
0000FC
0000FC
0000FC
0000FC
0000FC
0000FC
0000FC
0000FC
0000FC
0000FC
0000FC
0000FC
0000FC
ENDCHAR
STARTCHAR 05E4
ENCODING 1508
SWIDTH 585 0
DWIDTH 26 0
BBX 22 23 2 0
BITMAP
3FFE00
7FFF80
7FFFC0
7FFFF0
7C07F0
7C03F8
7C01FC
7E01FC
7E00FC
7F00FC
7FC0FC
3FC0FC
1FE0FC
0FE0FC
0001FC
0001FC
0003F8
0007F8
701FF0
7FFFE0
7FFFC0
FFFF00
3FFC00
ENDCHAR
STARTCHAR 05E5
ENCODING 1509
SWIDTH 495 0
DWIDTH 22 0
BBX 20 32 0 -9
BITMAP
FE03F0
7F03F0
7F03F0
3F83F0
1F83F0
1FC3F0
0FC3F0
0FC3F0
07E7E0
07E7E0
03FFE0
03FFC0
01FF80
01FF00
01FE00
01F800
01F800
01F800
01F800
01F800
01F800
01F800
01F800
01F800
01F800
01F800
01F800
01F800
01F800
01F800
01F800
01F800
ENDCHAR
STARTCHAR 05E6
ENCODING 1510
SWIDTH 517 0
DWIDTH 23 0
BBX 20 23 1 0
BITMAP
FC03F0
FE03E0
7E03E0
7F07E0
3F87E0
1F87E0
1FC7E0
0FE7E0
07EFE0
07FFC0
03FF80
01FF00
01FE00
00FC00
007E00
007F00
003F00
001F80
7FFFC0
7FFFC0
7FFFE0
7FFFE0
7FFFE0
ENDCHAR
STARTCHAR 05E7
ENCODING 1511
SWIDTH 562 0
DWIDTH 25 0
BBX 20 32 3 -9
BITMAP
FFFFF0
FFFFF0
FFFFF0
FFFFF0
FFFFF0
0003F0
0003F0
0003F0
0003F0
0003F0
0003F0
FC07F0
FC07E0
FC0FE0
FC1FC0
FC1F80
FC3F80
FC3F00
FC3F00
FC3F00
FC3F00
FC3F00
FC3F00
FC0000
FC0000
FC0000
FC0000
FC0000
FC0000
FC0000
FC0000
FC0000
ENDCHAR
STARTCHAR 05E8
ENCODING 1512
SWIDTH 517 0
DWIDTH 23 0
BBX 19 23 1 0
BITMAP
FFF800
FFFE00
FFFF80
FFFFC0
FFFFC0
003FE0
000FE0
000FE0
0007E0
0007E0
0007E0
0007E0
0007E0
0007E0
0007E0
0007E0
0007E0
0007E0
0007E0
0007E0
0007E0
0007E0
0007E0
ENDCHAR
STARTCHAR 05E9
ENCODING 1513
SWIDTH 720 0
DWIDTH 32 0
BBX 28 24 2 -1
BITMAP
FC1F83F0
FC1F83F0
FC1F83F0
FC1F83F0
FC1F83F0
FC1F83F0
FC1F83E0
FC1F87E0
FC3F07E0
FC3F07E0
FCFF07E0
FFFE07E0
7FFC07E0
7FF807E0
7FC00FC0
7E000FC0
3F001FC0
3F803F80
1FE07F80
0FFFFF00
07FFFE00
03FFF800
00FFF000
000F0000
ENDCHAR
STARTCHAR 05EA
ENCODING 1514
SWIDTH 675 0
DWIDTH 30 0
BBX 26 23 1 0
BITMAP
FFFFF000
FFFFFC00
FFFFFE00
7FFFFF00
7FFFFF80
07E03F80
07E01FC0
07E01FC0
07E00FC0
07E00FC0
07E00FC0
07E00FC0
07E00FC0
07E00FC0
07E00FC0
07E00FC0
07E00FC0
07E00FC0
07E00FC0
7FE00FC0
FFE00FC0
FFC00FC0
FF800FC0
ENDCHAR
STARTCHAR 05F0
ENCODING 1520
SWIDTH 540 0
DWIDTH 24 0
BBX 18 23 3 0
BITMAP
FC0FC0
FC0FC0
FC0FC0
FC0FC0
FC0FC0
FC0FC0
FC0FC0
FC0FC0
FC0FC0
FC0FC0
FC0FC0
FC0FC0
FC0FC0
FC0FC0
FC0FC0
FC0FC0
FC0FC0
FC0FC0
FC0FC0
FC0FC0
FC0FC0
FC0FC0
FC0FC0
ENDCHAR
STARTCHAR 05F1
ENCODING 1521
SWIDTH 540 0
DWIDTH 24 0
BBX 18 23 3 0
BITMAP
FC0FC0
FC0FC0
FC0FC0
FC0FC0
FC0FC0
FC0FC0
FC0FC0
FC0FC0
FC0FC0
FC0FC0
FC0FC0
FC0FC0
FC0FC0
000FC0
000FC0
000FC0
000FC0
000FC0
000FC0
000FC0
000FC0
000FC0
000FC0
ENDCHAR
STARTCHAR 05F2
ENCODING 1522
SWIDTH 540 0
DWIDTH 24 0
BBX 18 13 3 10
BITMAP
FC0FC0
FC0FC0
FC0FC0
FC0FC0
FC0FC0
FC0FC0
FC0FC0
FC0FC0
FC0FC0
FC0FC0
FC0FC0
FC0FC0
FC0FC0
ENDCHAR
STARTCHAR 05F3
ENCODING 1523
SWIDTH 270 0
DWIDTH 12 0
BBX 8 9 2 14
BITMAP
3F
3F
7E
7E
7C
7C
F8
F8
F0
ENDCHAR
STARTCHAR 05F4
ENCODING 1524
SWIDTH 495 0
DWIDTH 22 0
BBX 19 9 2 14
BITMAP
3F0FE0
3F0FC0
7E0FC0
7E1F80
7C1F00
7C1F00
F81E00
F83E00
F03C00
ENDCHAR
STARTCHAR 060C
ENCODING 1548
SWIDTH 315 0
DWIDTH 14 0
BBX 7 14 4 6
BITMAP
08
18
30
60
60
C0
C0
E0
FC
FC
FE
FE
7C
38
ENDCHAR
STARTCHAR 061B
ENCODING 1563
SWIDTH 315 0
DWIDTH 14 0
BBX 7 21 3 6
BITMAP
0C
18
38
30
60
60
60
78
FE
7E
7E
7E
3E
08
00
00
1C
3E
3E
3E
1C
ENDCHAR
STARTCHAR 061F
ENCODING 1567
SWIDTH 360 0
DWIDTH 16 0
BBX 13 26 1 6
BITMAP
0300
1FE0
3C30
7838
7878
78F8
F8F8
FCF8
7C70
7E00
7E00
3F00
1F00
0F00
0700
0300
0100
0100
0100
0000
0000
0780
0F80
0FC0
0780
0700
ENDCHAR
STARTCHAR 0621
ENCODING 1569
SWIDTH 472 0
DWIDTH 21 0
BBX 16 21 3 2
BITMAP
0300
0FE0
1FF0
1FF0
3FF0
7FE0
70C0
F040
F803
FC3E
FFFE
FFFE
7FFC
3FF8
1FC0
3F00
3C00
7800
7000
E000
C000
ENDCHAR
STARTCHAR 0622
ENCODING 1570
SWIDTH 247 0
DWIDTH 11 0
BBX 10 32 0 5
BITMAP
7000
FFC0
0F80
0000
0400
0400
0C00
0C00
0C00
1C00
1E00
1E00
1E00
1E00
0E00
0E00
0F00
0F00
0F00
0F00
0700
0700
0700
0700
0700
0700
0700
0700
0600
0600
0600
0400
ENDCHAR
STARTCHAR 0623
ENCODING 1571
SWIDTH 225 0
DWIDTH 10 0
BBX 5 34 3 5
BITMAP
30
70
80
C0
78
C0
20
20
60
60
60
E0
F0
F0
F0
70
70
70
78
78
78
78
38
38
38
38
38
38
38
38
30
30
30
20
ENDCHAR
STARTCHAR 0624
ENCODING 1572
SWIDTH 450 0
DWIDTH 20 0
BBX 20 32 0 -3
BITMAP
00E000
01E000
010000
01F000
01E000
020000
000000
000000
0003C0
0007E0
000FE0
000FF0
001FF0
001CF0
001C70
001C70
001E70
001FF0
001FF0
001FF0
000FF0
0007F0
000070
0000F0
0001E0
0007E0
E00FC0
7C3FC0
1FFF80
0FFF00
03FE00
00F800
ENDCHAR
STARTCHAR 0625
ENCODING 1573
SWIDTH 225 0
DWIDTH 10 0
BBX 6 37 2 -4
BITMAP
10
10
30
30
30
70
78
78
78
78
38
38
3C
3C
3C
3C
1C
1C
1C
1C
1C
1C
1C
1C
18
18
18
10
00
00
00
38
78
40
7C
78
80
ENDCHAR
STARTCHAR 0626
ENCODING 1574
SWIDTH 652 0
DWIDTH 29 0
BBX 23 27 3 -3
BITMAP
1C0000
1C0000
200000
3E0000
1C007C
6000FC
0001FE
0003FE
0007FC
0C0784
180E04
100C00
301C00
201FF8
601FFC
601FFC
600FFC
400078
C00018
E00078
E003F0
F81FF0
FFFFE0
7FFF80
7FFE00
3FF800
038000
ENDCHAR
STARTCHAR 0627
ENCODING 1575
SWIDTH 225 0
DWIDTH 10 0
BBX 5 28 3 5
BITMAP
20
20
60
60
60
E0
F0
F0
F0
F0
70
70
78
78
78
78
38
38
38
38
38
38
38
38
30
30
30
20
ENDCHAR
STARTCHAR 0628
ENCODING 1576
SWIDTH 652 0
DWIDTH 29 0
BBX 28 25 1 -3
BITMAP
00000040
30000040
300000E0
600000E0
600000E0
600001F0
E00000F0
E0000070
F0000070
FE000030
FFFFFFF0
7FFFFFF0
7FFFFFF0
3FFFFFF0
1FFFFFF0
03FFFFF0
00000000
00020000
00030000
0007C000
0007E000
000FE000
000FC000
0003C000
00008000
ENDCHAR
STARTCHAR 0629
ENCODING 1577
SWIDTH 337 0
DWIDTH 15 0
BBX 11 28 2 6
BITMAP
0200
0380
47C0
77C0
FF80
FB80
F000
7000
0000
0000
0000
1800
1C00
3F00
3F80
3FC0
3FE0
3FE0
67E0
61E0
C0E0
E0E0
F3E0
FFE0
FFE0
FFC0
FF80
7E00
ENDCHAR
STARTCHAR 062A
ENCODING 1578
SWIDTH 652 0
DWIDTH 29 0
BBX 28 23 1 6
BITMAP
00008000
0001E000
0019F000
003FE000
003FE000
007CC000
003C0000
00080040
30000040
300000E0
600000E0
600000E0
600001F0
E00000F0
E0000070
F0000070
FE000030
FFFFFFF0
7FFFFFF0
7FFFFFF0
3FFFFFF0
1FFFFFF0
03FFFFF0
ENDCHAR
STARTCHAR 062B
ENCODING 1579
SWIDTH 652 0
DWIDTH 29 0
BBX 28 28 1 6
BITMAP
00080000
001E0000
001F0000
003E0000
003E0000
000C8000
0001E000
0011F000
003FE000
003FE000
007CC000
003C0000
00180040
30000040
300000E0
600000E0
600000E0
600000F0
E00000F0
E0000070
F0000070
FE000030
7FFFFFF0
7FFFFFF0
7FFFFFF0
3FFFFFF0
1FFFFFF0
00FFFFF0
ENDCHAR
STARTCHAR 062C
ENCODING 1580
SWIDTH 585 0
DWIDTH 26 0
BBX 24 32 1 -9
BITMAP
0FFFFC
1FFFF8
3FFFF8
7FFFF8
7FFFF8
7EFFF0
E1FF00
07F000
0FC000
0F0000
1E0000
3C0000
380000
300C00
701F00
603F80
603F00
607F00
601E00
700600
700000
700000
780000
7C0000
7F0000
3FE000
3FFFFF
1FFFFE
0FFFF8
07FFF0
01FFC0
003F00
ENDCHAR
STARTCHAR 062D
ENCODING 1581
SWIDTH 585 0
DWIDTH 26 0
BBX 24 32 1 -9
BITMAP
0FFFFC
1FFFF8
3FFFF8
7FFFF8
7FFFF8
7EFFF0
E1FF00
07F000
0FC000
0F0000
1E0000
3C0000
380000
300000
700000
600000
600000
600000
600000
700000
700000
700000
780000
7C0000
7F0000
3FE000
3FFFFF
1FFFFE
0FFFF8
07FFF0
01FFC0
003F00
ENDCHAR
STARTCHAR 062E
ENCODING 1582
SWIDTH 585 0
DWIDTH 26 0
BBX 24 42 1 -9
BITMAP
006000
007000
00FC00
01FC00
01F800
00F800
003000
000000
000000
000000
0FFFFC
1FFFF8
3FFFF8
7FFFF8
7FFFF8
7EFFF0
E1FF00
07F000
0FC000
0F0000
1E0000
3C0000
380000
300000
700000
600000
600000
600000
600000
700000
700000
700000
780000
7C0000
7F0000
3FE000
3FFFFF
1FFFFE
0FFFF8
07FFF0
01FFC0
003F00
ENDCHAR
STARTCHAR 062F
ENCODING 1583
SWIDTH 337 0
DWIDTH 15 0
BBX 13 21 2 6
BITMAP
0080
00C0
00E0
01E0
01F0
01F0
01F0
01F8
00F8
0078
0038
0038
0018
4018
E018
FFF8
FFF8
FFF8
FFF8
7FF8
3FF8
ENDCHAR
STARTCHAR 0630
ENCODING 1584
SWIDTH 337 0
DWIDTH 15 0
BBX 13 31 2 7
BITMAP
0C00
1F00
1F80
3F80
3F00
0F00
0200
0000
0000
0000
0080
00C0
00E0
01E0
01F0
01F0
01F0
01F8
00F8
0078
0038
0038
0018
4018
E018
FFF8
FFF8
FFF8
FFF8
7FF8
3FF8
ENDCHAR
STARTCHAR 0631
ENCODING 1585
SWIDTH 427 0
DWIDTH 19 0
BBX 19 23 0 -3
BITMAP
000080
0000C0
0000C0
0001E0
0001E0
0001E0
0000E0
000060
000060
000060
000020
000060
000060
0000E0
0001E0
0003E0
0007C0
401FC0
F03F80
3FFF00
1FFE00
07FC00
01F800
ENDCHAR
STARTCHAR 0632
ENCODING 1586
SWIDTH 427 0
DWIDTH 19 0
BBX 19 34 0 -3
BITMAP
000400
000E00
000F80
001FC0
001F80
001F80
000700
000100
000000
000000
000000
000080
0000C0
0000C0
0001E0
0001E0
0001E0
0000E0
000060
000060
000060
000020
000060
000060
0000E0
0001E0
0003E0
0007C0
401FC0
F03F80
3FFF00
1FFE00
07FC00
01F800
ENDCHAR
STARTCHAR 0633
ENCODING 1587
SWIDTH 900 0
DWIDTH 40 0
BBX 39 23 1 -3
BITMAP
0000080000
00000C0004
00000C018E
04001C018E
0C001E019E
08001E018E
18001E038E
30000E0FFE
30000FFFFE
700007FFFE
600007FFFE
600007FFFE
600007FE7E
600007F006
F0000E0000
F8001E0000
FC003E0000
7FE7FC0000
7FFFFC0000
3FFFF80000
1FFFF00000
0FFFE00000
00FE000000
ENDCHAR
STARTCHAR 0634
ENCODING 1588
SWIDTH 900 0
DWIDTH 40 0
BBX 39 37 1 -3
BITMAP
0000000E00
0000000F80
0000001F80
0000001F00
0000000F00
0000000660
00000000F8
0000000CF8
0000001FF0
0000001FF0
0000003E60
0000001E00
0000000400
0000000000
0000080000
00000C0004
00000C018E
04001C018E
0C001E019E
08001E018E
18001E038E
30000E0FFE
30000FFFFE
700007FFFE
600007FFFE
600007FFFE
600007FE7E
600007F006
F0000E0000
F8001E0000
FC003E0000
7FE7FC0000
7FFFFC0000
3FFFF80000
1FFFF00000
0FFFE00000
00FE000000
ENDCHAR
STARTCHAR 0635
ENCODING 1589
SWIDTH 1057 0
DWIDTH 47 0
BBX 46 25 1 -3
BITMAP
0000000003F0
000000000FF8
000008001FF8
00000C007FFC
00000C00FFFC
04001C01FDFC
0C001E07E01C
08001E0FC01C
18001E3F001C
30000E7E00FC
30000FFFFFFC
700007FFFFFC
600007FFFFFC
600007FFFFFC
600007FFFFFC
600007FFFFFC
F0000E000000
F8001E000000
FC003E000000
7FE7FC000000
7FFFFC000000
3FFFF8000000
1FFFF0000000
0FFFE0000000
00FE00000000
ENDCHAR
STARTCHAR 0636
ENCODING 1590
SWIDTH 1057 0
DWIDTH 47 0
BBX 46 35 1 -3
BITMAP
000000070000
000000078000
0000000FE000
0000000FC000
0000001FC000
000000078000
000000018000
000000000000
000000000000
000000000000
0000000003F0
000000000FF8
000008001FF8
00000C007FFC
00000C00FFFC
04001C01FDFC
0C001E07E01C
08001E0FC01C
18001E3F001C
30000E7E00FC
30000FFFFFFC
700007FFFFFC
600007FFFFFC
600007FFFFFC
600007FFFFFC
600007FFFFFC
F0000E000000
F8001E000000
FC003E000000
7FE7FC000000
7FFFFC000000
3FFFF8000000
1FFFF0000000
0FFFE0000000
00FE00000000
ENDCHAR
ENDFONT
